arefruqaa-bold.sfdir
StartChar: exclam
Encoding: 33 33 4
Width: 520
GlyphClass: 2
Flags: W
LayerCount: 2
Fore
SplineSet
260 390 m 1,0,-1
 258 389 l 1,1,2
 271 405 271 405 290 405 c 0,3,4
 307 405 307 405 319 392 c 1,5,-1
 318 392 l 1,6,-1
 462 253 l 2,7,8
 477 239 477 239 477 223 c 256,9,10
 477 207 477 207 464 194 c 1,11,-1
 464 195 l 1,12,-1
 283 8 l 2,13,14
 278 4 278 4 272.5 2 c 128,-1,15
 267 0 267 0 258 0 c 0,16,17
 245 0 245 0 232 10 c 1,18,-1
 86 151 l 2,19,20
 72 164 72 164 72 181 c 0,21,22
 72 197 72 197 85 210 c 1,23,-1
 85 209 l 1,24,-1
 260 390 l 1,0,-1
431 945 m 0,25,26
 434 907 434 907 434 870 c 0,27,28
 434 819 434 819 429 772 c 128,-1,29
 424 725 424 725 413 683 c 0,30,31
 385 573 385 573 341 484 c 1,32,-1
 342 485 l 1,33,-1
 332 465 l 2,34,35
 322 443 322 443 310.5 422.5 c 128,-1,36
 299 402 299 402 281 387 c 0,37,38
 275 383 275 383 270 380.5 c 128,-1,39
 265 378 265 378 257 378 c 0,40,41
 228 378 228 378 228 409 c 0,42,43
 228 412 228 412 227.5 414 c 128,-1,44
 227 416 227 416 227 417 c 0,45,46
 227 419 227 419 226.5 422.5 c 128,-1,47
 226 426 226 426 226 427 c 0,48,49
 235 486 235 486 240 541.5 c 128,-1,50
 245 597 245 597 245 649 c 0,51,52
 245 716 245 716 237 780.5 c 128,-1,53
 229 845 229 845 215 903 c 1,54,55
 201 953 201 953 185.5 1003.5 c 128,-1,56
 170 1054 170 1054 152.5 1102.5 c 128,-1,57
 135 1151 135 1151 116.5 1195.5 c 128,-1,58
 98 1240 98 1240 79 1277 c 1,59,-1
 53 1322 l 1,60,61
 31 1356 31 1356 31 1382 c 1,62,63
 47 1423 47 1423 65.5 1466 c 128,-1,64
 84 1509 84 1509 102 1550 c 0,65,66
 115 1579 115 1579 128 1607.5 c 128,-1,67
 141 1636 141 1636 153 1666 c 0,68,69
 160 1681 160 1681 175 1681.5 c 128,-1,70
 190 1682 190 1682 198 1667 c 0,71,72
 236 1587 236 1587 272 1505.5 c 128,-1,73
 308 1424 308 1424 343 1342 c 0,74,75
 378 1258 378 1258 400.5 1159 c 128,-1,76
 423 1060 423 1060 431 945 c 0,25,26
EndSplineSet
EndChar
StartChar: quotedbl
Encoding: 34 34 5
Width: 971
GlyphClass: 2
Flags: W
LayerCount: 2
Fore
SplineSet
168 913 m 2,0,1
 160 913 160 913 152.5 918.5 c 128,-1,2
 145 924 145 924 144 932 c 2,3,-1
 92 1196 l 1,4,-1
 92 1441 l 2,5,6
 92 1451 92 1451 99 1458 c 128,-1,7
 106 1465 106 1465 116 1465 c 2,8,-1
 412 1465 l 2,9,10
 423 1465 423 1465 429.5 1458 c 128,-1,11
 436 1451 436 1451 436 1441 c 2,12,-1
 436 1197 l 1,13,-1
 392 933 l 2,14,15
 390 925 390 925 383 919 c 128,-1,16
 376 913 376 913 368 913 c 2,17,-1
 168 913 l 2,0,1
603 913 m 2,18,19
 595 913 595 913 588 918.5 c 128,-1,20
 581 924 581 924 579 932 c 2,21,-1
 528 1196 l 1,22,-1
 528 1441 l 2,23,24
 528 1451 528 1451 535 1458 c 128,-1,25
 542 1465 542 1465 552 1465 c 2,26,-1
 848 1465 l 2,27,28
 859 1465 859 1465 865.5 1458 c 128,-1,29
 872 1451 872 1451 872 1441 c 2,30,-1
 872 1197 l 1,31,-1
 828 933 l 2,32,33
 826 925 826 925 819 919 c 128,-1,34
 812 913 812 913 804 913 c 2,35,-1
 603 913 l 2,18,19
EndSplineSet
EndChar
StartChar: numbersign
Encoding: 35 35 6
Width: 1139
GlyphClass: 2
Flags: W
LayerCount: 2
Fore
SplineSet
128 353 m 1,0,-1
 27 353 l 2,1,2
 16 353 16 353 9.5 359.5 c 128,-1,3
 3 366 3 366 3 377 c 2,4,-1
 3 589 l 2,5,6
 3 600 3 600 9.5 607 c 128,-1,7
 16 614 16 614 27 614 c 2,8,-1
 182 614 l 1,9,-1
 230 850 l 1,10,-1
 27 850 l 2,11,12
 16 850 16 850 9.5 857 c 128,-1,13
 3 864 3 864 3 875 c 2,14,-1
 3 1088 l 2,15,16
 3 1099 3 1099 9.5 1105.5 c 128,-1,17
 16 1112 16 1112 27 1112 c 2,18,-1
 282 1112 l 1,19,20
 299 1197 299 1197 318.5 1291 c 128,-1,21
 338 1385 338 1385 355 1470 c 0,22,23
 356 1478 356 1478 363.5 1483.5 c 128,-1,24
 371 1489 371 1489 379 1489 c 2,25,-1
 595 1489 l 2,26,27
 608 1489 608 1489 614.5 1480.5 c 128,-1,28
 621 1472 621 1472 619 1460 c 2,29,-1
 549 1112 l 1,30,-1
 712 1112 l 1,31,-1
 783 1470 l 2,32,33
 785 1478 785 1478 792 1483.5 c 128,-1,34
 799 1489 799 1489 807 1489 c 2,35,-1
 1031 1489 l 2,36,37
 1043 1489 1043 1489 1050 1480.5 c 128,-1,38
 1057 1472 1057 1472 1055 1460 c 2,39,-1
 984 1112 l 1,40,-1
 1087 1112 l 2,41,42
 1097 1112 1097 1112 1104 1105.5 c 128,-1,43
 1111 1099 1111 1099 1111 1088 c 2,44,-1
 1111 875 l 2,45,46
 1111 864 1111 864 1104 857 c 128,-1,47
 1097 850 1097 850 1087 850 c 2,48,-1
 929 850 l 1,49,50
 923 818 923 818 917 789.5 c 128,-1,51
 911 761 911 761 905.5 733.5 c 128,-1,52
 900 706 900 706 894.5 676.5 c 128,-1,53
 889 647 889 647 882 614 c 1,54,-1
 1087 614 l 2,55,56
 1097 614 1097 614 1104 607 c 128,-1,57
 1111 600 1111 600 1111 589 c 2,58,-1
 1111 377 l 2,59,60
 1111 366 1111 366 1104 359.5 c 128,-1,61
 1097 353 1097 353 1087 353 c 2,62,-1
 829 353 l 1,63,-1
 756 -5 l 2,64,65
 755 -13 755 -13 747.5 -18.5 c 128,-1,66
 740 -24 740 -24 732 -24 c 2,67,-1
 517 -24 l 2,68,69
 505 -24 505 -24 498 -15.5 c 128,-1,70
 491 -7 491 -7 493 5 c 2,71,-1
 561 353 l 1,72,-1
 397 353 l 1,73,-1
 325 -5 l 2,74,75
 323 -13 323 -13 315.5 -18.5 c 128,-1,76
 308 -24 308 -24 300 -24 c 2,77,-1
 82 -24 l 2,78,79
 70 -24 70 -24 63 -15.5 c 128,-1,80
 56 -7 56 -7 58 5 c 2,81,-1
 128 353 l 1,0,-1
497 850 m 1,82,83
 491 818 491 818 485 789.5 c 128,-1,84
 479 761 479 761 473.5 733.5 c 128,-1,85
 468 706 468 706 462 676.5 c 128,-1,86
 456 647 456 647 449 614 c 1,87,-1
 613 614 l 1,88,-1
 660 850 l 1,89,-1
 497 850 l 1,82,83
EndSplineSet
EndChar
StartChar: quotesingle
Encoding: 39 39 7
Width: 487
GlyphClass: 2
Flags: W
LayerCount: 2
Fore
SplineSet
144 913 m 2,0,1
 136 913 136 913 129 918.5 c 128,-1,2
 122 924 122 924 120 932 c 2,3,-1
 69 1196 l 1,4,-1
 69 1441 l 2,5,6
 69 1451 69 1451 75.5 1458 c 128,-1,7
 82 1465 82 1465 93 1465 c 2,8,-1
 389 1465 l 2,9,10
 399 1465 399 1465 406 1458 c 128,-1,11
 413 1451 413 1451 413 1441 c 2,12,-1
 413 1197 l 1,13,-1
 368 933 l 2,14,15
 366 925 366 925 359.5 919 c 128,-1,16
 353 913 353 913 344 913 c 2,17,-1
 144 913 l 2,0,1
EndSplineSet
EndChar
StartChar: parenleft
Encoding: 40 40 8
Width: 682
GlyphClass: 2
Flags: W
LayerCount: 2
Fore
SplineSet
412 -416 m 2,0,1
 407 -416 407 -416 400.5 -413 c 128,-1,2
 394 -410 394 -410 392 -406 c 0,3,4
 241 -177 241 -177 164 64 c 0,5,6
 124 186 124 186 104.5 304 c 128,-1,7
 85 422 85 422 85 537 c 0,8,9
 85 677 85 677 110.5 813.5 c 128,-1,10
 136 950 136 950 183 1075 c 1,11,12
 225 1183 225 1183 278.5 1285 c 128,-1,13
 332 1387 332 1387 396 1478 c 0,14,15
 398 1482 398 1482 404.5 1485.5 c 128,-1,16
 411 1489 411 1489 416 1489 c 2,17,-1
 601 1489 l 2,18,19
 615 1489 615 1489 622 1479 c 128,-1,20
 629 1469 629 1469 624 1455 c 1,21,22
 558 1308 558 1308 513 1185 c 128,-1,23
 468 1062 468 1062 442 961 c 1,24,25
 394 760 394 760 394 531 c 0,26,27
 394 454 394 454 401 374.5 c 128,-1,28
 408 295 408 295 423 211 c 0,29,30
 438 128 438 128 457.5 50.5 c 128,-1,31
 477 -27 477 -27 503 -101 c 0,32,33
 519 -149 519 -149 548.5 -219 c 128,-1,34
 578 -289 578 -289 621 -382 c 0,35,36
 626 -395 626 -395 619.5 -405.5 c 128,-1,37
 613 -416 613 -416 598 -416 c 2,38,-1
 412 -416 l 2,0,1
EndSplineSet
EndChar
StartChar: parenright
Encoding: 41 41 9
Width: 682
GlyphClass: 2
Flags: W
LayerCount: 2
Fore
SplineSet
72 -416 m 2,0,1
 58 -416 58 -416 51 -406 c 128,-1,2
 44 -396 44 -396 50 -383 c 0,3,4
 91 -294 91 -294 119 -229 c 128,-1,5
 147 -164 147 -164 163 -120 c 0,6,7
 180 -75 180 -75 194.5 -23 c 128,-1,8
 209 29 209 29 223 89 c 0,9,10
 251 206 251 206 264 312.5 c 128,-1,11
 277 419 277 419 277 531 c 0,12,13
 277 760 277 760 229 961 c 0,14,15
 204 1062 204 1062 159 1185 c 128,-1,16
 114 1308 114 1308 48 1455 c 0,17,18
 42 1469 42 1469 49 1479 c 128,-1,19
 56 1489 56 1489 70 1489 c 2,20,-1
 255 1489 l 2,21,22
 260 1489 260 1489 266 1485.5 c 128,-1,23
 272 1482 272 1482 274 1478 c 0,24,25
 348 1373 348 1373 406 1260.5 c 128,-1,26
 464 1148 464 1148 504 1031 c 128,-1,27
 544 914 544 914 565 793.5 c 128,-1,28
 586 673 586 673 586 552 c 0,29,30
 586 449 586 449 570 339.5 c 128,-1,31
 554 230 554 230 521 112 c 0,32,33
 448 -152 448 -152 280 -406 c 0,34,35
 278 -410 278 -410 271 -413 c 128,-1,36
 264 -416 264 -416 260 -416 c 2,37,-1
 72 -416 l 2,0,1
EndSplineSet
EndChar
StartChar: comma
Encoding: 44 44 10
Width: 569
GlyphClass: 2
Flags: W
LayerCount: 2
Fore
SplineSet
116 296 m 2,0,1
 116 306 116 306 122.5 313 c 128,-1,2
 129 320 129 320 140 320 c 2,3,-1
 411 320 l 2,4,5
 422 320 422 320 428.5 313 c 128,-1,6
 435 306 435 306 435 296 c 2,7,-1
 435 101 l 2,8,9
 435 41 435 41 430 -7 c 128,-1,10
 425 -55 425 -55 414 -91 c 0,11,12
 393 -166 393 -166 330 -224 c 1,13,14
 269 -284 269 -284 178 -315 c 0,15,16
 170 -318 170 -318 161 -314 c 128,-1,17
 152 -310 152 -310 148 -302 c 2,18,-1
 95 -190 l 2,19,20
 90 -180 90 -180 94.5 -170 c 128,-1,21
 99 -160 99 -160 110 -157 c 0,22,23
 177 -135 177 -135 207.5 -98 c 128,-1,24
 238 -61 238 -61 245 0 c 1,25,-1
 140 0 l 2,26,27
 129 0 129 0 122.5 7 c 128,-1,28
 116 14 116 14 116 24 c 2,29,-1
 116 296 l 2,0,1
EndSplineSet
EndChar
StartChar: slash
Encoding: 47 47 8
Width: 569
GlyphClass: 2
Flags: W
LayerCount: 2
Fore
SplineSet
-3 -25 m 1,0,-1
 360 1491 l 1,1,-1
 571 1491 l 1,2,-1
 204 -25 l 1,3,-1
 -3 -25 l 1,0,-1
EndSplineSet
EndChar
StartChar: colon
Encoding: 58 58 12
Width: 682
GlyphClass: 2
Flags: W
LayerCount: 2
Fore
SplineSet
200 755 m 2,0,1
 189 755 189 755 182.5 761.5 c 128,-1,2
 176 768 176 768 176 779 c 2,3,-1
 176 1050 l 2,4,5
 176 1061 176 1061 182.5 1068 c 128,-1,6
 189 1075 189 1075 200 1075 c 2,7,-1
 472 1075 l 2,8,9
 482 1075 482 1075 489 1068 c 128,-1,10
 496 1061 496 1061 496 1050 c 2,11,-1
 496 779 l 2,12,13
 496 768 496 768 489 761.5 c 128,-1,14
 482 755 482 755 472 755 c 2,15,-1
 200 755 l 2,0,1
200 0 m 2,16,17
 189 0 189 0 182.5 7 c 128,-1,18
 176 14 176 14 176 24 c 2,19,-1
 176 296 l 2,20,21
 176 306 176 306 182.5 313 c 128,-1,22
 189 320 189 320 200 320 c 2,23,-1
 472 320 l 2,24,25
 482 320 482 320 489 313 c 128,-1,26
 496 306 496 306 496 296 c 2,27,-1
 496 24 l 2,28,29
 496 14 496 14 489 7 c 128,-1,30
 482 0 482 0 472 0 c 2,31,-1
 200 0 l 2,16,17
EndSplineSet
EndChar
StartChar: semicolon
Encoding: 59 59 10
Width: 682
GlyphClass: 2
Flags: W
LayerCount: 2
Fore
SplineSet
192 755 m 2,0,1
 181 755 181 755 174.5 761.5 c 128,-1,2
 168 768 168 768 168 779 c 2,3,-1
 168 1050 l 2,4,5
 168 1061 168 1061 174.5 1068 c 128,-1,6
 181 1075 181 1075 192 1075 c 2,7,-1
 463 1075 l 2,8,9
 474 1075 474 1075 481 1068 c 128,-1,10
 488 1061 488 1061 488 1050 c 2,11,-1
 488 779 l 2,12,13
 488 768 488 768 481 761.5 c 128,-1,14
 474 755 474 755 463 755 c 2,15,-1
 192 755 l 2,0,1
168 296 m 2,16,17
 168 306 168 306 174.5 313 c 128,-1,18
 181 320 181 320 192 320 c 2,19,-1
 463 320 l 2,20,21
 474 320 474 320 481 313 c 128,-1,22
 488 306 488 306 488 296 c 2,23,-1
 488 101 l 2,24,25
 488 -21 488 -21 466 -91 c 1,26,27
 445 -166 445 -166 382 -224 c 1,28,29
 321 -284 321 -284 231 -315 c 0,30,31
 222 -318 222 -318 213 -314 c 128,-1,32
 204 -310 204 -310 201 -302 c 2,33,-1
 147 -190 l 2,34,35
 142 -180 142 -180 146.5 -170 c 128,-1,36
 151 -160 151 -160 162 -157 c 0,37,38
 229 -135 229 -135 260.5 -98 c 128,-1,39
 292 -61 292 -61 297 0 c 1,40,-1
 192 0 l 2,41,42
 181 0 181 0 174.5 7 c 128,-1,43
 168 14 168 14 168 24 c 2,44,-1
 168 296 l 2,16,17
EndSplineSet
EndChar
StartChar: less
Encoding: 60 60 14
Width: 1196
GlyphClass: 2
Flags: W
LayerCount: 2
Fore
SplineSet
1097 186 m 2,0,1
 1097 172 1097 172 1087 165 c 128,-1,2
 1077 158 1077 158 1063 163 c 1,3,-1
 92 586 l 2,4,5
 86 588 86 588 82 595 c 128,-1,6
 78 602 78 602 78 608 c 2,7,-1
 78 842 l 2,8,9
 78 847 78 847 82 854.5 c 128,-1,10
 86 862 86 862 92 864 c 2,11,-1
 1063 1284 l 2,12,13
 1077 1290 1077 1290 1087 1283 c 128,-1,14
 1097 1276 1097 1276 1097 1262 c 2,15,-1
 1097 987 l 2,16,17
 1097 980 1097 980 1092 973 c 128,-1,18
 1087 966 1087 966 1082 964 c 2,19,-1
 462 727 l 1,20,-1
 1082 481 l 2,21,22
 1087 479 1087 479 1092 472.5 c 128,-1,23
 1097 466 1097 466 1097 459 c 2,24,-1
 1097 186 l 2,0,1
EndSplineSet
EndChar
StartChar: equal
Encoding: 61 61 15
Width: 1196
GlyphClass: 2
Flags: W
LayerCount: 2
Fore
SplineSet
92 789 m 2,0,1
 82 789 82 789 75 795.5 c 128,-1,2
 68 802 68 802 68 813 c 2,3,-1
 68 1062 l 2,4,5
 68 1072 68 1072 75 1079 c 128,-1,6
 82 1086 82 1086 92 1086 c 2,7,-1
 1083 1086 l 2,8,9
 1093 1086 1093 1086 1100 1079 c 128,-1,10
 1107 1072 1107 1072 1107 1062 c 2,11,-1
 1107 813 l 2,12,13
 1107 802 1107 802 1100 795.5 c 128,-1,14
 1093 789 1093 789 1083 789 c 2,15,-1
 92 789 l 2,0,1
92 359 m 2,16,17
 82 359 82 359 75 366 c 128,-1,18
 68 373 68 373 68 384 c 2,19,-1
 68 634 l 2,20,21
 68 644 68 644 75 651 c 128,-1,22
 82 658 82 658 92 658 c 2,23,-1
 1083 658 l 2,24,25
 1093 658 1093 658 1100 651 c 128,-1,26
 1107 644 1107 644 1107 634 c 2,27,-1
 1107 384 l 2,28,29
 1107 373 1107 373 1100 366 c 128,-1,30
 1093 359 1093 359 1083 359 c 2,31,-1
 92 359 l 2,16,17
EndSplineSet
EndChar
StartChar: greater
Encoding: 62 62 16
Width: 1196
GlyphClass: 2
Flags: W
LayerCount: 2
Fore
SplineSet
112 162 m 1,0,1
 98 157 98 157 88 164 c 128,-1,2
 78 171 78 171 78 185 c 2,3,-1
 78 458 l 2,4,5
 78 465 78 465 82.5 471.5 c 128,-1,6
 87 478 87 478 93 480 c 2,7,-1
 715 724 l 1,8,9
 558 784 558 784 404 845 c 128,-1,10
 250 906 250 906 93 966 c 0,11,12
 87 968 87 968 82.5 975 c 128,-1,13
 78 982 78 982 78 989 c 2,14,-1
 78 1260 l 2,15,16
 78 1274 78 1274 88 1281 c 128,-1,17
 98 1288 98 1288 112 1282 c 2,18,-1
 1084 862 l 2,19,20
 1089 860 1089 860 1093.5 852.5 c 128,-1,21
 1098 845 1098 845 1098 840 c 2,22,-1
 1098 608 l 2,23,24
 1098 602 1098 602 1093.5 595 c 128,-1,25
 1089 588 1089 588 1084 586 c 2,26,-1
 112 162 l 1,0,1
EndSplineSet
EndChar
StartChar: question
Encoding: 63 63 17
Width: 1251
GlyphClass: 2
Flags: W
LayerCount: 2
Fore
SplineSet
490 365 m 2,0,1
 480 365 480 365 473 372 c 128,-1,2
 466 379 466 379 466 388 c 0,3,4
 465 415 465 415 465 431.5 c 128,-1,5
 465 448 465 448 465 454 c 0,6,7
 465 579 465 579 507 662 c 0,8,9
 527 701 527 701 570.5 748.5 c 128,-1,10
 614 796 614 796 672 844 c 0,11,12
 726 889 726 889 762.5 920.5 c 128,-1,13
 799 952 799 952 810 966 c 0,14,15
 841 1008 841 1008 841 1056 c 0,16,17
 841 1091 841 1091 827 1119.5 c 128,-1,18
 813 1148 813 1148 785 1173 c 0,19,20
 729 1224 729 1224 631 1224 c 0,21,22
 536 1224 536 1224 472.5 1170.5 c 128,-1,23
 409 1117 409 1117 386 1005 c 0,24,25
 384 996 384 996 376 990.5 c 128,-1,26
 368 985 368 985 359 986 c 2,27,-1
 110 1017 l 2,28,29
 101 1018 101 1018 94.5 1025 c 128,-1,30
 88 1032 88 1032 89 1042 c 0,31,32
 100 1227 100 1227 244 1353 c 256,33,34
 388 1479 388 1479 619 1479 c 0,35,36
 740 1479 740 1479 837.5 1446.5 c 128,-1,37
 935 1414 935 1414 1008 1351 c 1,38,39
 1077 1287 1077 1287 1115.5 1210 c 128,-1,40
 1154 1133 1154 1133 1154 1048 c 0,41,42
 1154 955 1154 955 1099 866 c 0,43,44
 1073 825 1073 825 1017.5 768 c 128,-1,45
 962 711 962 711 877 642 c 1,46,47
 839 609 839 609 812.5 581 c 128,-1,48
 786 553 786 553 776 534 c 1,49,-1
 777 534 l 1,50,51
 768 514 768 514 764 478 c 128,-1,52
 760 442 760 442 760 389 c 0,53,54
 760 379 760 379 753.5 372 c 128,-1,55
 747 365 747 365 736 365 c 2,56,-1
 490 365 l 2,0,1
490 0 m 2,57,58
 479 0 479 0 472.5 7 c 128,-1,59
 466 14 466 14 466 24 c 2,60,-1
 466 296 l 2,61,62
 466 306 466 306 472.5 313 c 128,-1,63
 479 320 479 320 490 320 c 2,64,-1
 761 320 l 2,65,66
 772 320 772 320 779 313 c 128,-1,67
 786 306 786 306 786 296 c 2,68,-1
 786 24 l 2,69,70
 786 14 786 14 779 7 c 128,-1,71
 772 0 772 0 761 0 c 2,72,-1
 490 0 l 2,57,58
EndSplineSet
EndChar
StartChar: braceleft
Encoding: 123 123 18
Width: 797
GlyphClass: 2
Flags: W
LayerCount: 2
Fore
SplineSet
41 652 m 2,0,1
 41 674 41 674 63 676 c 0,2,3
 129 681 129 681 160 696 c 0,4,5
 189 709 189 709 213 745 c 1,6,-1
 213 744 l 1,7,8
 223 761 223 761 231 786.5 c 128,-1,9
 239 812 239 812 244 839 c 0,10,11
 248 862 248 862 250 902 c 128,-1,12
 252 942 252 942 252 996 c 0,13,14
 252 1187 252 1187 271 1263 c 1,15,16
 289 1345 289 1345 339 1393 c 1,17,18
 389 1443 389 1443 482 1471 c 1,19,20
 546 1489 546 1489 674 1489 c 2,21,-1
 726 1489 l 2,22,23
 736 1489 736 1489 743 1482 c 128,-1,24
 750 1475 750 1475 750 1465 c 2,25,-1
 750 1234 l 2,26,27
 750 1223 750 1223 743 1216.5 c 128,-1,28
 736 1210 736 1210 726 1210 c 0,29,30
 621 1210 621 1210 596 1199 c 0,31,32
 575 1190 575 1190 564 1172 c 0,33,34
 553 1153 553 1153 553 1101 c 0,35,36
 553 1038 553 1038 544 869 c 0,37,38
 539 768 539 768 517 705.5 c 128,-1,39
 495 643 495 643 461 601 c 1,40,-1
 462 602 l 1,41,42
 449 585 449 585 432.5 569 c 128,-1,43
 416 553 416 553 391 536 c 1,44,45
 437 504 437 504 469.5 460.5 c 128,-1,46
 502 417 502 417 519 359 c 0,47,48
 528 327 528 327 535 284 c 128,-1,49
 542 241 542 241 545 186 c 0,50,51
 549 105 549 105 550.5 54 c 128,-1,52
 552 3 552 3 552 -20 c 0,53,54
 552 -76 552 -76 563 -96 c 1,55,56
 577 -115 577 -115 599 -125 c 1,57,-1
 598 -125 l 1,58,59
 628 -136 628 -136 726 -136 c 0,60,61
 736 -136 736 -136 743 -143 c 128,-1,62
 750 -150 750 -150 750 -160 c 2,63,-1
 750 -392 l 2,64,65
 750 -403 750 -403 743 -409.5 c 128,-1,66
 736 -416 736 -416 726 -416 c 2,67,-1
 674 -416 l 2,68,69
 611 -416 611 -416 557.5 -410.5 c 128,-1,70
 504 -405 504 -405 468 -394 c 1,71,72
 392 -373 392 -373 339 -320 c 256,73,74
 286 -267 286 -267 270 -187 c 1,75,76
 252 -112 252 -112 252 41 c 0,77,78
 252 214 252 214 238 265 c 0,79,80
 218 335 218 335 181 362 c 1,81,82
 146 391 146 391 64 396 c 0,83,84
 54 397 54 397 47.5 404 c 128,-1,85
 41 411 41 411 41 420 c 2,86,-1
 41 652 l 2,0,1
EndSplineSet
EndChar
StartChar: bar
Encoding: 124 124 19
Width: 573
GlyphClass: 2
Flags: W
LayerCount: 2
Fore
SplineSet
175 -416 m 2,0,1
 164 -416 164 -416 157.5 -409.5 c 128,-1,2
 151 -403 151 -403 151 -392 c 2,3,-1
 151 1465 l 2,4,5
 151 1475 151 1475 157.5 1482 c 128,-1,6
 164 1489 164 1489 175 1489 c 2,7,-1
 390 1489 l 2,8,9
 401 1489 401 1489 408 1482 c 128,-1,10
 415 1475 415 1475 415 1465 c 2,11,-1
 415 -392 l 2,12,13
 415 -403 415 -403 408 -409.5 c 128,-1,14
 401 -416 401 -416 390 -416 c 2,15,-1
 175 -416 l 2,0,1
EndSplineSet
EndChar
StartChar: braceright
Encoding: 125 125 20
Width: 797
GlyphClass: 2
Flags: W
LayerCount: 2
Fore
SplineSet
735 420 m 2,0,1
 735 411 735 411 728.5 404 c 128,-1,2
 722 397 722 397 713 396 c 0,3,4
 649 392 649 392 615 377 c 0,5,6
 599 369 599 369 586.5 357 c 128,-1,7
 574 345 574 345 563 328 c 1,8,9
 554 310 554 310 545 285 c 128,-1,10
 536 260 536 260 531 234 c 0,11,12
 527 211 527 211 525 171 c 128,-1,13
 523 131 523 131 523 77 c 0,14,15
 523 -17 523 -17 519 -84 c 128,-1,16
 515 -151 515 -151 505 -190 c 1,17,-1
 505 -189 l 1,18,19
 497 -231 497 -231 479.5 -263.5 c 128,-1,20
 462 -296 462 -296 437 -321 c 0,21,22
 389 -371 389 -371 294 -398 c 0,23,24
 262 -408 262 -408 214.5 -412 c 128,-1,25
 167 -416 167 -416 101 -416 c 2,26,-1
 50 -416 l 2,27,28
 39 -416 39 -416 32.5 -409.5 c 128,-1,29
 26 -403 26 -403 26 -392 c 2,30,-1
 26 -160 l 2,31,32
 26 -150 26 -150 32.5 -143 c 128,-1,33
 39 -136 39 -136 50 -136 c 0,34,35
 147 -136 147 -136 177 -125 c 1,36,37
 201 -114 201 -114 210 -97 c 1,38,39
 223 -77 223 -77 223 -26 c 0,40,41
 224 33 224 33 232 200 c 0,42,43
 236 272 236 272 247.5 324 c 128,-1,44
 259 376 259 376 277.5 414.5 c 128,-1,45
 296 453 296 453 323 482 c 128,-1,46
 350 511 350 511 385 536 c 1,47,48
 359 555 359 555 339 574 c 128,-1,49
 319 593 319 593 305 613 c 0,50,51
 256 681 256 681 238 786 c 0,52,53
 233 820 233 820 229 894.5 c 128,-1,54
 225 969 225 969 223 1087 c 0,55,56
 222 1120 222 1120 219.5 1141 c 128,-1,57
 217 1162 217 1162 211 1172 c 1,58,59
 204 1189 204 1189 180 1198 c 1,60,61
 154 1210 154 1210 50 1210 c 0,62,63
 39 1210 39 1210 32.5 1216.5 c 128,-1,64
 26 1223 26 1223 26 1234 c 2,65,-1
 26 1465 l 2,66,67
 26 1475 26 1475 32.5 1482 c 128,-1,68
 39 1489 39 1489 50 1489 c 2,69,-1
 101 1489 l 2,70,71
 236 1489 236 1489 308 1468 c 1,72,73
 385 1443 385 1443 436 1391 c 1,74,-1
 436 1392 l 1,75,76
 488 1339 488 1339 505 1260 c 1,77,-1
 505 1261 l 1,78,79
 515 1223 515 1223 519 1166 c 128,-1,80
 523 1109 523 1109 523 1032 c 0,81,82
 523 862 523 862 537 808 c 1,83,84
 558 738 558 738 593 709 c 1,85,86
 630 681 630 681 712 676 c 0,87,88
 721 675 721 675 728 668.5 c 128,-1,89
 735 662 735 662 735 652 c 2,90,-1
 735 420 l 2,0,1
EndSplineSet
EndChar
StartChar: uni060C
Encoding: 1548 1548 11
Width: 376
GlyphClass: 2
Flags: W
LayerCount: 2
Fore
SplineSet
203 2 m 1,0,1
 105 -17 105 -17 38 115 c 0,2,3
 31 131 31 131 27 153 c 128,-1,4
 23 175 23 175 23 205 c 0,5,6
 23 292 23 292 57.5 439 c 128,-1,7
 92 586 92 586 164 797 c 1,8,-1
 163 790 l 2,9,10
 163 791 163 791 163.5 791.5 c 128,-1,11
 164 792 164 792 164 793 c 0,12,13
 164 796 164 796 166.5 802.5 c 128,-1,14
 169 809 169 809 171 811 c 2,15,-1
 232 872 l 2,16,17
 238 878 238 878 246 879 c 128,-1,18
 254 880 254 880 260.5 876.5 c 128,-1,19
 267 873 267 873 270.5 866 c 128,-1,20
 274 859 274 859 273 850 c 0,21,22
 271 836 271 836 257 780 c 128,-1,23
 243 724 243 724 217 628 c 0,24,25
 203 574 203 574 195 522.5 c 128,-1,26
 187 471 187 471 187 428 c 0,27,28
 187 372 187 372 199 330 c 0,29,30
 205 310 205 310 214 298 c 128,-1,31
 223 286 223 286 234 286 c 0,32,33
 266 286 266 286 324 341 c 1,34,35
 364 357 364 357 379 340 c 1,36,37
 391 328 391 328 390 306 c 0,38,39
 381 166 381 166 334 87 c 128,-1,40
 287 8 287 8 200 2 c 1,41,-1
 203 2 l 1,0,1
EndSplineSet
EndChar
StartChar: uni061B
Encoding: 1563 1563 12
Width: 570
GlyphClass: 2
Flags: W
LayerCount: 2
Fore
SplineSet
279 390 m 1
 277 389 l 1
 290 405 290 405 309 405 c 0
 323 405 323 405 331 399 c 1
 482 253 l 2
 496 239 496 239 496 223 c 256
 496 207 496 207 484 194 c 1
 484 195 l 1
 308 13 l 2
 295 0 295 0 278 0 c 0
 271 0 271 0 265 2.5 c 0
 259 5 259 5 251 10 c 1
 106 151 l 1
 107 149 l 1
 91 162 91 162 91 181 c 0
 91 197 91 197 104 210 c 1
 104 209 l 1
 279 390 l 1
EndSplineSet
Refer: 11 1548 N 1 0 0 1 0 453 3
EndChar
StartChar: afii57407
Encoding: 1567 1567 13
Width: 707
GlyphClass: 2
Flags: W
LayerCount: 2
Fore
SplineSet
664 1513 m 1,0,1
 647 1448 647 1448 625.5 1385 c 128,-1,2
 604 1322 604 1322 578 1261 c 1,3,4
 567 1241 567 1241 540 1228 c 0,5,6
 536 1226 536 1226 530.5 1224.5 c 128,-1,7
 525 1223 525 1223 521 1223 c 0,8,9
 491 1223 491 1223 486 1260 c 1,10,11
 477 1378 477 1378 347 1384 c 1,12,-1
 336 1384 l 2,13,14
 301 1384 301 1384 268.5 1374.5 c 128,-1,15
 236 1365 236 1365 210 1349 c 1,16,17
 224 1291 224 1291 260 1251 c 1,18,19
 305 1203 305 1203 351 1157 c 1,20,21
 386 1119 386 1119 418.5 1080 c 128,-1,22
 451 1041 451 1041 480 999 c 0,23,24
 540 909 540 909 553 779 c 1,25,26
 551 716 551 716 539 662.5 c 128,-1,27
 527 609 527 609 507 564 c 1,28,29
 487 522 487 522 466 479 c 128,-1,30
 445 436 445 436 425 396 c 1,31,32
 416 386 416 386 400 381 c 1,33,34
 397 379 397 379 394.5 379 c 128,-1,35
 392 379 392 379 389 379 c 0,36,37
 360 379 360 379 360 408 c 0,38,39
 360 411 360 411 360.5 414.5 c 128,-1,40
 361 418 361 418 364 424 c 2,41,-1
 362 420 l 1,42,43
 382 489 382 489 382 547 c 0,44,45
 382 581 382 581 375 614.5 c 128,-1,46
 368 648 368 648 356 677 c 1,47,48
 330 733 330 733 297.5 781.5 c 128,-1,49
 265 830 265 830 230 864 c 0,50,51
 180 911 180 911 134 968.5 c 128,-1,52
 88 1026 88 1026 59 1099 c 1,53,54
 55 1117 55 1117 54 1136 c 128,-1,55
 53 1155 53 1155 53 1175 c 0,56,57
 53 1313 53 1313 135 1476 c 1,58,59
 234 1680 234 1680 440 1680 c 0,60,61
 448 1680 448 1680 454.5 1680 c 128,-1,62
 461 1680 461 1680 468 1679 c 1,63,-1
 467 1679 l 1,64,65
 500 1677 500 1677 526.5 1666.5 c 128,-1,66
 553 1656 553 1656 575 1639.5 c 128,-1,67
 597 1623 597 1623 614.5 1602 c 128,-1,68
 632 1581 632 1581 646 1559 c 1,69,-1
 653 1544 l 2,70,71
 653 1542 653 1542 655 1540 c 1,72,-1
 664 1513 l 1,0,1
374 390 m 1,73,-1
 372 389 l 1,74,75
 385 405 385 405 404 405 c 0,76,77
 420 405 420 405 426 399 c 2,78,-1
 577 253 l 2,79,80
 592 239 592 239 592 223 c 256,81,82
 592 207 592 207 579 194 c 1,83,-1
 579 195 l 1,84,-1
 403 13 l 2,85,86
 391 0 391 0 373 0 c 0,87,88
 367 0 367 0 360.5 2.5 c 128,-1,89
 354 5 354 5 346 10 c 1,90,-1
 201 151 l 1,91,-1
 202 149 l 1,92,93
 187 162 187 162 187 181 c 0,94,95
 187 196 187 196 199 210 c 1,96,-1
 199 209 l 1,97,-1
 374 390 l 1,73,-1
EndSplineSet
EndChar
StartChar: afii57410
Encoding: 1570 1570 34
AltUni2: 00fe81.ffffffff.0
Width: 226
GlyphClass: 2
Flags: W
LayerCount: 2
Fore
SplineSet
-38 872 m 1,0,-1
 113 1108 l 1,1,-1
 112 1107 l 1,2,3
 121 1123 121 1123 135.5 1128.5 c 128,-1,4
 150 1134 150 1134 163.5 1131 c 128,-1,5
 177 1128 177 1128 187.5 1117 c 128,-1,6
 198 1106 198 1106 200 1088 c 2,7,-1
 256 260 l 1,8,-1
 106 23 l 2,9,10
 97 8 97 8 82.5 2.5 c 128,-1,11
 68 -3 68 -3 54 0 c 128,-1,12
 40 3 40 3 29.5 14 c 128,-1,13
 19 25 19 25 18 43 c 2,14,-1
 -38 872 l 1,0,-1
418 1213 m 1,15,16
 375 1185 375 1185 322.5 1165.5 c 128,-1,17
 270 1146 270 1146 207 1132 c 0,18,19
 189 1128 189 1128 169.5 1126 c 128,-1,20
 150 1124 150 1124 127 1124 c 0,21,22
 83 1124 83 1124 42.5 1133 c 128,-1,23
 2 1142 2 1142 -36 1162 c 1,24,-1
 -60 1149 l 1,25,-1
 -61 1149 l 1,26,27
 -71 1143 -71 1143 -89 1126.5 c 128,-1,28
 -107 1110 -107 1110 -124 1093 c 0,29,30
 -140 1076 -140 1076 -157 1067 c 128,-1,31
 -174 1058 -174 1058 -196 1066 c 0,32,33
 -207 1070 -207 1070 -217.5 1083 c 128,-1,34
 -228 1096 -228 1096 -228 1110 c 0,35,36
 -228 1121 -228 1121 -218 1143.5 c 128,-1,37
 -208 1166 -208 1166 -191 1196 c 0,38,39
 -163 1243 -163 1243 -118.5 1285 c 128,-1,40
 -74 1327 -74 1327 -17 1356 c 0,41,42
 -12 1358 -12 1358 -6 1360 c 128,-1,43
 0 1362 0 1362 8 1362 c 0,44,45
 17 1362 17 1362 29.5 1359 c 128,-1,46
 42 1356 42 1356 56 1349 c 0,47,48
 88 1333 88 1333 122.5 1324.5 c 128,-1,49
 157 1316 157 1316 194 1316 c 0,50,51
 205 1316 205 1316 224.5 1318.5 c 128,-1,52
 244 1321 244 1321 260 1324 c 0,53,54
 372 1345 372 1345 429 1395 c 1,55,-1
 427 1392 l 1,56,57
 435 1402 435 1402 446 1406.5 c 128,-1,58
 457 1411 457 1411 466 1411 c 0,59,60
 492 1411 492 1411 504.5 1391.5 c 128,-1,61
 517 1372 517 1372 517 1338 c 1,62,-1
 418 1213 l 1,15,16
EndSplineSet
MultipleSubs2: "'fina' Terminal Forms in Arabic lookup 2 subtable" _.notdef_3 uni0653
MultipleSubs2: "'isol' Isolated Forms in Arabic lookup 0 subtable" _.notdef_2 uni0653
EndChar
StartChar: afii57411
Encoding: 1571 1571 35
AltUni2: 00fe83.ffffffff.0
Width: 226
GlyphClass: 2
Flags: W
LayerCount: 2
Fore
SplineSet
-17 871 m 1,0,-1
 134 1109 l 2,1,2
 139 1117 139 1117 146.5 1119.5 c 128,-1,3
 154 1122 154 1122 161 1120.5 c 128,-1,4
 168 1119 168 1119 173 1113.5 c 128,-1,5
 178 1108 178 1108 179 1099 c 2,6,-1
 236 250 l 1,7,-1
 85 12 l 2,8,9
 80 4 80 4 72.5 1.5 c 128,-1,10
 65 -1 65 -1 58 0.5 c 128,-1,11
 51 2 51 2 46 7.5 c 128,-1,12
 41 13 41 13 40 22 c 2,13,-1
 -17 871 l 1,0,-1
128 1159 m 2,14,15
 128 1159 128 1159 125 1160 c 1,16,17
 126 1160 126 1160 126.5 1159.5 c 128,-1,18
 127 1159 127 1159 128 1159 c 2,14,15
212 1381 m 2,19,20
 205 1367 205 1367 192 1355.5 c 128,-1,21
 179 1344 179 1344 164 1336 c 0,22,23
 159 1334 159 1334 155.5 1333 c 128,-1,24
 152 1332 152 1332 148 1328 c 1,25,26
 153 1325 153 1325 158 1323 c 128,-1,27
 163 1321 163 1321 169 1319 c 0,28,29
 177 1316 177 1316 187 1311.5 c 128,-1,30
 197 1307 197 1307 207 1302 c 1,31,32
 239 1279 239 1279 239 1244 c 0,33,34
 239 1235 239 1235 237.5 1225.5 c 128,-1,35
 236 1216 236 1216 231 1206 c 0,36,37
 208 1153 208 1153 159 1120 c 1,38,-1
 160 1121 l 1,39,40
 125 1094 125 1094 87 1085.5 c 128,-1,41
 49 1077 49 1077 10 1072 c 2,42,-1
 -17 1068 l 2,43,44
 -27 1067 -27 1067 -33 1072.5 c 128,-1,45
 -39 1078 -39 1078 -41 1086 c 128,-1,46
 -43 1094 -43 1094 -40 1102 c 128,-1,47
 -37 1110 -37 1110 -28 1114 c 2,48,-1
 9 1131 l 1,49,50
 31 1140 31 1140 54 1150 c 128,-1,51
 77 1160 77 1160 99 1171 c 1,52,53
 91 1176 91 1176 81 1181 c 128,-1,54
 71 1186 71 1186 65 1190 c 1,55,-1
 66 1190 l 1,56,57
 23 1212 23 1212 23 1254 c 0,58,59
 23 1293 23 1293 65 1346 c 1,60,-1
 64 1345 l 1,61,62
 97 1390 97 1390 123.5 1419 c 128,-1,63
 150 1448 150 1448 167 1461 c 0,64,65
 175 1467 175 1467 186.5 1473 c 128,-1,66
 198 1479 198 1479 214 1487 c 0,67,68
 222 1491 222 1491 229.5 1489.5 c 128,-1,69
 237 1488 237 1488 242 1483 c 128,-1,70
 247 1478 247 1478 248.5 1470.5 c 128,-1,71
 250 1463 250 1463 246 1455 c 2,72,-1
 212 1381 l 2,19,20
EndSplineSet
MultipleSubs2: "'fina' Terminal Forms in Arabic lookup 2 subtable" _.notdef_3 uni0654
MultipleSubs2: "'isol' Isolated Forms in Arabic lookup 0 subtable" _.notdef_2 uni0654
EndChar
StartChar: afii57413
Encoding: 1573 1573 37
AltUni2: 00fe87.ffffffff.0
Width: 226
GlyphClass: 2
Flags: W
LayerCount: 2
Fore
SplineSet
-16 871 m 1,0,-1
 134 1109 l 2,1,2
 139 1117 139 1117 146.5 1119.5 c 128,-1,3
 154 1122 154 1122 161 1120.5 c 128,-1,4
 168 1119 168 1119 173 1113.5 c 128,-1,5
 178 1108 178 1108 179 1099 c 2,6,-1
 236 250 l 1,7,-1
 85 12 l 2,8,9
 80 4 80 4 73 1.5 c 128,-1,10
 66 -1 66 -1 59 0.5 c 128,-1,11
 52 2 52 2 47 7.5 c 128,-1,12
 42 13 42 13 41 22 c 2,13,-1
 -16 871 l 1,0,-1
145 -216 m 1,14,15
 145 -216 145 -216 142 -215 c 2,16,-1
 145 -216 l 1,14,15
229 6 m 1,17,18
 221 -8 221 -8 208.5 -19.5 c 128,-1,19
 196 -31 196 -31 181 -39 c 0,20,21
 176 -41 176 -41 172 -42.5 c 128,-1,22
 168 -44 168 -44 164 -47 c 1,23,24
 169 -50 169 -50 174.5 -52 c 128,-1,25
 180 -54 180 -54 186 -56 c 0,26,27
 194 -59 194 -59 204 -63.5 c 128,-1,28
 214 -68 214 -68 223 -73 c 1,29,30
 256 -96 256 -96 256 -131 c 0,31,32
 256 -140 256 -140 254 -149.5 c 128,-1,33
 252 -159 252 -159 247 -169 c 0,34,35
 225 -222 225 -222 176 -255 c 1,36,-1
 177 -254 l 1,37,38
 142 -281 142 -281 103.5 -289.5 c 128,-1,39
 65 -298 65 -298 27 -303 c 2,40,-1
 0 -307 l 2,41,42
 -10 -308 -10 -308 -16.5 -302.5 c 128,-1,43
 -23 -297 -23 -297 -25 -289 c 128,-1,44
 -27 -281 -27 -281 -23.5 -273 c 128,-1,45
 -20 -265 -20 -265 -11 -261 c 2,46,-1
 26 -244 l 1,47,-1
 25 -244 l 1,48,49
 48 -234 48 -234 71 -224 c 128,-1,50
 94 -214 94 -214 116 -203 c 1,51,52
 107 -198 107 -198 97.5 -193.5 c 128,-1,53
 88 -189 88 -189 81 -185 c 1,54,-1
 82 -186 l 1,55,56
 40 -163 40 -163 40 -121 c 0,57,58
 40 -80 40 -80 81 -29 c 1,59,-1
 80 -30 l 1,60,61
 148 60 148 60 184 86 c 0,62,63
 191 92 191 92 203 98 c 128,-1,64
 215 104 215 104 231 112 c 0,65,66
 247 119 247 119 258.5 107.5 c 128,-1,67
 270 96 270 96 263 80 c 2,68,-1
 229 6 l 1,17,18
EndSplineSet
MultipleSubs2: "'fina' Terminal Forms in Arabic lookup 2 subtable" _.notdef_3 uni0655
MultipleSubs2: "'isol' Isolated Forms in Arabic lookup 0 subtable" _.notdef_2 uni0655
EndChar
StartChar: afii57422
Encoding: 1582 1582 46
AltUni2: 00fea5.ffffffff.0
Width: 940
GlyphClass: 2
Flags: W
LayerCount: 2
Fore
SplineSet
753 804 m 1,0,-1
 747 817 l 1,1,-1
 760 829 l 1,2,-1
 753 804 l 1,0,-1
642 737 m 1,3,4
 673 757 673 757 699 777 c 128,-1,5
 725 797 725 797 747 817 c 1,6,7
 722 862 722 862 643 862 c 0,8,9
 634 862 634 862 624.5 861.5 c 128,-1,10
 615 861 615 861 604 860 c 0,11,12
 546 853 546 853 505 844 c 128,-1,13
 464 835 464 835 441 823 c 1,14,15
 451 800 451 800 462 780 c 128,-1,16
 473 760 473 760 488 740 c 1,17,-1
 488 741 l 1,18,19
 501 723 501 723 513 703 c 128,-1,20
 525 683 525 683 536 663 c 1,21,-1
 642 737 l 1,3,4
1312 -358 m 1,22,23
 1188 -507 1188 -507 983 -602 c 1,24,-1
 984 -602 l 1,25,26
 883 -650 883 -650 782.5 -677 c 128,-1,27
 682 -704 682 -704 578 -710 c 0,28,29
 563 -711 563 -711 548 -711.5 c 128,-1,30
 533 -712 533 -712 519 -712 c 0,31,32
 435 -712 435 -712 357.5 -694.5 c 128,-1,33
 280 -677 280 -677 209 -643 c 1,34,35
 126 -601 126 -601 72.5 -529 c 128,-1,36
 19 -457 19 -457 -3 -356 c 0,37,38
 -8 -329 -8 -329 -11 -301 c 128,-1,39
 -14 -273 -14 -273 -14 -243 c 0,40,41
 -14 -71 -14 -71 87 131 c 1,42,43
 211 382 211 382 338 506 c 1,44,45
 263 601 263 601 263 723 c 0,46,47
 263 745 263 745 265.5 767.5 c 128,-1,48
 268 790 268 790 274 816 c 1,49,-1
 273 815 l 1,50,51
 310 1005 310 1005 417 1082 c 1,52,53
 487 1131 487 1131 626 1154 c 0,54,55
 649 1158 649 1158 671.5 1159.5 c 128,-1,56
 694 1161 694 1161 717 1161 c 0,57,58
 800 1161 800 1161 868 1133 c 1,59,60
 946 1099 946 1099 946 1012 c 0,61,62
 946 967 946 967 925 910 c 1,63,64
 899 833 899 833 875 779 c 128,-1,65
 851 725 851 725 829 695 c 0,66,67
 781 629 781 629 724 575 c 128,-1,68
 667 521 667 521 612 473 c 1,69,-1
 599 460 l 1,70,71
 585 449 585 449 566 432 c 128,-1,72
 547 415 547 415 523 393 c 2,73,-1
 461 336 l 1,74,-1
 461 337 l 1,75,76
 413 294 413 294 368 247 c 128,-1,77
 323 200 323 200 280 149 c 0,78,79
 238 99 238 99 205.5 49.5 c 128,-1,80
 173 0 173 0 150 -50 c 0,81,82
 131 -89 131 -89 131 -124 c 0,83,84
 131 -142 131 -142 138 -158.5 c 128,-1,85
 145 -175 145 -175 157 -190 c 1,86,87
 255 -300 255 -300 387 -345 c 0,88,89
 523 -392 523 -392 675 -397 c 0,90,91
 688 -398 688 -398 700.5 -398 c 128,-1,92
 713 -398 713 -398 726 -398 c 0,93,94
 849 -398 849 -398 978 -377 c 0,95,96
 1059 -363 1059 -363 1129 -349 c 128,-1,97
 1199 -335 1199 -335 1261 -319 c 1,98,99
 1280 -313 1280 -313 1291 -313 c 0,100,101
 1307 -313 1307 -313 1313 -321.5 c 128,-1,102
 1319 -330 1319 -330 1319 -339 c 0,103,104
 1319 -344 1319 -344 1318 -349 c 128,-1,105
 1317 -354 1317 -354 1311 -359 c 2,106,-1
 1312 -358 l 1,22,23
826 1485 m 2,107,108
 832 1479 832 1479 833 1470 c 128,-1,109
 834 1461 834 1461 829 1453 c 1,110,111
 788 1401 788 1401 747 1350.5 c 128,-1,112
 706 1300 706 1300 665 1249 c 0,113,114
 659 1241 659 1241 649 1240.5 c 128,-1,115
 639 1240 639 1240 631 1248 c 2,116,-1
 491 1378 l 1,117,118
 485 1385 485 1385 484 1393.5 c 128,-1,119
 483 1402 483 1402 489 1410 c 0,120,121
 511 1439 511 1439 534 1467.5 c 128,-1,122
 557 1496 557 1496 580 1525 c 0,123,124
 598 1547 598 1547 616 1568.5 c 128,-1,125
 634 1590 634 1590 651 1613 c 0,126,127
 658 1621 658 1621 668.5 1622 c 128,-1,128
 679 1623 679 1623 687 1616 c 2,129,-1
 826 1485 l 2,107,108
EndSplineSet
MultipleSubs2: "'medi' Medial Forms in Arabic lookup 3 subtable" _.notdef_11 noqta_A
MultipleSubs2: "'fina' Terminal Forms in Arabic lookup 2 subtable" _.notdef_9 noqta_A
MultipleSubs2: "'init' Initial Forms in Arabic lookup 1 subtable" _.notdef_10 noqta_A
MultipleSubs2: "'isol' Isolated Forms in Arabic lookup 0 subtable" _.notdef_8 noqta_A
EndChar
StartChar: afii57423
Encoding: 1583 1583 47
Width: 752
GlyphClass: 2
Flags: W
LayerCount: 2
Fore
SplineSet
581 885 m 2,0,1
 589 897 589 897 600.5 902 c 128,-1,2
 612 907 612 907 624 906 c 128,-1,3
 636 905 636 905 647 897.5 c 128,-1,4
 658 890 658 890 664 877 c 2,5,-1
 686 824 l 1,6,-1
 686 825 l 1,7,8
 699 796 699 796 707 759 c 128,-1,9
 715 722 715 722 720 677 c 0,10,11
 721 666 721 666 721.5 652.5 c 128,-1,12
 722 639 722 639 722 626 c 0,13,14
 722 594 722 594 718 557 c 128,-1,15
 714 520 714 520 705 478 c 0,16,17
 680 363 680 363 587 249 c 1,18,19
 552 211 552 211 512 179 c 128,-1,20
 472 147 472 147 430 124 c 0,21,22
 396 106 396 106 344.5 87 c 128,-1,23
 293 68 293 68 227 53 c 0,24,25
 173 40 173 40 128.5 28.5 c 128,-1,26
 84 17 84 17 46 8 c 2,27,-1
 23 2 l 1,28,-1
 24 2 l 1,29,30
 7 -3 7 -3 -6 2 c 128,-1,31
 -19 7 -19 7 -27 17 c 128,-1,32
 -35 27 -35 27 -36.5 41.5 c 128,-1,33
 -38 56 -38 56 -30 71 c 2,34,-1
 112 327 l 2,35,36
 115 331 115 331 126 339.5 c 128,-1,37
 137 348 137 348 145 350 c 0,38,39
 189 358 189 358 236 368.5 c 128,-1,40
 283 379 283 379 336 393 c 1,41,42
 382 407 382 407 417.5 417 c 128,-1,43
 453 427 453 427 483 441 c 1,44,-1
 472 488 l 1,45,-1
 468 504 l 1,46,-1
 469 502 l 1,47,-1
 456 542 l 2,48,49
 448 565 448 565 442 586 c 128,-1,50
 436 607 436 607 428 627 c 1,51,-1
 429 626 l 1,52,53
 426 634 426 634 427.5 647 c 128,-1,54
 429 660 429 660 434 668 c 2,55,-1
 581 885 l 2,0,1
EndSplineSet
MultipleSubs2: "'fina' Terminal Forms in Arabic lookup 2 subtable" _.notdef_13
MultipleSubs2: "'isol' Isolated Forms in Arabic lookup 0 subtable" _.notdef_12
EndChar
StartChar: afii57424
Encoding: 1584 1584 48
AltUni2: 00feab.ffffffff.0
Width: 752
GlyphClass: 2
Flags: W
LayerCount: 2
Fore
SplineSet
616 877 m 2,0,1
 624 890 624 890 638 889 c 128,-1,2
 652 888 652 888 658 874 c 2,3,-1
 681 819 l 2,4,5
 705 762 705 762 714 674 c 0,6,7
 715 662 715 662 715.5 649 c 128,-1,8
 716 636 716 636 716 623 c 0,9,10
 716 555 716 555 700 475 c 1,11,12
 687 418 687 418 658.5 362.5 c 128,-1,13
 630 307 630 307 582 250 c 1,14,15
 511 170 511 170 426 125 c 1,16,-1
 427 125 l 1,17,18
 358 87 358 87 223 54 c 0,19,20
 158 38 158 38 106 25 c 128,-1,21
 54 12 54 12 12 1 c 0,22,23
 -5 -4 -5 -4 -14 8.5 c 128,-1,24
 -23 21 -23 21 -15 36 c 2,25,-1
 132 300 l 2,26,27
 134 302 134 302 139.5 306.5 c 128,-1,28
 145 311 145 311 149 312 c 0,29,30
 194 320 194 320 244 331.5 c 128,-1,31
 294 343 294 343 349 358 c 0,32,33
 401 372 401 372 444 386 c 128,-1,34
 487 400 487 400 521 415 c 1,35,36
 519 432 519 432 514 454 c 128,-1,37
 509 476 509 476 503 502 c 1,38,39
 492 537 492 537 482 570 c 128,-1,40
 472 603 472 603 461 632 c 0,41,42
 459 636 459 636 460.5 642.5 c 128,-1,43
 462 649 462 649 464 653 c 2,44,-1
 616 877 l 2,0,1
686 1139 m 2,45,46
 693 1133 693 1133 694 1124 c 128,-1,47
 695 1115 695 1115 689 1107 c 0,48,49
 648 1055 648 1055 607.5 1004.5 c 128,-1,50
 567 954 567 954 526 903 c 0,51,52
 519 895 519 895 509 894.5 c 128,-1,53
 499 894 499 894 491 902 c 2,54,-1
 352 1032 l 2,55,56
 345 1039 345 1039 344 1047.5 c 128,-1,57
 343 1056 343 1056 349 1064 c 0,58,59
 372 1093 372 1093 395 1121.5 c 128,-1,60
 418 1150 418 1150 441 1179 c 0,61,62
 475 1221 475 1221 511 1267 c 0,63,64
 518 1275 518 1275 528.5 1276 c 128,-1,65
 539 1277 539 1277 547 1270 c 2,66,-1
 686 1139 l 2,45,46
EndSplineSet
MultipleSubs2: "'fina' Terminal Forms in Arabic lookup 2 subtable" _.notdef_13 noqta_A
MultipleSubs2: "'isol' Isolated Forms in Arabic lookup 0 subtable" _.notdef_12 noqta_A
EndChar
StartChar: afii57426
Encoding: 1586 1586 50
AltUni2: 00feaf.ffffffff.0
Width: 961
GlyphClass: 2
Flags: W
LayerCount: 2
Fore
SplineSet
918 558 m 1,0,1
 907 509 907 509 891.5 455.5 c 128,-1,2
 876 402 876 402 853 345 c 0,3,4
 809 233 809 233 760 175 c 0,5,6
 725 134 725 134 679.5 99.5 c 128,-1,7
 634 65 634 65 582 43 c 0,8,9
 534 23 534 23 471 11.5 c 128,-1,10
 408 0 408 0 339 0 c 2,11,-1
 320 0 l 1,12,13
 202 3 202 3 117 12 c 0,14,15
 22 22 22 22 -3 48 c 0,16,17
 -15 60 -15 60 -15 77 c 0,18,19
 -15 109 -15 109 41 142 c 1,20,21
 72 159 72 159 132 181.5 c 128,-1,22
 192 204 192 204 283 233 c 1,23,-1
 282 233 l 1,24,25
 340 251 340 251 398.5 271 c 128,-1,26
 457 291 457 291 513 313.5 c 128,-1,27
 569 336 569 336 621 361.5 c 128,-1,28
 673 387 673 387 719 417 c 1,29,30
 761 446 761 446 793.5 485.5 c 128,-1,31
 826 525 826 525 847 572 c 1,32,-1
 847 571 l 1,33,34
 857 598 857 598 888 598 c 1,35,36
 902 596 902 596 909 588 c 128,-1,37
 916 580 916 580 918 566 c 1,38,-1
 918 558 l 1,0,1
991 952 m 2,39,40
 998 945 998 945 999 936.5 c 128,-1,41
 1000 928 1000 928 994 920 c 0,42,43
 953 867 953 867 912.5 817 c 128,-1,44
 872 767 872 767 831 716 c 0,45,46
 824 708 824 708 814 707 c 128,-1,47
 804 706 804 706 796 714 c 2,48,-1
 657 845 l 2,49,50
 650 851 650 851 649 860 c 128,-1,51
 648 869 648 869 654 876 c 0,52,53
 677 905 677 905 700 934 c 128,-1,54
 723 963 723 963 746 991 c 0,55,56
 780 1033 780 1033 816 1079 c 0,57,58
 823 1088 823 1088 833.5 1089 c 128,-1,59
 844 1090 844 1090 852 1082 c 2,60,-1
 991 952 l 2,39,40
EndSplineSet
MultipleSubs2: "'fina' Terminal Forms in Arabic lookup 2 subtable" _.notdef_15 noqta_A
MultipleSubs2: "'isol' Isolated Forms in Arabic lookup 0 subtable" _.notdef_14 noqta_A
EndChar
StartChar: afii57427
Encoding: 1587 1587 51
AltUni2: 00feb1.ffffffff.0
Width: 1912
GlyphClass: 2
Flags: W
LayerCount: 2
Fore
SplineSet
1463 724 m 1,0,1
 1462 723 1462 723 1462 723 c 2,2,3
 1460 721 1460 721 1459.5 719 c 128,-1,4
 1459 717 1459 717 1463 724 c 1,0,1
827 422 m 1,5,6
 799 351 799 351 737 262 c 1,7,-1
 738 262 l 1,8,9
 624 97 624 97 449 33 c 0,10,11
 359 1 359 1 280 1 c 0,12,13
 242 1 242 1 206.5 9.5 c 128,-1,14
 171 18 171 18 139 32 c 1,15,16
 72 64 72 64 33 136.5 c 128,-1,17
 -6 209 -6 209 -18 309 c 0,18,19
 -19 316 -19 316 -19 326 c 128,-1,20
 -19 336 -19 336 -19 343 c 0,21,22
 -19 438 -19 438 26.5 568.5 c 128,-1,23
 72 699 72 699 155 853 c 1,24,25
 180 895 180 895 215 895 c 0,26,27
 220 895 220 895 226 894.5 c 128,-1,28
 232 894 232 894 243 889 c 1,29,30
 273 871 273 871 273 835 c 0,31,32
 273 826 273 826 270.5 813.5 c 128,-1,33
 268 801 268 801 261 781 c 1,34,35
 252 763 252 763 242.5 745 c 128,-1,36
 233 727 233 727 221 703 c 2,37,-1
 203 668 l 2,38,39
 187 636 187 636 175 605 c 128,-1,40
 163 574 163 574 155 542 c 256,41,42
 147 510 147 510 147 480 c 0,43,44
 147 455 147 455 152 435 c 0,45,46
 160 400 160 400 211 378 c 1,47,48
 240 373 240 373 267 370.5 c 128,-1,49
 294 368 294 368 316 368 c 0,50,51
 408 368 408 368 488 399 c 0,52,53
 548 422 548 422 597 449.5 c 128,-1,54
 646 477 646 477 687 512 c 1,55,56
 687 544 687 544 684.5 569.5 c 128,-1,57
 682 595 682 595 677 617 c 1,58,-1
 677 616 l 1,59,60
 669 647 669 647 659.5 686 c 128,-1,61
 650 725 650 725 639 760 c 1,62,-1
 747 1027 l 2,63,64
 753 1042 753 1042 764.5 1050 c 128,-1,65
 776 1058 776 1058 788.5 1058.5 c 128,-1,66
 801 1059 801 1059 813 1052 c 128,-1,67
 825 1045 825 1045 833 1030 c 1,68,69
 849 995 849 995 861.5 964.5 c 128,-1,70
 874 934 874 934 882 910 c 1,71,72
 883 903 883 903 893 903 c 2,73,-1
 903 903 l 1,74,-1
 1254 978 l 1,75,76
 1426 1016 1426 1016 1577 1077 c 0,77,78
 1655 1108 1655 1108 1684 1155 c 1,79,80
 1689 1160 1689 1160 1696 1164.5 c 128,-1,81
 1703 1169 1703 1169 1720 1169 c 0,82,83
 1731 1169 1731 1169 1734.5 1166.5 c 128,-1,84
 1738 1164 1738 1164 1743 1162 c 2,85,-1
 1755 1157 l 1,86,87
 1766 1148 1766 1148 1772 1137.5 c 128,-1,88
 1778 1127 1778 1127 1778 1104 c 1,89,90
 1739 986 1739 986 1691.5 868.5 c 128,-1,91
 1644 751 1644 751 1593 642 c 0,92,93
 1582 620 1582 620 1564.5 607 c 128,-1,94
 1547 594 1547 594 1524 594 c 0,95,96
 1499 594 1499 594 1477 611 c 0,97,98
 1452 631 1452 631 1452 669 c 0,99,100
 1452 678 1452 678 1454 690.5 c 128,-1,101
 1456 703 1456 703 1462 717 c 1,102,103
 1464 725 1464 725 1463.5 725 c 128,-1,104
 1463 725 1463 725 1462 723 c 1,105,106
 1344 682 1344 682 1218 652 c 0,107,108
 1170 641 1170 641 1127 630.5 c 128,-1,109
 1084 620 1084 620 1043.5 609.5 c 128,-1,110
 1003 599 1003 599 962.5 587.5 c 128,-1,111
 922 576 922 576 880 563 c 1,112,-1
 827 422 l 1,5,6
EndSplineSet
MultipleSubs2: "'medi' Medial Forms in Arabic lookup 3 subtable" _.notdef_19
MultipleSubs2: "'fina' Terminal Forms in Arabic lookup 2 subtable" _.notdef_17
MultipleSubs2: "'init' Initial Forms in Arabic lookup 1 subtable" _.notdef_18
MultipleSubs2: "'isol' Isolated Forms in Arabic lookup 0 subtable" _.notdef_16
EndChar
StartChar: afii57428
Encoding: 1588 1588 52
AltUni2: 00feb5.ffffffff.0
Width: 1912
GlyphClass: 2
Flags: W
LayerCount: 2
Fore
SplineSet
817 421 m 2,0,1
 790 349 790 349 727 260 c 0,2,3
 670 178 670 178 598.5 121.5 c 128,-1,4
 527 65 527 65 441 33 c 1,5,6
 351 1 351 1 274 1 c 0,7,8
 204 1 204 1 139 32 c 1,9,-1
 139 31 l 1,10,11
 76 62 76 62 39 130.5 c 128,-1,12
 2 199 2 199 -9 298 c 0,13,14
 -10 305 -10 305 -10 314 c 128,-1,15
 -10 323 -10 323 -10 330 c 0,16,17
 -10 425 -10 425 36 557.5 c 128,-1,18
 82 690 82 690 167 846 c 1,19,20
 185 876 185 876 207 876 c 0,21,22
 210 876 210 876 213.5 875.5 c 128,-1,23
 217 875 217 875 223 873 c 1,24,25
 242 863 242 863 242 839 c 0,26,27
 242 831 242 831 240.5 822 c 128,-1,28
 239 813 239 813 234 801 c 0,29,30
 222 775 222 775 206.5 744.5 c 128,-1,31
 191 714 191 714 173 678 c 0,32,33
 156 645 156 645 142.5 611 c 128,-1,34
 129 577 129 577 121 542 c 0,35,36
 112 507 112 507 112 472 c 0,37,38
 112 444 112 444 118 420 c 0,39,40
 129 371 129 371 196 342 c 1,41,42
 260 331 260 331 311 331 c 0,43,44
 412 331 412 331 498 365 c 0,45,46
 566 391 566 391 620.5 422.5 c 128,-1,47
 675 454 675 454 720 495 c 1,48,-1
 720 502 l 2,49,50
 720 566 720 566 709 619 c 1,51,-1
 709 618 l 1,52,53
 701 650 701 650 692 687 c 128,-1,54
 683 724 683 724 672 760 c 1,55,-1
 780 1029 l 2,56,57
 786 1045 786 1045 801 1045.5 c 128,-1,58
 816 1046 816 1046 824 1031 c 1,59,60
 839 998 839 998 851.5 968 c 128,-1,61
 864 938 864 938 873 910 c 0,62,63
 881 884 881 884 909 884 c 0,64,65
 914 884 914 884 919 885 c 1,66,-1
 919 884 l 1,67,68
 1013 904 1013 904 1104 923.5 c 128,-1,69
 1195 943 1195 943 1287 963 c 0,70,71
 1465 1002 1465 1002 1625 1067 c 1,72,73
 1713 1100 1713 1100 1745 1152 c 0,74,75
 1748 1155 1748 1155 1752 1157.5 c 128,-1,76
 1756 1160 1756 1160 1764 1160 c 0,77,78
 1769 1160 1769 1160 1774 1157.5 c 128,-1,79
 1779 1155 1779 1155 1784 1153 c 1,80,81
 1791 1147 1791 1147 1795 1141.5 c 128,-1,82
 1799 1136 1799 1136 1799 1122 c 1,83,84
 1758 1000 1758 1000 1710 879.5 c 128,-1,85
 1662 759 1662 759 1611 650 c 0,86,87
 1603 634 1603 634 1591 624.5 c 128,-1,88
 1579 615 1579 615 1562 615 c 0,89,90
 1544 615 1544 615 1529 627 c 0,91,92
 1512 641 1512 641 1512 667 c 0,93,94
 1512 675 1512 675 1513.5 686 c 128,-1,95
 1515 697 1515 697 1520 709 c 1,96,-1
 1520 708 l 1,97,98
 1525 726 1525 726 1531 740.5 c 128,-1,99
 1537 755 1537 755 1544 768 c 1,100,101
 1474 740 1474 740 1398 716.5 c 128,-1,102
 1322 693 1322 693 1239 674 c 0,103,104
 1139 651 1139 651 1051.5 628 c 128,-1,105
 964 605 964 605 876 578 c 1,106,-1
 817 421 l 2,0,1
1632 1504 m 1,107,108
 1603 1442 1603 1442 1564 1385 c 128,-1,109
 1525 1328 1525 1328 1483 1274 c 0,110,111
 1475 1265 1475 1265 1468.5 1260.5 c 128,-1,112
 1462 1256 1462 1256 1451 1256 c 0,113,114
 1439 1256 1439 1256 1429 1265.5 c 128,-1,115
 1419 1275 1419 1275 1413 1291 c 1,116,117
 1395 1330 1395 1330 1377.5 1354 c 128,-1,118
 1360 1378 1360 1378 1343 1378 c 2,119,-1
 1338 1378 l 1,120,121
 1317 1374 1317 1374 1294 1360 c 128,-1,122
 1271 1346 1271 1346 1250 1321 c 1,123,124
 1224 1293 1224 1293 1202.5 1261 c 128,-1,125
 1181 1229 1181 1229 1161 1194 c 0,126,127
 1140 1156 1140 1156 1125.5 1130.5 c 128,-1,128
 1111 1105 1111 1105 1100 1092 c 0,129,130
 1095 1085 1095 1085 1087.5 1083 c 128,-1,131
 1080 1081 1080 1081 1073 1083 c 128,-1,132
 1066 1085 1066 1085 1061.5 1091 c 128,-1,133
 1057 1097 1057 1097 1057 1106 c 2,134,-1
 1056 1192 l 1,135,-1
 1058 1200 l 1,136,137
 1070 1225 1070 1225 1090 1262.5 c 128,-1,138
 1110 1300 1110 1300 1136 1344 c 0,139,140
 1160 1385 1160 1385 1190 1429 c 128,-1,141
 1220 1473 1220 1473 1251 1515 c 1,142,143
 1282 1555 1282 1555 1316 1589 c 128,-1,144
 1350 1623 1350 1623 1386 1649 c 1,145,146
 1421 1672 1421 1672 1455 1672 c 0,147,148
 1481 1672 1481 1672 1506 1660 c 128,-1,149
 1531 1648 1531 1648 1557 1625 c 1,150,151
 1600 1583 1600 1583 1631 1526 c 1,152,-1
 1632 1504 l 1,107,108
EndSplineSet
MultipleSubs2: "'medi' Medial Forms in Arabic lookup 3 subtable" _.notdef_19 salasneqat_A
MultipleSubs2: "'fina' Terminal Forms in Arabic lookup 2 subtable" _.notdef_17 salasneqat_A
MultipleSubs2: "'init' Initial Forms in Arabic lookup 1 subtable" _.notdef_18 salasneqat_A
MultipleSubs2: "'isol' Isolated Forms in Arabic lookup 0 subtable" _.notdef_16 salasneqat_A
EndChar
StartChar: afii57433
Encoding: 1593 1593 57
Width: 1400
GlyphClass: 2
Flags: W
LayerCount: 2
Fore
SplineSet
77 170 m 1,0,1
 135 288 135 288 203 384 c 128,-1,2
 271 480 271 480 345 549 c 1,3,-1
 321 581 l 1,4,-1
 322 580 l 1,5,6
 248 670 248 670 230 789 c 0,7,8
 227 810 227 810 226 832 c 128,-1,9
 225 854 225 854 225 878 c 0,10,11
 225 909 225 909 228 940.5 c 128,-1,12
 231 972 231 972 239 1005 c 0,13,14
 265 1110 265 1110 325 1184 c 1,15,16
 392 1263 392 1263 484 1263 c 1,17,18
 527 1261 527 1261 566.5 1253 c 128,-1,19
 606 1245 606 1245 645 1237 c 1,20,-1
 682 1228 l 2,21,22
 702 1223 702 1223 712 1205.5 c 128,-1,23
 722 1188 722 1188 715 1167 c 0,24,25
 696 1107 696 1107 675 1043 c 128,-1,26
 654 979 654 979 635 919 c 0,27,28
 629 902 629 902 611 892 c 128,-1,29
 593 882 593 882 575 889 c 1,30,-1
 576 889 l 1,31,32
 543 899 543 899 513 906 c 128,-1,33
 483 913 483 913 451 919 c 1,34,35
 454 909 454 909 457.5 902 c 128,-1,36
 461 895 461 895 465 887 c 1,37,-1
 464 887 l 1,38,39
 476 869 476 869 492.5 850 c 128,-1,40
 509 831 509 831 532 812 c 1,41,42
 550 794 550 794 581 794 c 256,43,44
 612 794 612 794 661 817 c 1,45,-1
 660 816 l 1,46,47
 715 844 715 844 763.5 877 c 128,-1,48
 812 910 812 910 854 951 c 1,49,-1
 853 951 l 1,50,51
 866 964 866 964 882 964.5 c 128,-1,52
 898 965 898 965 911 957 c 128,-1,53
 924 949 924 949 930 933.5 c 128,-1,54
 936 918 936 918 929 900 c 2,55,-1
 843 678 l 2,56,57
 830 645 830 645 802.5 613.5 c 128,-1,58
 775 582 775 582 733 549 c 0,59,60
 696 520 696 520 664.5 494.5 c 128,-1,61
 633 469 633 469 605 445 c 0,62,63
 592 434 592 434 574 417.5 c 128,-1,64
 556 401 556 401 533 380 c 2,65,-1
 473 326 l 2,66,67
 427 284 427 284 382.5 239 c 128,-1,68
 338 194 338 194 300 147 c 1,69,70
 221 55 221 55 178 -41 c 1,71,72
 162 -74 162 -74 162 -100 c 256,73,74
 162 -126 162 -126 181 -149 c 1,75,76
 225 -197 225 -197 279 -234.5 c 128,-1,77
 333 -272 333 -272 393 -292 c 0,78,79
 459 -315 459 -315 526 -327 c 128,-1,80
 593 -339 593 -339 664 -341 c 0,81,82
 677 -342 677 -342 688.5 -342 c 128,-1,83
 700 -342 700 -342 713 -342 c 0,84,85
 770 -342 770 -342 830 -337 c 128,-1,86
 890 -332 890 -332 952 -322 c 1,87,88
 1029 -308 1029 -308 1096.5 -295 c 128,-1,89
 1164 -282 1164 -282 1224 -267 c 1,90,-1
 1223 -267 l 1,91,92
 1244 -260 1244 -260 1258 -260 c 0,93,94
 1287 -260 1287 -260 1298.5 -275.5 c 128,-1,95
 1310 -291 1310 -291 1310 -309 c 0,96,97
 1310 -319 1310 -319 1308 -327.5 c 128,-1,98
 1306 -336 1306 -336 1295 -344 c 1,99,100
 1234 -417 1234 -417 1151.5 -479 c 128,-1,101
 1069 -541 1069 -541 972 -586 c 0,102,103
 874 -631 874 -631 773.5 -658 c 128,-1,104
 673 -685 673 -685 570 -692 c 0,105,106
 556 -693 556 -693 541 -693.5 c 128,-1,107
 526 -694 526 -694 512 -694 c 0,108,109
 346 -694 346 -694 202 -623 c 0,110,111
 117 -581 117 -581 62.5 -506 c 128,-1,112
 8 -431 8 -431 -15 -329 c 0,113,114
 -21 -303 -21 -303 -24 -273.5 c 128,-1,115
 -27 -244 -27 -244 -27 -215 c 0,116,117
 -27 -129 -27 -129 0.5 -31 c 128,-1,118
 28 67 28 67 76 170 c 1,119,-1
 77 170 l 1,0,1
EndSplineSet
MultipleSubs2: "'medi' Medial Forms in Arabic lookup 3 subtable" _.notdef_31
MultipleSubs2: "'fina' Terminal Forms in Arabic lookup 2 subtable" _.notdef_29
MultipleSubs2: "'init' Initial Forms in Arabic lookup 1 subtable" _.notdef_30
MultipleSubs2: "'isol' Isolated Forms in Arabic lookup 0 subtable" _.notdef_28
EndChar
StartChar: afii57441
Encoding: 1601 1601 60
AltUni2: 00fed1.ffffffff.0
Width: 1288
GlyphClass: 2
Flags: W
LayerCount: 2
Fore
SplineSet
1149 572 m 1,0,1
 1154 574 1154 574 1155 577 c 1,2,-1
 1149 572 l 1,0,1
1175 274 m 1,3,4
 1100 193 1100 193 1007 140.5 c 128,-1,5
 914 88 914 88 810 56 c 0,6,7
 746 36 746 36 666 23 c 128,-1,8
 586 10 586 10 501 2 c 0,9,10
 486 0 486 0 469.5 -0.5 c 128,-1,11
 453 -1 453 -1 439 -1 c 0,12,13
 295 -1 295 -1 190 59 c 0,14,15
 89 116 89 116 53 219 c 0,16,17
 33 277 33 277 33 336 c 0,18,19
 33 380 33 380 44 424.5 c 128,-1,20
 55 469 55 469 75 516 c 1,21,22
 110 593 110 593 144.5 659.5 c 128,-1,23
 179 726 179 726 217 785 c 1,24,25
 238 813 238 813 263 813 c 0,26,27
 268 813 268 813 272 813 c 128,-1,28
 276 813 276 813 278 812 c 0,29,30
 307 800 307 800 307 770 c 0,31,32
 307 756 307 756 299 737 c 1,33,34
 215 582 215 582 215 485 c 0,35,36
 215 418 215 418 258 381 c 1,37,-1
 257 381 l 1,38,39
 357 294 357 294 532 294 c 0,40,41
 541 294 541 294 550 294 c 128,-1,42
 559 294 559 294 570 295 c 0,43,44
 624 299 624 299 703 313.5 c 128,-1,45
 782 328 782 328 887 355 c 0,46,47
 1081 403 1081 403 1172 474 c 1,48,49
 1167 489 1167 489 1162.5 503 c 128,-1,50
 1158 517 1158 517 1153 531 c 2,51,-1
 1141 566 l 1,52,53
 1106 540 1106 540 1060 527 c 0,54,55
 1048 523 1048 523 1036.5 521.5 c 128,-1,56
 1025 520 1025 520 1014 520 c 0,57,58
 996 520 996 520 979 524 c 128,-1,59
 962 528 962 528 946 535 c 0,60,61
 907 554 907 554 904 606 c 0,62,63
 903 609 903 609 903 612.5 c 128,-1,64
 903 616 903 616 903 618 c 0,65,66
 903 661 903 661 920 692 c 1,67,-1
 920 691 l 1,68,-1
 955 761 l 1,69,-1
 954 761 l 1,70,71
 976 806 976 806 1000 851.5 c 128,-1,72
 1024 897 1024 897 1055 939 c 0,73,74
 1093 989 1093 989 1138 989 c 0,75,76
 1166 989 1166 989 1196 968 c 0,77,78
 1229 945 1229 945 1255 914.5 c 128,-1,79
 1281 884 1281 884 1301 845 c 0,80,81
 1342 764 1342 764 1342 673 c 0,82,83
 1342 641 1342 641 1337.5 608.5 c 128,-1,84
 1333 576 1333 576 1322 541 c 0,85,86
 1271 380 1271 380 1176 274 c 1,87,-1
 1175 274 l 1,3,4
1262 1230 m 2,88,89
 1269 1223 1269 1223 1270 1214.5 c 128,-1,90
 1271 1206 1271 1206 1265 1198 c 0,91,92
 1224 1146 1224 1146 1183.5 1095.5 c 128,-1,93
 1143 1045 1143 1045 1102 994 c 0,94,95
 1095 986 1095 986 1085 985.5 c 128,-1,96
 1075 985 1075 985 1067 992 c 2,97,-1
 928 1123 l 2,98,99
 921 1130 921 1130 920 1138.5 c 128,-1,100
 919 1147 919 1147 925 1155 c 0,101,102
 948 1184 948 1184 971 1212.5 c 128,-1,103
 994 1241 994 1241 1017 1270 c 0,104,105
 1051 1312 1051 1312 1087 1358 c 0,106,107
 1094 1366 1094 1366 1104.5 1367 c 128,-1,108
 1115 1368 1115 1368 1123 1361 c 2,109,-1
 1262 1230 l 2,88,89
EndSplineSet
MultipleSubs2: "'medi' Medial Forms in Arabic lookup 3 subtable" _.notdef_35 noqta_A
MultipleSubs2: "'fina' Terminal Forms in Arabic lookup 2 subtable" _.notdef_33 noqta_A
MultipleSubs2: "'init' Initial Forms in Arabic lookup 1 subtable" _.notdef_34 noqta_A
MultipleSubs2: "'isol' Isolated Forms in Arabic lookup 0 subtable" _.notdef_32 noqta_A
EndChar
StartChar: afii57451
Encoding: 1611 1611 212
Width: 0
GlyphClass: 4
Flags: W
AnchorPoint: "Anchor-19" 0 0 mark 0
AnchorPoint: "Anchor-17" 0 0 mark 0
AnchorPoint: "Anchor-11" 0 0 mark 0
LayerCount: 2
Fore
SplineSet
-210 177 m 1,0,1
 -179 189 -179 189 -129.5 208 c 128,-1,2
 -80 227 -80 227 -22 248.5 c 128,-1,3
 36 270 36 270 97 291.5 c 128,-1,4
 158 313 158 313 211 331 c 0,5,6
 224 336 224 336 232.5 325.5 c 128,-1,7
 241 315 241 315 233 303 c 2,8,-1
 172 204 l 1,9,-1
 120 186 l 1,10,-1
 121 186 l 1,11,12
 22 151 22 151 -76.5 115 c 128,-1,13
 -175 79 -175 79 -255 37 c 0,14,15
 -262 34 -262 34 -268 36 c 128,-1,16
 -274 38 -274 38 -278.5 42.5 c 128,-1,17
 -283 47 -283 47 -284 53.5 c 128,-1,18
 -285 60 -285 60 -281 66 c 2,19,-1
 -210 177 l 1,0,1
-210 -5 m 1,20,21
 -180 8 -180 8 -130 27 c 128,-1,22
 -80 46 -80 46 -22.5 67.5 c 128,-1,23
 35 89 35 89 96 111 c 128,-1,24
 157 133 157 133 210 151 c 0,25,26
 223 156 223 156 232 145.5 c 128,-1,27
 241 135 241 135 233 123 c 2,28,-1
 172 23 l 1,29,30
 117 4 117 4 60 -16 c 128,-1,31
 3 -36 3 -36 -52.5 -56.5 c 128,-1,32
 -108 -77 -108 -77 -159.5 -98.5 c 128,-1,33
 -211 -120 -211 -120 -255 -142 c 0,34,35
 -262 -145 -262 -145 -268 -143.5 c 128,-1,36
 -274 -142 -274 -142 -278.5 -137.5 c 128,-1,37
 -283 -133 -283 -133 -284 -126.5 c 128,-1,38
 -285 -120 -285 -120 -281 -114 c 2,39,-1
 -210 -5 l 1,20,21
EndSplineSet
EndChar
StartChar: afii57452
Encoding: 1612 1612 88
Width: 0
GlyphClass: 4
Flags: W
AnchorPoint: "Anchor-18" 0 0 mark 0
AnchorPoint: "Anchor-14" 0 0 mark 0
LayerCount: 2
Fore
SplineSet
-50 -58 m 2,0,1
 -31 -46 -31 -46 -8.5 -32 c 128,-1,2
 14 -18 14 -18 36 -4 c 128,-1,3
 58 10 58 10 78 23.5 c 128,-1,4
 98 37 98 37 113 49 c 1,5,6
 97 60 97 60 85 72 c 128,-1,7
 73 84 73 84 66 101 c 0,8,9
 63 108 63 108 61 115.5 c 128,-1,10
 59 123 59 123 59 133 c 0,11,12
 59 140 59 140 59.5 144 c 128,-1,13
 60 148 60 148 61 153 c 0,14,15
 67 180 67 180 96 214 c 0,16,17
 121 244 121 244 153 259 c 1,18,19
 162 262 162 262 168.5 264 c 128,-1,20
 175 266 175 266 182 266 c 0,21,22
 200 266 200 266 214 256 c 1,23,-1
 214 257 l 1,24,25
 238 241 238 241 244 198 c 1,26,-1
 244 184 l 2,27,28
 244 154 244 154 231 109 c 1,29,30
 236 103 236 103 240.5 95 c 128,-1,31
 245 87 245 87 246 76 c 0,32,33
 246 69 246 69 245 62 c 128,-1,34
 244 55 244 55 241 47 c 256,35,36
 238 39 238 39 233.5 28.5 c 128,-1,37
 229 18 229 18 221 8 c 0,38,39
 215 -1 215 -1 205.5 -2 c 128,-1,40
 196 -3 196 -3 188 5 c 2,41,-1
 181 11 l 1,42,43
 154 -22 154 -22 126.5 -44.5 c 128,-1,44
 99 -67 99 -67 67 -83.5 c 128,-1,45
 35 -100 35 -100 -2.5 -112.5 c 128,-1,46
 -40 -125 -40 -125 -87 -138 c 1,47,-1
 -99 -139 l 2,48,49
 -108 -139 -108 -139 -114.5 -132.5 c 128,-1,50
 -121 -126 -121 -126 -121 -117 c 0,51,52
 -121 -112 -121 -112 -114.5 -104 c 128,-1,53
 -108 -96 -108 -96 -95 -88 c 1,54,-1
 -96 -88 l 1,55,-1
 -50 -58 l 2,0,1
161 150 m 1,56,57
 161 156 161 156 159 160 c 0,58,59
 157 163 157 163 155 163 c 0,60,61
 151 161 151 161 149 159 c 1,62,-1
 161 150 l 1,56,57
-215 -56 m 2,63,64
 -196 -44 -196 -44 -173.5 -30.5 c 128,-1,65
 -151 -17 -151 -17 -129.5 -3 c 128,-1,66
 -108 11 -108 11 -88.5 24 c 128,-1,67
 -69 37 -69 37 -55 49 c 1,68,69
 -71 60 -71 60 -83.5 72.5 c 128,-1,70
 -96 85 -96 85 -104 101 c 0,71,72
 -107 108 -107 108 -109 115.5 c 128,-1,73
 -111 123 -111 123 -111 133 c 0,74,75
 -111 140 -111 140 -110.5 144 c 128,-1,76
 -110 148 -110 148 -109 153 c 0,77,78
 -103 180 -103 180 -75 214 c 0,79,80
 -47 247 -47 247 -17 259 c 0,81,82
 -7 262 -7 262 0 264 c 128,-1,83
 7 266 7 266 13 266 c 0,84,85
 31 266 31 266 44 256 c 1,86,-1
 44 257 l 1,87,88
 68 241 68 241 74 198 c 1,89,-1
 73 200 l 2,90,91
 75 194 75 194 75 190 c 128,-1,92
 75 186 75 186 75 183 c 0,93,94
 75 169 75 169 72 149.5 c 128,-1,95
 69 130 69 130 63 109 c 1,96,97
 69 102 69 102 72.5 95 c 128,-1,98
 76 88 76 88 77 76 c 1,99,100
 77 63 77 63 71 48 c 0,101,102
 67 37 67 37 62 26.5 c 128,-1,103
 57 16 57 16 52 9 c 0,104,105
 46 -1 46 -1 36 -2 c 128,-1,106
 26 -3 26 -3 18 5 c 0,107,108
 15 8 15 8 14.5 9 c 128,-1,109
 14 10 14 10 15 9 c 2,110,-1
 12 11 l 1,111,112
 -14 -22 -14 -22 -41.5 -44.5 c 128,-1,113
 -69 -67 -69 -67 -101.5 -83.5 c 128,-1,114
 -134 -100 -134 -100 -171.5 -112.5 c 128,-1,115
 -209 -125 -209 -125 -255 -138 c 1,116,-1
 -268 -139 l 2,117,118
 -277 -139 -277 -139 -283 -132.5 c 128,-1,119
 -289 -126 -289 -126 -289 -117 c 0,120,121
 -289 -113 -289 -113 -283.5 -105 c 128,-1,122
 -278 -97 -278 -97 -266 -89 c 2,123,-1
 -215 -56 l 2,63,64
-14 164 m 1,124,-1
 -12 163 l 1,125,-1
 -13 163 l 1,126,-1
 -14 164 l 1,124,-1
-11 162 m 1,127,-1
 -12 163 l 1,128,-1
 -11 162 l 1,127,-1
-8 150 m 1,129,130
 -8 152 -8 152 -9 154 c 0,131,132
 -11 160 -11 160 -13 163 c 1,133,-1
 -14 163 l 1,134,135
 -15 162 -15 162 -16.5 161.5 c 128,-1,136
 -18 161 -18 161 -20 159 c 1,137,-1
 -8 150 l 1,129,130
EndSplineSet
EndChar
StartChar: uni064C
Encoding: 1612 1612 477
Width: 0
Flags: W
AnchorPoint: "Anchor-14" 0 0 mark 0
AnchorPoint: "arMarkMark.above" 0 0 mark 0
LayerCount: 2
Fore
SplineSet
152.111328125 306.639648438 m 0,0,1
 128.360351562 306.639648438 128.360351562 306.639648438 128.360351562 287.223231378 c 0,2,3
 128.360351562 277.022839974 128.360351562 277.022839974 173.634765625 258.961914062 c 1,4,5
 173.769034626 280.847761172 173.769034626 280.847761172 166.080867878 293.743704805 c 128,-1,6
 158.392701131 306.639648438 158.392701131 306.639648438 152.111328125 306.639648438 c 0,0,1
40.0302734375 286.919921875 m 1,7,8
 69.9497250725 364.99651779 69.9497250725 364.99651779 147.06506716 426.649118222 c 0,9,10
 184.228007681 456.360351563 184.228007681 456.360351563 209.267313889 456.360351562 c 128,-1,11
 234.306620096 456.360351562 234.306620096 456.360351562 256.834235088 419.842303677 c 128,-1,12
 279.361850079 383.324255792 279.361850079 383.324255792 279.360144009 326.616425698 c 128,-1,13
 279.358437938 269.908595604 279.358437938 269.908595604 257.15625 214.592773438 c 1,14,15
 260.701309511 212.093286747 260.701309511 212.093286747 262.783998497 208.97369461 c 128,-1,16
 264.866687482 205.854102473 264.866687482 205.854102473 269.348242702 202.867440011 c 128,-1,17
 273.829797921 199.880777549 273.829797921 199.880777549 281.197159818 191.108887883 c 128,-1,18
 288.564521715 182.336998216 288.564521715 182.336998216 296.962436639 172.552444116 c 128,-1,19
 305.360351562 162.767890016 305.360351562 162.767890016 305.360351562 147.763209928 c 128,-1,20
 305.360351562 132.758529841 305.360351562 132.758529841 286.739600017 98.6267749861 c 128,-1,21
 268.118848471 64.4950201314 268.118848471 64.4950201314 245.133754918 45.3410677917 c 128,-1,22
 222.148661366 26.187115452 222.148661366 26.187115452 212.107918927 33.3583846178 c 128,-1,23
 202.067176488 40.5296537836 202.067176488 40.5296537836 187.942382812 55.6171875 c 1,24,25
 171.234932822 67.4353191222 171.234932822 67.4353191222 157.961914062 79.62109375 c 1,26,27
 -12.8671519194 -93.3950132187 -12.8671519194 -93.3950132187 -223.700655448 -155.51224041 c 0,28,29
 -278.360351562 -171.616458691 -278.360351562 -171.616458691 -278.360351562 -154.601652347 c 128,-1,30
 -278.360351562 -137.586846003 -278.360351562 -137.586846003 -262.084971722 -118.578653663 c 0,31,32
 -194.416144664 -39.5474978461 -194.416144664 -39.5474978461 -144.103515625 87.5517578125 c 0,33,34
 -136.908341827 105.54049373 -136.908341827 105.54049373 -131.488824643 143.543586328 c 128,-1,35
 -126.069307459 181.546678926 -126.069307459 181.546678926 -146.557522472 181.1801197 c 128,-1,36
 -167.045737485 180.813560474 -167.045737485 180.813560474 -177.69976177 170.159384763 c 128,-1,37
 -188.353786054 159.505209052 -188.353786054 159.505209052 -191.588729806 156.732459172 c 128,-1,38
 -194.823673559 153.959709291 -194.823673559 153.959709291 -197.282207339 151.59547696 c 0,39,40
 -227.55743174 122.481512796 -227.55743174 122.481512796 -238.902312268 133.919873508 c 0,41,42
 -259.612877628 154.801090948 -259.612877628 154.801090948 -215.657435353 232.066226477 c 0,43,44
 -138.143779799 368.32018712 -138.143779799 368.32018712 -69.5888671875 352.189453125 c 1,45,46
 -9.06943089449 336.26320777 -9.06943089449 336.26320777 -19.0054129293 266.189665769 c 0,47,48
 -42.8143068311 98.2773727519 -42.8143068311 98.2773727519 -154.020507812 -47.6494140625 c 1,49,50
 -145.067226142 -41.7028420748 -145.067226142 -41.7028420748 -139.695717401 -37.9106536971 c 128,-1,51
 -134.32420866 -34.1184653194 -134.32420866 -34.1184653194 -118.014641658 -23.739606376 c 128,-1,52
 -101.705074656 -13.3607474326 -101.705074656 -13.3607474326 -85.667353411 -1.69754779372 c 128,-1,53
 -69.629632166 9.9656518452 -69.629632166 9.9656518452 -61.749710679 15.3832118282 c 128,-1,54
 -53.8697891919 20.8007718113 -53.8697891919 20.8007718113 -38.5252461842 32.1858841097 c 128,-1,55
 -23.1807031765 43.570996408 -23.1807031765 43.570996408 -1.49544165206 58.9867342844 c 128,-1,56
 20.1898198723 74.4024721608 20.1898198723 74.4024721608 33.853573701 85.6261645468 c 128,-1,57
 47.5173275296 96.8498569328 47.5173275296 96.8498569328 59.2613910315 105.659501336 c 128,-1,58
 71.0054545333 114.469145739 71.0054545333 114.469145739 80.1650390625 122.026367188 c 1,59,60
 23.6370514296 157.294900503 23.6370514296 157.294900503 23.6396484375 220.111328125 c 0,61,62
 23.6396484375 250.312969345 23.6396484375 250.312969345 40.0302734375 286.919921875 c 1,7,8
EndSplineSet
EndChar
StartChar: afii57454
Encoding: 1614 1614 215
Width: 0
GlyphClass: 4
Flags: W
AnchorPoint: "Anchor-19" 0 0 mark 0
AnchorPoint: "Anchor-17" 0 0 mark 0
AnchorPoint: "Anchor-11" 0 0 mark 0
LayerCount: 2
Fore
SplineSet
-210 -12 m 1,0,1
 -179 1 -179 1 -129.5 20 c 128,-1,2
 -80 39 -80 39 -22.5 60 c 128,-1,3
 35 81 35 81 95 103 c 128,-1,4
 155 125 155 125 208 144 c 0,5,6
 221 149 221 149 229.5 138.5 c 128,-1,7
 238 128 238 128 231 116 c 2,8,-1
 170 18 l 1,9,-1
 -54 -63 l 2,10,11
 -111 -83 -111 -83 -160 -104.5 c 128,-1,12
 -209 -126 -209 -126 -254 -148 c 0,13,14
 -261 -151 -261 -151 -267 -149.5 c 128,-1,15
 -273 -148 -273 -148 -277.5 -143.5 c 128,-1,16
 -282 -139 -282 -139 -283 -132.5 c 128,-1,17
 -284 -126 -284 -126 -280 -120 c 2,18,-1
 -210 -12 l 1,0,1
EndSplineSet
EndChar
StartChar: afii57455
Encoding: 1615 1615 216
Width: 0
GlyphClass: 4
Flags: W
AnchorPoint: "Anchor-19" 0 0 mark 0
AnchorPoint: "Anchor-17" 0 0 mark 0
AnchorPoint: "Anchor-11" 0 0 mark 0
LayerCount: 2
Fore
SplineSet
-214 -59 m 2,0,1
 -195 -47 -195 -47 -173 -33 c 128,-1,2
 -151 -19 -151 -19 -129 -5 c 128,-1,3
 -107 9 -107 9 -87.5 22.5 c 128,-1,4
 -68 36 -68 36 -53 48 c 1,5,6
 -69 58 -69 58 -82 70.5 c 128,-1,7
 -95 83 -95 83 -102 100 c 0,8,9
 -109 116 -109 116 -109 131 c 0,10,11
 -109 137 -109 137 -108.5 141.5 c 128,-1,12
 -108 146 -108 146 -107 151 c 0,13,14
 -101 179 -101 179 -74 212 c 1,15,16
 -48 242 -48 242 -16 256 c 1,17,18
 -6 259 -6 259 1 261 c 128,-1,19
 8 263 8 263 13 263 c 0,20,21
 31 263 31 263 43 254 c 1,22,23
 67 240 67 240 73 197 c 1,24,-1
 72 198 l 1,25,26
 74 193 74 193 74 189 c 128,-1,27
 74 185 74 185 74 182 c 0,28,29
 74 166 74 166 71 148 c 128,-1,30
 68 130 68 130 60 107 c 1,31,32
 66 101 66 101 70.5 93 c 128,-1,33
 75 85 75 85 76 73 c 0,34,35
 76 62 76 62 70 47 c 0,36,37
 66 38 66 38 61 27.5 c 128,-1,38
 56 17 56 17 50 9 c 1,39,40
 45 0 45 0 36.5 -1.5 c 128,-1,41
 28 -3 28 -3 20 5 c 2,42,-1
 12 13 l 1,43,44
 -15 -22 -15 -22 -42.5 -45 c 128,-1,45
 -70 -68 -70 -68 -102 -84.5 c 128,-1,46
 -134 -101 -134 -101 -172 -113 c 128,-1,47
 -210 -125 -210 -125 -257 -138 c 1,48,-1
 -269 -139 l 2,49,50
 -277 -139 -277 -139 -282.5 -133.5 c 128,-1,51
 -288 -128 -288 -128 -288 -120 c 0,52,53
 -288 -115 -288 -115 -282.5 -107.5 c 128,-1,54
 -277 -100 -277 -100 -266 -92 c 2,55,-1
 -214 -59 l 2,0,1
1 125 m 1,56,57
 4 137 4 137 4 146 c 0,58,59
 4 150 4 150 3 153 c 0,60,61
 1 163 1 163 -4 168 c 0,62,63
 -8 171 -8 171 -13 171 c 2,64,-1
 -16 171 l 1,65,66
 -23 170 -23 170 -28 166 c 128,-1,67
 -33 162 -33 162 -35 158 c 0,68,69
 -36 156 -36 156 -36 154 c 0,70,71
 -36 150 -36 150 -33 147 c 0,72,73
 -26 140 -26 140 -17.5 135 c 128,-1,74
 -9 130 -9 130 1 125 c 1,56,57
EndSplineSet
EndChar
StartChar: afii57456
Encoding: 1616 1616 217
Width: 0
GlyphClass: 4
Flags: W
AnchorPoint: "Anchor-20" 0 0 mark 0
AnchorPoint: "Anchor-18" 0 0 mark 0
AnchorPoint: "Anchor-13" 0 0 mark 0
LayerCount: 2
Fore
SplineSet
-210 127 m 1,0,1
 -179 139 -179 139 -129.5 158 c 128,-1,2
 -80 177 -80 177 -22 198.5 c 128,-1,3
 36 220 36 220 97 241.5 c 128,-1,4
 158 263 158 263 211 281 c 0,5,6
 224 286 224 286 232.5 275.5 c 128,-1,7
 241 265 241 265 233 253 c 2,8,-1
 172 154 l 1,9,-1
 120 136 l 1,10,-1
 121 136 l 1,11,12
 22 101 22 101 -76.5 65 c 128,-1,13
 -175 29 -175 29 -255 -13 c 0,14,15
 -262 -16 -262 -16 -268 -14 c 128,-1,16
 -274 -12 -274 -12 -278.5 -7.5 c 128,-1,17
 -283 -3 -283 -3 -284 3.5 c 128,-1,18
 -285 10 -285 10 -281 16 c 2,19,-1
 -210 127 l 1,0,1
EndSplineSet
EndChar
StartChar: afii57457
Encoding: 1617 1617 218
Width: 0
GlyphClass: 4
Flags: W
AnchorPoint: "Anchor-19" 0 0 mark 0
AnchorPoint: "Anchor-17" 0 0 mark 0
AnchorPoint: "Anchor-11" 0 0 mark 0
LayerCount: 2
Fore
SplineSet
-142 -144 m 1,0,1
 -170 -142 -170 -142 -189.5 -133 c 128,-1,2
 -209 -124 -209 -124 -221.5 -110 c 128,-1,3
 -234 -96 -234 -96 -240.5 -77.5 c 128,-1,4
 -247 -59 -247 -59 -248 -38 c 0,5,6
 -249 -34 -249 -34 -249 -28.5 c 128,-1,7
 -249 -23 -249 -23 -249 -18 c 0,8,9
 -249 12 -249 12 -242 43 c 1,10,11
 -237 60 -237 60 -233.5 75.5 c 128,-1,12
 -230 91 -230 91 -226 102 c 1,13,-1
 -226 103 l 2,14,15
 -226 104 -226 104 -225 106 c 1,16,17
 -225 113 -225 113 -222 117 c 1,18,19
 -220 122 -220 122 -216.5 131 c 128,-1,20
 -213 140 -213 140 -207.5 148 c 128,-1,21
 -202 156 -202 156 -193.5 161.5 c 128,-1,22
 -185 167 -185 167 -173 166 c 0,23,24
 -165 165 -165 165 -160 160 c 128,-1,25
 -155 155 -155 155 -155 147 c 0,26,27
 -155 145 -155 145 -154.5 143.5 c 128,-1,28
 -154 142 -154 142 -156 137 c 0,29,30
 -156 135 -156 135 -156.5 132.5 c 128,-1,31
 -157 130 -157 130 -157 128 c 0,32,33
 -161 115 -161 115 -163 95 c 0,34,35
 -164 88 -164 88 -164.5 81 c 128,-1,36
 -165 74 -165 74 -165 68 c 2,37,-1
 -165 57 l 1,38,39
 -163 28 -163 28 -133 19 c 1,40,41
 -136 20 -136 20 -129 20 c 0,42,43
 -113 20 -113 20 -89 28 c 0,44,45
 -77 32 -77 32 -67 45.5 c 128,-1,46
 -57 59 -57 59 -50 76.5 c 128,-1,47
 -43 94 -43 94 -39 112 c 128,-1,48
 -35 130 -35 130 -34 144 c 1,49,-1
 1 178 l 2,50,51
 11 187 11 187 22 182 c 128,-1,52
 33 177 33 177 33 163 c 0,53,54
 33 161 33 161 32.5 160.5 c 128,-1,55
 32 160 32 160 32 159 c 2,56,-1
 32 153 l 1,57,58
 31 147 31 147 31 141.5 c 128,-1,59
 31 136 31 136 31 130 c 0,60,61
 31 125 31 125 31.5 118.5 c 128,-1,62
 32 112 32 112 33 105 c 0,63,64
 34 88 34 88 46 75 c 0,65,66
 66 55 66 55 77 55 c 2,67,-1
 80 55 l 1,68,69
 94 59 94 59 104.5 73.5 c 128,-1,70
 115 88 115 88 120 108 c 1,71,-1
 119 107 l 1,72,73
 121 118 121 118 122.5 127 c 128,-1,74
 124 136 124 136 124 144 c 2,75,-1
 124 152 l 2,76,77
 124 155 124 155 126 159.5 c 128,-1,78
 128 164 128 164 130 166 c 2,79,-1
 166 199 l 2,80,81
 177 209 177 209 188 203.5 c 128,-1,82
 199 198 199 198 199 185 c 0,83,84
 199 181 199 181 198.5 177 c 128,-1,85
 198 173 198 173 198 169 c 0,86,87
 196 142 196 142 192.5 105.5 c 128,-1,88
 189 69 189 69 181 32.5 c 128,-1,89
 173 -4 173 -4 159 -36.5 c 128,-1,90
 145 -69 145 -69 122 -88 c 1,91,-1
 123 -88 l 1,92,93
 99 -110 99 -110 65 -110 c 0,94,95
 56 -110 56 -110 45.5 -108 c 128,-1,96
 35 -106 35 -106 20 -101 c 1,97,98
 7 -93 7 -93 -3 -85.5 c 128,-1,99
 -13 -78 -13 -78 -21 -67 c 1,100,101
 -40 -97 -40 -97 -73.5 -118.5 c 128,-1,102
 -107 -140 -107 -140 -139 -144 c 1,103,-1
 -142 -144 l 1,0,1
EndSplineSet
EndChar
StartChar: afii57458
Encoding: 1618 1618 219
Width: 0
GlyphClass: 4
Flags: W
AnchorPoint: "Anchor-19" 0 0 mark 0
AnchorPoint: "Anchor-17" 0 0 mark 0
AnchorPoint: "Anchor-11" 0 0 mark 0
LayerCount: 2
Fore
SplineSet
-34 -36 m 0,0,1
 8 -16 8 -16 40 3.5 c 128,-1,2
 72 23 72 23 93 38 c 1,3,4
 59 45 59 45 -1 52 c 0,5,6
 -15 54 -15 54 -29.5 54 c 128,-1,7
 -44 54 -44 54 -55 54 c 0,8,9
 -111 54 -111 54 -131 40 c 0,10,11
 -135 37 -135 37 -141.5 31 c 128,-1,12
 -148 25 -148 25 -156 17 c 0,13,14
 -177 -3 -177 -3 -190 -6 c 0,15,16
 -200 -8 -200 -8 -207 -2 c 128,-1,17
 -214 4 -214 4 -214 14 c 0,18,19
 -214 30 -214 30 -186 97 c 1,20,21
 -161 161 -161 161 -111 223 c 0,22,23
 -80 260 -80 260 27 260 c 2,24,-1
 63 260 l 1,25,26
 197 252 197 252 234 217 c 1,27,28
 258 191 258 191 258 154 c 0,29,30
 258 112 258 112 229 54 c 0,31,32
 175 -50 175 -50 65 -101 c 1,33,-1
 66 -101 l 1,34,35
 17 -125 17 -125 -29 -134.5 c 128,-1,36
 -75 -144 -75 -144 -130 -148 c 1,37,-1
 -150 -146 l 1,38,39
 -161 -146 -161 -146 -166.5 -137.5 c 128,-1,40
 -172 -129 -172 -129 -167 -119 c 0,41,42
 -162 -108 -162 -108 -124 -85 c 128,-1,43
 -86 -62 -86 -62 -34 -36 c 0,0,1
EndSplineSet
EndChar
StartChar: uni0652
Encoding: 1618 1618 75
AltUni2: 0006e1.ffffffff.0
Width: 0
GlyphClass: 4
Flags: W
AnchorPoint: "arMarkMark.above" 0 0 mark 0
AnchorPoint: "Anchor-14" 0 0 mark 0
LayerCount: 2
Fore
SplineSet
-35 -32 m 0,0,1
 10 -10 10 -10 40.5 7 c 128,-1,2
 71 24 71 24 90 39 c 1,3,4
 75 42 75 42 51.5 45 c 128,-1,5
 28 48 28 48 -1 51 c 0,6,7
 -15 53 -15 53 -29.5 53.5 c 128,-1,8
 -44 54 -44 54 -55 54 c 0,9,10
 -108 54 -108 54 -130 40 c 1,11,12
 -135 35 -135 35 -141.5 29.5 c 128,-1,13
 -148 24 -148 24 -155 17 c 0,14,15
 -177 -3 -177 -3 -190 -6 c 0,16,17
 -200 -8 -200 -8 -207.5 -1.5 c 128,-1,18
 -215 5 -215 5 -215 16 c 0,19,20
 -215 32 -215 32 -187 100 c 1,21,-1
 -187 99 l 1,22,23
 -161 163 -161 163 -111 225 c 1,24,25
 -79 263 -79 263 27 263 c 2,26,-1
 62 263 l 1,27,28
 199 256 199 256 235 220 c 0,29,30
 259 197 259 197 259 155 c 0,31,32
 259 110 259 110 230 55 c 0,33,34
 177 -49 177 -49 66 -101 c 0,35,36
 17 -125 17 -125 -29 -134.5 c 128,-1,37
 -75 -144 -75 -144 -129 -147 c 1,38,-1
 -149 -146 l 2,39,40
 -162 -146 -162 -146 -167.5 -136.5 c 128,-1,41
 -173 -127 -173 -127 -168 -115 c 0,42,43
 -159 -92 -159 -92 -35 -32 c 0,0,1
EndSplineSet
EndChar
StartChar: uni0653
Encoding: 1619 1619 220
Width: 0
GlyphClass: 4
Flags: W
AnchorPoint: "Anchor-15" 0 0 mark 0
AnchorPoint: "Anchor-12" 0 0 mark 0
LayerCount: 2
Fore
SplineSet
269 -1 m 1,0,1
 230 -26 230 -26 179 -44 c 128,-1,2
 128 -62 128 -62 65 -76 c 0,3,4
 47 -80 47 -80 28 -82 c 128,-1,5
 9 -84 9 -84 -12 -84 c 0,6,7
 -97 -84 -97 -84 -176 -43 c 0,8,9
 -182 -41 -182 -41 -184 -41 c 0,10,11
 -188 -41 -188 -41 -192 -43 c 2,12,-1
 -222 -61 l 1,13,14
 -233 -69 -233 -69 -253 -87 c 128,-1,15
 -273 -105 -273 -105 -296 -128 c 0,16,17
 -307 -139 -307 -139 -320 -146 c 128,-1,18
 -333 -153 -333 -153 -341 -148 c 0,19,20
 -345 -146 -345 -146 -348.5 -140.5 c 128,-1,21
 -352 -135 -352 -135 -352 -130 c 0,22,23
 -352 -123 -352 -123 -342.5 -102.5 c 128,-1,24
 -333 -82 -333 -82 -316 -53 c 1,25,26
 -287 -7 -287 -7 -245 33 c 128,-1,27
 -203 73 -203 73 -152 99 c 0,28,29
 -147 101 -147 101 -142 102 c 128,-1,30
 -137 103 -137 103 -133 103 c 0,31,32
 -119 103 -119 103 -99 94 c 1,33,34
 -25 56 -25 56 57 56 c 0,35,36
 74 56 74 56 94 58.5 c 128,-1,37
 114 61 114 61 133 64 c 0,38,39
 195 77 195 77 243 97.5 c 128,-1,40
 291 118 291 118 323 146 c 1,41,-1
 322 145 l 2,42,43
 331 154 331 154 341 154 c 0,44,45
 363 154 363 154 363 120 c 1,46,-1
 269 -1 l 1,0,1
EndSplineSet
PairPos2: "'mkmk' Mark to Mark in Arabic lookup 14 subtable" fatha_alefmadA dx=0 dy=0 dh=0 dv=0 dx=0 dy=400 dh=0 dv=0
PairPos2: "'mkmk' Mark to Mark in Arabic lookup 14 subtable" shada_alefmadA dx=0 dy=0 dh=0 dv=0 dx=0 dy=400 dh=0 dv=0
PairPos2: "'mkmk' Mark to Mark in Arabic lookup 14 subtable" shada_sokon_A dx=0 dy=0 dh=0 dv=0 dx=0 dy=400 dh=0 dv=0
PairPos2: "'mkmk' Mark to Mark in Arabic lookup 14 subtable" shada_fathatan_A dx=0 dy=0 dh=0 dv=0 dx=0 dy=400 dh=0 dv=0
PairPos2: "'mkmk' Mark to Mark in Arabic lookup 14 subtable" uniFC62 dx=0 dy=0 dh=0 dv=0 dx=0 dy=400 dh=0 dv=0
PairPos2: "'mkmk' Mark to Mark in Arabic lookup 14 subtable" uniFC61 dx=0 dy=0 dh=0 dv=0 dx=0 dy=400 dh=0 dv=0
PairPos2: "'mkmk' Mark to Mark in Arabic lookup 14 subtable" uniFC60 dx=0 dy=0 dh=0 dv=0 dx=0 dy=400 dh=0 dv=0
PairPos2: "'mkmk' Mark to Mark in Arabic lookup 14 subtable" uniFC5F dx=0 dy=0 dh=0 dv=0 dx=0 dy=400 dh=0 dv=0
PairPos2: "'mkmk' Mark to Mark in Arabic lookup 14 subtable" uniFC5E dx=0 dy=0 dh=0 dv=0 dx=0 dy=400 dh=0 dv=0
PairPos2: "'mkmk' Mark to Mark in Arabic lookup 14 subtable" uni0670 dx=0 dy=0 dh=0 dv=0 dx=0 dy=400 dh=0 dv=0
PairPos2: "'mkmk' Mark to Mark in Arabic lookup 14 subtable" afii57458 dx=0 dy=0 dh=0 dv=0 dx=0 dy=400 dh=0 dv=0
PairPos2: "'mkmk' Mark to Mark in Arabic lookup 14 subtable" afii57457 dx=0 dy=0 dh=0 dv=0 dx=0 dy=400 dh=0 dv=0
PairPos2: "'mkmk' Mark to Mark in Arabic lookup 14 subtable" afii57455 dx=0 dy=0 dh=0 dv=0 dx=0 dy=400 dh=0 dv=0
PairPos2: "'mkmk' Mark to Mark in Arabic lookup 14 subtable" afii57454 dx=0 dy=0 dh=0 dv=0 dx=0 dy=400 dh=0 dv=0
PairPos2: "'mkmk' Mark to Mark in Arabic lookup 14 subtable" afii57452 dx=0 dy=0 dh=0 dv=0 dx=0 dy=400 dh=0 dv=0
PairPos2: "'mkmk' Mark to Mark in Arabic lookup 14 subtable" afii57451 dx=0 dy=0 dh=0 dv=0 dx=0 dy=400 dh=0 dv=0
EndChar
StartChar: uni0654
Encoding: 1620 1620 77
Width: 0
GlyphClass: 4
Flags: W
AnchorPoint: "arMarkMark.above" 0 0 mark 0
AnchorPoint: "Anchor-15" 0 0 mark 0
LayerCount: 2
Fore
SplineSet
94 225 m 2,0,1
 86 208 86 208 72 195.5 c 128,-1,2
 58 183 58 183 39 174 c 0,3,4
 34 171 34 171 25 166 c 128,-1,5
 16 161 16 161 11 156 c 1,6,7
 18 151 18 151 30 148 c 0,8,9
 48 143 48 143 62.5 137 c 128,-1,10
 77 131 77 131 90 123 c 0,11,12
 128 97 128 97 128 57 c 0,13,14
 128 46 128 46 125.5 35.5 c 128,-1,15
 123 25 123 25 118 14 c 0,16,17
 95 -45 95 -45 34 -89 c 0,18,19
 -18 -126 -18 -126 -74 -135 c 0,20,21
 -95 -138 -95 -138 -116 -141.5 c 128,-1,22
 -137 -145 -137 -145 -160 -149 c 2,23,-1
 -177 -152 l 2,24,25
 -187 -154 -187 -154 -193.5 -148 c 128,-1,26
 -200 -142 -200 -142 -202.5 -134 c 128,-1,27
 -205 -126 -205 -126 -202.5 -117.5 c 128,-1,28
 -200 -109 -200 -109 -191 -105 c 2,29,-1
 -148 -87 l 1,30,31
 -119 -73 -119 -73 -87 -59 c 128,-1,32
 -55 -45 -55 -45 -26 -30 c 1,33,34
 -30 -27 -30 -27 -34 -26 c 0,35,36
 -46 -21 -46 -21 -56 -16 c 128,-1,37
 -66 -11 -66 -11 -76 -5 c 1,38,-1
 -75 -5 l 1,39,40
 -124 23 -124 23 -124 71 c 0,41,42
 -124 115 -124 115 -77 177 c 0,43,44
 -37 229 -37 229 -4.5 264.5 c 128,-1,45
 28 300 28 300 49 317 c 0,46,47
 59 325 59 325 73.5 332.5 c 128,-1,48
 88 340 88 340 105 348 c 0,49,50
 113 352 113 352 120 350 c 128,-1,51
 127 348 127 348 132 343 c 128,-1,52
 137 338 137 338 138.5 330.5 c 128,-1,53
 140 323 140 323 137 315 c 2,54,-1
 94 225 l 2,0,1
EndSplineSet
EndChar
StartChar: uni0655
Encoding: 1621 1621 223
Width: 0
GlyphClass: 4
Flags: W
AnchorPoint: "Anchor-16" 0 0 mark 0
AnchorPoint: "Anchor-14" 0 0 mark 0
LayerCount: 2
Fore
SplineSet
90 224 m 2,0,1
 74 191 74 191 37 175 c 0,2,3
 27 171 27 171 19 165 c 128,-1,4
 11 159 11 159 3 151 c 1,5,6
 13 144 13 144 30 139 c 0,7,8
 64 130 64 130 89 115 c 1,9,10
 124 91 124 91 124 53 c 0,11,12
 124 29 124 29 115 10 c 1,13,14
 104 -19 104 -19 83 -43.5 c 128,-1,15
 62 -68 62 -68 32 -90 c 0,16,17
 -18 -127 -18 -127 -74 -136 c 0,18,19
 -96 -139 -96 -139 -117.5 -142.5 c 128,-1,20
 -139 -146 -139 -146 -162 -150 c 2,21,-1
 -179 -153 l 2,22,23
 -187 -155 -187 -155 -192.5 -150.5 c 128,-1,24
 -198 -146 -198 -146 -200 -139.5 c 128,-1,25
 -202 -133 -202 -133 -200 -126 c 128,-1,26
 -198 -119 -198 -119 -190 -116 c 2,27,-1
 -147 -97 l 2,28,29
 -116 -84 -116 -84 -83.5 -68.5 c 128,-1,30
 -51 -53 -51 -53 -15 -34 c 1,31,32
 -19 -32 -19 -32 -23 -30 c 128,-1,33
 -27 -28 -27 -28 -32 -26 c 0,34,35
 -43 -21 -43 -21 -53.5 -16 c 128,-1,36
 -64 -11 -64 -11 -73 -5 c 1,37,-1
 -72 -6 l 1,38,39
 -120 18 -120 18 -120 66 c 0,40,41
 -120 111 -120 111 -73 170 c 1,42,43
 -33 222 -33 222 -0.5 257.5 c 128,-1,44
 32 293 32 293 52 310 c 1,45,46
 62 317 62 317 76 325 c 128,-1,47
 90 333 90 333 108 341 c 0,48,49
 121 346 121 346 130 337 c 128,-1,50
 139 328 139 328 133 314 c 2,51,-1
 90 224 l 2,0,1
EndSplineSet
EndChar
StartChar: uni065A
Encoding: 1626 1626 486
Width: 0
GlyphClass: 4
Flags: W
AnchorPoint: "Anchor-14" 0 0 mark 0
LayerCount: 2
Fore
SplineSet
178 366 m 1,0,1
 172 344 172 344 169 322.5 c 128,-1,2
 166 301 166 301 166 280 c 1,3,4
 127 230 127 230 99.5 175 c 128,-1,5
 72 120 72 120 47 61 c 0,6,7
 45 55 45 55 43.5 49.5 c 128,-1,8
 42 44 42 44 40 39 c 0,9,10
 37 28 37 28 32.5 18 c 128,-1,11
 28 8 28 8 21 -1 c 0,12,13
 17 -6 17 -6 8 -10 c 1,14,-1
 8 -10 l 1,15,16
 2 -12 2 -12 -3 -12 c 0,17,18
 -15 -12 -15 -12 -18 -4 c 0,19,20
 -30 37 -30 37 -47 73.5 c 128,-1,21
 -64 110 -64 110 -86 143 c 0,22,23
 -108 177 -108 177 -132 211 c 128,-1,24
 -156 245 -156 245 -181 278 c 1,25,26
 -173 297 -173 297 -162 318.5 c 128,-1,27
 -151 340 -151 340 -141 361 c 1,28,-1
 -141 360 l 1,29,-1
 -136 370 l 2,30,31
 -133 375 -133 375 -125 376 c 128,-1,32
 -117 377 -117 377 -113 371 c 0,33,34
 -32 264 -32 264 24 159 c 1,35,36
 50 216 50 216 81.5 268 c 128,-1,37
 113 320 113 320 148 369 c 1,38,-1
 148 369 l 1,39,40
 151 375 151 375 163 375 c 0,41,42
 164 375 164 375 166 375 c 128,-1,43
 168 375 168 375 171 374 c 1,44,-1
 178 366 l 1,0,1
EndSplineSet
EndChar
StartChar: uni0661
Encoding: 1633 1633 90
Width: 387
GlyphClass: 2
Flags: W
LayerCount: 2
Fore
SplineSet
332 624 m 1,0,1
 334 610 334 610 335 600 c 128,-1,2
 336 590 336 590 336 585 c 0,3,4
 338 556 338 556 339.5 527.5 c 128,-1,5
 341 499 341 499 341 471 c 0,6,7
 341 421 341 421 336 373.5 c 128,-1,8
 331 326 331 326 320 281 c 0,9,10
 287 142 287 142 239 42 c 0,11,12
 219 0 219 0 189 0 c 0,13,14
 187 0 187 0 183 0.5 c 128,-1,15
 179 1 179 1 173 4 c 256,16,17
 167 7 167 7 163 14 c 128,-1,18
 159 21 159 21 160 28 c 0,19,20
 172 136 172 136 172 237 c 0,21,22
 172 306 172 306 166.5 371.5 c 128,-1,23
 161 437 161 437 149 503 c 1,24,-1
 149 502 l 1,25,26
 128 615 128 615 97 715.5 c 128,-1,27
 66 816 66 816 25 906 c 1,28,29
 48 972 48 972 76 1048 c 128,-1,30
 104 1124 104 1124 133 1193 c 1,31,32
 139 1210 139 1210 154.5 1209.5 c 128,-1,33
 170 1209 170 1209 177 1192 c 0,34,35
 202 1127 202 1127 226 1060 c 128,-1,36
 250 993 250 993 270 922.5 c 128,-1,37
 290 852 290 852 306 777.5 c 128,-1,38
 322 703 322 703 332 623 c 1,39,-1
 332 624 l 1,0,1
EndSplineSet
EndChar
StartChar: afii57394
Encoding: 1634 1634 116
Width: 586
GlyphClass: 2
Flags: W
LayerCount: 2
Fore
SplineSet
488 928 m 1,0,1
 473 883 473 883 443 883 c 0,2,3
 438 883 438 883 433.5 883.5 c 128,-1,4
 429 884 429 884 424 887 c 1,5,6
 398 894 398 894 365.5 900 c 128,-1,7
 333 906 333 906 302 911 c 0,8,9
 278 914 278 914 258 914 c 0,10,11
 228 914 228 914 198 908 c 1,12,13
 218 861 218 861 242 811 c 128,-1,14
 266 761 266 761 295 706 c 0,15,16
 361 582 361 582 396 462 c 1,17,18
 398 446 398 446 399 429 c 128,-1,19
 400 412 400 412 400 395 c 0,20,21
 400 353 400 353 394 313 c 128,-1,22
 388 273 388 273 375 237 c 0,23,24
 358 187 358 187 344 138 c 128,-1,25
 330 89 330 89 319 44 c 1,26,27
 310 15 310 15 288 3 c 0,28,29
 274 -5 274 -5 262 3 c 128,-1,30
 250 11 250 11 252 27 c 0,31,32
 254 45 254 45 255 63 c 128,-1,33
 256 81 256 81 256 98 c 0,34,35
 256 212 256 212 215 318 c 0,36,37
 202 349 202 349 187.5 381.5 c 128,-1,38
 173 414 173 414 158 445.5 c 128,-1,39
 143 477 143 477 128.5 505.5 c 128,-1,40
 114 534 114 534 101 557 c 1,41,-1
 102 556 l 1,42,43
 81 591 81 591 66.5 635 c 128,-1,44
 52 679 52 679 45 731 c 0,45,46
 41 757 41 757 39 783.5 c 128,-1,47
 37 810 37 810 37 838 c 0,48,49
 37 864 37 864 38.5 889.5 c 128,-1,50
 40 915 40 915 44 939 c 0,51,52
 52 990 52 990 68.5 1035 c 128,-1,53
 85 1080 85 1080 108 1119 c 1,54,55
 134 1158 134 1158 172.5 1182.5 c 128,-1,56
 211 1207 211 1207 256 1214 c 0,57,58
 273 1216 273 1216 290 1217 c 128,-1,59
 307 1218 307 1218 323 1218 c 0,60,61
 343 1218 343 1218 361.5 1216.5 c 128,-1,62
 380 1215 380 1215 397 1213 c 0,63,64
 429 1208 429 1208 463 1200.5 c 128,-1,65
 497 1193 497 1193 535 1183 c 1,66,67
 539 1178 539 1178 543 1170.5 c 128,-1,68
 547 1163 547 1163 547 1155 c 1,69,-1
 488 928 l 1,0,1
EndSplineSet
Substitution2: "'cv01' Character Variants 01 in Arabic lookup 53 subtable" uni06F2
EndChar
StartChar: afii57395
Encoding: 1635 1635 120
Width: 848
GlyphClass: 2
Flags: W
LayerCount: 2
Fore
SplineSet
802 1177 m 1,0,1
 797 1123 797 1123 789 1070.5 c 128,-1,2
 781 1018 781 1018 770 966 c 0,3,4
 758 912 758 912 735 871.5 c 128,-1,5
 712 831 712 831 680 801 c 1,6,-1
 680 802 l 1,7,8
 650 775 650 775 600 756 c 0,9,10
 589 751 589 751 577.5 748.5 c 128,-1,11
 566 746 566 746 554 746 c 0,12,13
 522 746 522 746 490 765 c 0,14,15
 479 772 479 772 469 784 c 1,16,-1
 453 769 l 1,17,-1
 447 763 l 1,18,19
 495 680 495 680 521.5 589.5 c 128,-1,20
 548 499 548 499 556 399 c 0,21,22
 557 387 557 387 557 374.5 c 128,-1,23
 557 362 557 362 557 350 c 0,24,25
 557 179 557 179 460 24 c 0,26,27
 456 17 456 17 451.5 14 c 128,-1,28
 447 11 447 11 441 8 c 0,29,30
 416 -6 416 -6 402 8 c 0,31,32
 399 11 399 11 397.5 17 c 128,-1,33
 396 23 396 23 396 27 c 0,34,35
 398 51 398 51 399 74 c 128,-1,36
 400 97 400 97 400 118 c 0,37,38
 400 190 400 190 386 256.5 c 128,-1,39
 372 323 372 323 346 380 c 1,40,41
 309 456 309 456 271 528.5 c 128,-1,42
 233 601 233 601 198 658 c 1,43,-1
 198 657 l 1,44,45
 177 690 177 690 156 722.5 c 128,-1,46
 135 755 135 755 112 787 c 0,47,48
 65 856 65 856 29 942 c 1,49,50
 52 1007 52 1007 77 1071.5 c 128,-1,51
 102 1136 102 1136 131 1198 c 0,52,53
 138 1213 138 1213 152.5 1213 c 128,-1,54
 167 1213 167 1213 174 1198 c 2,55,-1
 222 1102 l 1,56,57
 243 1057 243 1057 281 1031 c 0,58,59
 311 1010 311 1010 349 1010 c 0,60,61
 368 1010 368 1010 389 1016 c 0,62,63
 421 1024 421 1024 445 1038 c 128,-1,64
 469 1052 469 1052 483 1069 c 0,65,66
 485 1072 485 1072 488 1080.5 c 128,-1,67
 491 1089 491 1089 496 1103 c 0,68,69
 501 1118 501 1118 506 1129.5 c 128,-1,70
 511 1141 511 1141 516 1152 c 1,71,72
 521 1159 521 1159 528 1162.5 c 128,-1,73
 535 1166 535 1166 541 1166 c 0,74,75
 562 1166 562 1166 568 1147 c 1,76,77
 573 1137 573 1137 573 1126 c 2,78,-1
 573 1117 l 1,79,80
 572 1112 572 1112 571.5 1108 c 128,-1,81
 571 1104 571 1104 571 1103 c 0,82,83
 571 1071 571 1071 600 1065 c 0,84,85
 615 1062 615 1062 631 1062 c 0,86,87
 664 1062 664 1062 689 1081 c 1,88,-1
 688 1081 l 1,89,90
 725 1112 725 1112 736 1156 c 0,91,92
 738 1161 738 1161 740.5 1170 c 128,-1,93
 743 1179 743 1179 748 1187 c 0,94,95
 754 1197 754 1197 763 1202.5 c 128,-1,96
 772 1208 772 1208 776 1208 c 0,97,98
 786 1208 786 1208 794 1200 c 128,-1,99
 802 1192 802 1192 802 1179 c 2,100,-1
 802 1177 l 1,0,1
EndSplineSet
EndChar
StartChar: afii57396
Encoding: 1636 1636 93
Width: 734
GlyphClass: 2
Flags: W
LayerCount: 2
Fore
SplineSet
687 307 m 1,0,1
 673 283 673 283 659.5 259.5 c 128,-1,2
 646 236 646 236 632 210 c 0,3,4
 615 178 615 178 597 146 c 128,-1,5
 579 114 579 114 560 85 c 1,6,7
 480 10 480 10 327 2 c 0,8,9
 320 1 320 1 312 1 c 128,-1,10
 304 1 304 1 297 1 c 0,11,12
 232 1 232 1 179.5 18.5 c 128,-1,13
 127 36 127 36 87 68 c 0,14,15
 54 95 54 95 42 151 c 1,16,-1
 42 148 l 1,17,18
 39 156 39 156 38 165 c 128,-1,19
 37 174 37 174 37 183 c 0,20,21
 37 222 37 222 56 251 c 1,22,-1
 56 250 l 1,23,-1
 88 304 l 1,24,-1
 87 304 l 1,25,26
 112 346 112 346 136 390 c 128,-1,27
 160 434 160 434 178 485 c 1,28,29
 162 522 162 522 136 534 c 1,30,31
 116 545 116 545 99 555 c 128,-1,32
 82 565 82 565 69 577 c 0,33,34
 36 607 36 607 36 661 c 0,35,36
 36 709 36 709 93 817 c 0,37,38
 119 865 119 865 149 914.5 c 128,-1,39
 179 964 179 964 214 1015 c 0,40,41
 285 1118 285 1118 388 1184 c 0,42,43
 410 1197 410 1197 439 1207 c 0,44,45
 447 1210 447 1210 454.5 1207 c 128,-1,46
 462 1204 462 1204 466.5 1198.5 c 128,-1,47
 471 1193 471 1193 471.5 1185 c 128,-1,48
 472 1177 472 1177 467 1170 c 0,49,50
 445 1139 445 1139 429.5 1104 c 128,-1,51
 414 1069 414 1069 399 1033 c 1,52,-1
 399 1034 l 1,53,54
 394 1021 394 1021 386 1004.5 c 128,-1,55
 378 988 378 988 373 975 c 1,56,57
 350 958 350 958 328 943.5 c 128,-1,58
 306 929 306 929 284 918 c 0,59,60
 245 897 245 897 232 859 c 0,61,62
 231 857 231 857 231 852 c 0,63,64
 231 846 231 846 241 842 c 1,65,66
 377 758 377 758 377 667 c 0,67,68
 377 651 377 651 373.5 637 c 128,-1,69
 370 623 370 623 363 608 c 0,70,71
 311 505 311 505 231 375 c 1,72,73
 240 340 240 340 276 321 c 0,74,75
 299 309 299 309 323.5 301.5 c 128,-1,76
 348 294 348 294 375 289 c 0,77,78
 411 283 411 283 439 283 c 0,79,80
 477 283 477 283 518 294 c 1,81,82
 552 302 552 302 583.5 316 c 128,-1,83
 615 330 615 330 645 348 c 1,84,-1
 657 348 l 2,85,86
 660 348 660 348 666.5 346.5 c 128,-1,87
 673 345 673 345 680 340 c 1,88,-1
 687 307 l 1,0,1
EndSplineSet
EndChar
StartChar: afii57397
Encoding: 1637 1637 94
Width: 694
GlyphClass: 2
Flags: W
LayerCount: 2
Fore
SplineSet
490 368 m 1,0,-1
 490 369 l 1,1,-1
 490 368 l 1,0,-1
381 330 m 0,2,3
 485 354 485 354 490 369 c 1,4,5
 482 397 482 397 467 436 c 128,-1,6
 452 475 452 475 429 528 c 0,7,8
 409 576 409 576 387 609.5 c 128,-1,9
 365 643 365 643 345 659 c 1,10,11
 329 670 329 670 318 670 c 0,12,13
 306 670 306 670 290 656 c 0,14,15
 271 639 271 639 247 597.5 c 128,-1,16
 223 556 223 556 192 490 c 0,17,18
 177 458 177 458 169.5 433.5 c 128,-1,19
 162 409 162 409 162 389 c 0,20,21
 162 362 162 362 181 350 c 0,22,23
 226 320 226 320 293 320 c 0,24,25
 313 320 313 320 335.5 322.5 c 128,-1,26
 358 325 358 325 381 330 c 0,2,3
466 93 m 1,27,28
 407 29 407 29 284 5 c 0,29,30
 254 -1 254 -1 221 -1 c 0,31,32
 134 -1 134 -1 77 53 c 0,33,34
 38 89 38 89 38 178 c 0,35,36
 38 187 38 187 38.5 198.5 c 128,-1,37
 39 210 39 210 40 221 c 0,38,39
 49 330 49 330 81 466 c 0,40,41
 97 531 97 531 115 593 c 128,-1,42
 133 655 133 655 153 714 c 0,43,44
 196 837 196 837 216 881 c 1,45,-1
 216 880 l 1,46,47
 278 1013 278 1013 352 1013 c 0,48,49
 391 1013 391 1013 431 973 c 0,50,51
 526 875 526 875 586 729 c 1,52,53
 609 669 609 669 621 610.5 c 128,-1,54
 633 552 633 552 633 494 c 0,55,56
 633 468 633 468 631 443 c 128,-1,57
 629 418 629 418 625 394 c 0,58,59
 597 230 597 230 466 93 c 1,27,28
EndSplineSet
EndChar
StartChar: uni0666
Encoding: 1638 1638 95
Width: 777
GlyphClass: 2
Flags: W
LayerCount: 2
Fore
SplineSet
729 284 m 2,0,1
 731 281 731 281 732 274.5 c 128,-1,2
 733 268 733 268 732 265 c 0,3,4
 712 200 712 200 689 139 c 128,-1,5
 666 78 666 78 640 21 c 1,6,7
 635 13 635 13 627.5 8 c 128,-1,8
 620 3 620 3 605 1 c 1,9,10
 580 1 580 1 570 22 c 1,11,12
 541 95 541 95 517 183 c 128,-1,13
 493 271 493 271 479 358 c 0,14,15
 471 412 471 412 466 470.5 c 128,-1,16
 461 529 461 529 461 589 c 0,17,18
 461 629 461 629 463.5 673 c 128,-1,19
 466 717 466 717 469 759 c 0,20,21
 469 765 469 765 469.5 774.5 c 128,-1,22
 470 784 470 784 472 791 c 1,23,-1
 472 793 l 1,24,25
 347 798 347 798 248.5 828 c 128,-1,26
 150 858 150 858 66 903 c 1,27,28
 39 919 39 919 39 948 c 0,29,30
 39 962 39 962 47 983 c 2,31,-1
 78 1060 l 2,32,33
 92 1093 92 1093 104 1126 c 128,-1,34
 116 1159 116 1159 127 1191 c 0,35,36
 131 1203 131 1203 141.5 1207 c 128,-1,37
 152 1211 152 1211 162 1205 c 0,38,39
 208 1179 208 1179 259 1158.5 c 128,-1,40
 310 1138 310 1138 367 1123 c 1,41,42
 414 1109 414 1109 467 1103 c 128,-1,43
 520 1097 520 1097 580 1097 c 0,44,45
 591 1097 591 1097 601 1097 c 128,-1,46
 611 1097 611 1097 622 1098 c 0,47,48
 635 1099 635 1099 642.5 1090.5 c 128,-1,49
 650 1082 650 1082 648 1070 c 0,50,51
 627 936 627 936 627 802 c 0,52,53
 627 765 627 765 628.5 727.5 c 128,-1,54
 630 690 630 690 634 652 c 1,55,56
 650 437 650 437 721 297 c 1,57,-1
 720 300 l 1,58,-1
 729 284 l 2,0,1
EndSplineSet
EndChar
StartChar: afii57399
Encoding: 1639 1639 105
Width: 771
GlyphClass: 2
Flags: W
LayerCount: 2
Fore
SplineSet
727 1177 m 1,0,1
 716 1108 716 1108 710 1041.5 c 128,-1,2
 704 975 704 975 704 910 c 1,3,4
 628 754 628 754 574 583 c 128,-1,5
 520 412 520 412 473 228 c 0,6,7
 468 210 468 210 465 193 c 128,-1,8
 462 176 462 176 458 158 c 0,9,10
 452 126 452 126 444 94 c 128,-1,11
 436 62 436 62 421 33 c 0,12,13
 414 18 414 18 396 7 c 1,14,-1
 397 7 l 1,15,16
 385 0 385 0 375 0 c 0,17,18
 351 0 351 0 345 26 c 1,19,20
 322 153 322 153 289 266.5 c 128,-1,21
 256 380 256 380 214 483 c 0,22,23
 171 589 171 589 124 695.5 c 128,-1,24
 77 802 77 802 29 905 c 1,25,26
 44 963 44 963 65.5 1029.5 c 128,-1,27
 87 1096 87 1096 107 1161 c 1,28,-1
 107 1160 l 1,29,-1
 117 1190 l 2,30,31
 122 1207 122 1207 138 1209 c 128,-1,32
 154 1211 154 1211 162 1194 c 0,33,34
 319 860 319 860 428 532 c 1,35,36
 479 712 479 712 540 872.5 c 128,-1,37
 601 1033 601 1033 669 1188 c 1,38,-1
 668 1186 l 1,39,40
 675 1206 675 1206 698 1206 c 0,41,42
 700 1206 700 1206 704 1205.5 c 128,-1,43
 708 1205 708 1205 714 1202 c 1,44,-1
 727 1177 l 1,0,1
EndSplineSet
EndChar
StartChar: afii57400
Encoding: 1640 1640 122
Width: 771
GlyphClass: 2
Flags: W
LayerCount: 2
Fore
SplineSet
55 2 m 2,0,1
 43 2 43 2 36 10 c 128,-1,2
 29 18 29 18 31 30 c 0,3,4
 42 100 42 100 48 166.5 c 128,-1,5
 54 233 54 233 54 298 c 1,6,7
 91 373 91 373 123 455.5 c 128,-1,8
 155 538 155 538 183.5 624.5 c 128,-1,9
 212 711 212 711 237 800 c 128,-1,10
 262 889 262 889 286 978 c 0,11,12
 290 993 290 993 292 1008 c 128,-1,13
 294 1023 294 1023 297 1039 c 0,14,15
 304 1074 304 1074 312 1109 c 128,-1,16
 320 1144 320 1144 337 1176 c 0,17,18
 345 1190 345 1190 361 1201 c 0,19,20
 366 1205 366 1205 372 1206.5 c 128,-1,21
 378 1208 378 1208 382 1208 c 0,22,23
 392 1208 392 1208 401 1201.5 c 128,-1,24
 410 1195 410 1195 413 1181 c 0,25,26
 436 1054 436 1054 468.5 940.5 c 128,-1,27
 501 827 501 827 543 724 c 0,28,29
 586 618 586 618 633.5 512 c 128,-1,30
 681 406 681 406 729 302 c 1,31,32
 711 236 711 236 687.5 161 c 128,-1,33
 664 86 664 86 641 16 c 0,34,35
 638 8 638 8 632 3.5 c 128,-1,36
 626 -1 626 -1 619.5 -1 c 128,-1,37
 613 -1 613 -1 606.5 2.5 c 128,-1,38
 600 6 600 6 596 14 c 0,39,40
 438 344 438 344 330 674 c 1,41,42
 304 582 304 582 276.5 497.5 c 128,-1,43
 249 413 249 413 219 333 c 128,-1,44
 189 253 189 253 156.5 175.5 c 128,-1,45
 124 98 124 98 90 20 c 1,46,-1
 91 22 l 1,47,48
 87 11 87 11 78.5 6.5 c 128,-1,49
 70 2 70 2 60 2 c 2,50,-1
 55 2 l 2,0,1
EndSplineSet
EndChar
StartChar: afii57381
Encoding: 1642 1642 111
Width: 903
GlyphClass: 2
Flags: W
LayerCount: 2
Fore
SplineSet
43 853 m 2,0,1
 35 858 35 858 33 868 c 128,-1,2
 31 878 31 878 36 886 c 2,3,-1
 170 1110 l 2,4,5
 175 1119 175 1119 184.5 1121.5 c 128,-1,6
 194 1124 194 1124 203 1119 c 2,7,-1
 366 1023 l 2,8,9
 375 1018 375 1018 377.5 1008 c 128,-1,10
 380 998 380 998 375 989 c 2,11,-1
 241 761 l 2,12,13
 236 753 236 753 226 751 c 128,-1,14
 216 749 216 749 208 754 c 2,15,-1
 43 853 l 2,0,1
522 23 m 2,16,17
 513 28 513 28 511 37.5 c 128,-1,18
 509 47 509 47 514 56 c 2,19,-1
 648 280 l 2,20,21
 653 289 653 289 663 291.5 c 128,-1,22
 673 294 673 294 681 289 c 2,23,-1
 844 192 l 2,24,25
 853 187 853 187 855.5 177 c 128,-1,26
 858 167 858 167 853 158 c 2,27,-1
 720 -70 l 2,28,29
 715 -78 715 -78 705 -80 c 128,-1,30
 695 -82 695 -82 686 -77 c 2,31,-1
 522 23 l 2,16,17
142 -122 m 2,32,33
 134 -125 134 -125 126.5 -123.5 c 128,-1,34
 119 -122 119 -122 113.5 -117 c 128,-1,35
 108 -112 108 -112 106.5 -104.5 c 128,-1,36
 105 -97 105 -97 109 -89 c 2,37,-1
 632 993 l 1,38,-1
 783 1063 l 2,39,40
 799 1070 799 1070 810 1058 c 128,-1,41
 821 1046 821 1046 814 1030 c 2,42,-1
 287 -54 l 1,43,-1
 142 -122 l 2,32,33
EndSplineSet
EndChar
StartChar: uni0670
Encoding: 1648 1648 221
Width: 0
GlyphClass: 4
Flags: W
AnchorPoint: "Anchor-19" 0 0 mark 0
AnchorPoint: "Anchor-17" 0 0 mark 0
AnchorPoint: "Anchor-11" 0 0 mark 0
LayerCount: 2
Fore
SplineSet
69 -50 m 0,0,1
 62 -70 62 -70 51 -90 c 128,-1,2
 40 -110 40 -110 24 -127 c 1,3,4
 13 -141 13 -141 -5 -141 c 1,5,6
 -17 -137 -17 -137 -21 -132 c 128,-1,7
 -25 -127 -25 -127 -25 -117 c 0,8,9
 -25 -111 -25 -111 -23 -107 c 1,10,11
 -21 -90 -21 -90 -19.5 -73 c 128,-1,12
 -18 -56 -18 -56 -18 -42 c 2,13,-1
 -18 -27 l 1,14,15
 -21 33 -21 33 -38 80.5 c 128,-1,16
 -55 128 -55 128 -75 175 c 1,17,-1
 -75 174 l 1,18,-1
 -79 183 l 2,19,20
 -86 198 -86 198 -90.5 215 c 128,-1,21
 -95 232 -95 232 -99 252 c 1,22,23
 -93 269 -93 269 -84.5 287.5 c 128,-1,24
 -76 306 -76 306 -68 323 c 1,25,26
 -66 334 -66 334 -58.5 340 c 128,-1,27
 -51 346 -51 346 -41 348 c 0,28,29
 -36 348 -36 348 -30.5 347 c 128,-1,30
 -25 346 -25 346 -20 341 c 2,31,-1
 -13 333 l 1,32,33
 -1 298 -1 298 15 260 c 0,34,35
 27 233 27 233 38.5 205 c 128,-1,36
 50 177 50 177 59.5 147.5 c 128,-1,37
 69 118 69 118 75 88 c 128,-1,38
 81 58 81 58 82 28 c 1,39,40
 82 -12 82 -12 69 -50 c 0,0,1
EndSplineSet
EndChar
StartChar: uni0671
Encoding: 1649 1649 160
AltUni2: 00fb50.ffffffff.0
Width: 226
GlyphClass: 2
Flags: W
LayerCount: 2
Fore
SplineSet
-40 872 m 1,0,-1
 111 1108 l 1,1,2
 121 1121 121 1121 135.5 1126 c 128,-1,3
 150 1131 150 1131 163.5 1128 c 128,-1,4
 177 1125 177 1125 187 1115 c 128,-1,5
 197 1105 197 1105 199 1088 c 2,6,-1
 255 260 l 1,7,-1
 104 23 l 1,8,9
 94 10 94 10 79.5 5 c 128,-1,10
 65 0 65 0 51.5 3 c 128,-1,11
 38 6 38 6 27.5 16 c 128,-1,12
 17 26 17 26 16 43 c 2,13,-1
 -40 872 l 1,0,-1
243 1299 m 1,14,15
 234 1296 234 1296 227 1301.5 c 128,-1,16
 220 1307 220 1307 217 1315.5 c 128,-1,17
 214 1324 214 1324 216.5 1333 c 128,-1,18
 219 1342 219 1342 228 1345 c 1,19,-1
 230 1345 l 2,20,21
 231 1345 231 1345 231 1346 c 2,22,-1
 253 1304 l 1,23,-1
 243 1299 l 1,14,15
207 1301 m 1,24,25
 208 1299 208 1299 213 1295 c 1,26,27
 199 1303 199 1303 199 1316.5 c 128,-1,28
 199 1330 199 1330 213 1337 c 2,29,-1
 225 1343 l 2,30,31
 234 1347 234 1347 242 1344.5 c 128,-1,32
 250 1342 250 1342 254.5 1335.5 c 128,-1,33
 259 1329 259 1329 259.5 1320.5 c 128,-1,34
 260 1312 260 1312 253 1305 c 0,35,36
 250 1302 250 1302 248.5 1299 c 128,-1,37
 247 1296 247 1296 246 1295 c 2,38,-1
 253 1312 l 1,39,-1
 207 1301 l 1,24,25
195 1333 m 1,40,41
 205 1335 205 1335 207 1336 c 1,42,-1
 222 1294 l 2,43,44
 223 1294 223 1294 217 1291 c 1,45,-1
 218 1292 l 1,46,-1
 211 1288 l 1,47,-1
 195 1333 l 1,40,41
108 1312 m 1,48,49
 131 1317 131 1317 152.5 1321.5 c 128,-1,50
 174 1326 174 1326 193 1333 c 0,51,52
 202 1336 202 1336 209.5 1331.5 c 128,-1,53
 217 1327 217 1327 221 1319.5 c 128,-1,54
 225 1312 225 1312 223.5 1303.5 c 128,-1,55
 222 1295 222 1295 213 1289 c 0,56,57
 202 1281 202 1281 188.5 1268.5 c 128,-1,58
 175 1256 175 1256 161 1241 c 2,59,-1
 151 1231 l 2,60,61
 141 1222 141 1222 129.5 1223.5 c 128,-1,62
 118 1225 118 1225 112 1237 c 2,63,-1
 92 1276 l 1,64,-1
 108 1312 l 1,48,49
85 1214 m 1,65,66
 66 1216 66 1216 54 1227 c 128,-1,67
 42 1238 42 1238 40 1254 c 1,68,69
 38 1254 38 1254 38 1257 c 0,70,71
 38 1259 38 1259 40 1259 c 1,72,73
 40 1277 40 1277 54 1292 c 1,74,-1
 48 1277 l 1,75,76
 50 1277 50 1277 50 1279 c 1,77,-1
 67 1262 l 1,78,-1
 88 1262 l 1,79,-1
 85 1214 l 1,65,66
22 1336 m 0,80,81
 53 1336 53 1336 77 1319 c 1,82,83
 104 1351 104 1351 131 1377 c 128,-1,84
 158 1403 158 1403 181 1424 c 0,85,86
 205 1445 205 1445 251 1456 c 0,87,88
 261 1458 261 1458 265 1458.5 c 128,-1,89
 269 1459 269 1459 274 1459 c 0,90,91
 315 1459 315 1459 344 1427 c 0,92,93
 358 1411 358 1411 363.5 1396 c 128,-1,94
 369 1381 369 1381 369 1366 c 0,95,96
 369 1355 369 1355 366.5 1343.5 c 128,-1,97
 364 1332 364 1332 358 1321 c 0,98,99
 342 1291 342 1291 322 1263 c 1,100,-1
 323 1264 l 1,101,102
 297 1230 297 1230 258 1203.5 c 128,-1,103
 219 1177 219 1177 168 1157 c 0,104,105
 136 1144 136 1144 108.5 1136.5 c 128,-1,106
 81 1129 81 1129 63 1129 c 0,107,108
 55 1129 55 1129 48 1130 c 128,-1,109
 41 1131 41 1131 36 1133 c 1,110,-1
 38 1133 l 1,111,112
 20 1137 20 1137 6.5 1142.5 c 128,-1,113
 -7 1148 -7 1148 -18 1155 c 1,114,115
 -25 1150 -25 1150 -35.5 1141 c 128,-1,116
 -46 1132 -46 1132 -60 1118 c 2,117,-1
 -58 1120 l 1,118,119
 -66 1109 -66 1109 -83 1099 c 1,120,-1
 -80 1101 l 1,121,122
 -88 1094 -88 1094 -97 1093 c 128,-1,123
 -106 1092 -106 1092 -112 1092 c 0,124,125
 -132 1092 -132 1092 -147 1104.5 c 128,-1,126
 -162 1117 -162 1117 -162 1146 c 1,127,128
 -153 1184 -153 1184 -130 1221 c 128,-1,129
 -107 1258 -107 1258 -70 1293 c 0,130,131
 -24 1336 -24 1336 22 1336 c 0,80,81
EndSplineSet
MultipleSubs2: "'fina' Terminal Forms in Arabic lookup 2 subtable" _.notdef_3 _.notdef_316
MultipleSubs2: "'isol' Isolated Forms in Arabic lookup 0 subtable" _.notdef_2 _.notdef_316
EndChar
StartChar: afii57506
Encoding: 1662 1662 162
AltUni2: 00fb56.ffffffff.0
Width: 1439
GlyphClass: 2
Flags: W
LayerCount: 2
Fore
SplineSet
1269 439 m 1,0,1
 1204 302 1204 302 1020 188 c 0,2,3
 931 134 931 134 834 94.5 c 128,-1,4
 737 55 737 55 638 31 c 0,5,6
 578 17 578 17 520 9.5 c 128,-1,7
 462 2 462 2 408 2 c 0,8,9
 328 2 328 2 255 16 c 1,10,11
 163 36 163 36 99 85.5 c 128,-1,12
 35 135 35 135 5 219 c 0,13,14
 -15 276 -15 276 -15 337 c 0,15,16
 -15 379 -15 379 -4 424 c 128,-1,17
 7 469 7 469 27 517 c 1,18,19
 62 594 62 594 96.5 660.5 c 128,-1,20
 131 727 131 727 169 786 c 1,21,22
 190 814 190 814 215 814 c 0,23,24
 225 814 225 814 231 812 c 0,25,26
 260 799 260 799 260 770 c 0,27,28
 260 758 260 758 251 737 c 1,29,30
 173 591 173 591 173 499 c 0,31,32
 173 484 173 484 176 469 c 0,33,34
 191 377 191 377 269 335 c 256,35,36
 347 293 347 293 469 293 c 0,37,38
 473 293 473 293 478 294 c 0,39,40
 619 296 619 296 755 330 c 0,41,42
 824 347 824 347 890 370 c 128,-1,43
 956 393 956 393 1016 422 c 2,44,-1
 1125 475 l 1,45,46
 1123 508 1123 508 1108 564 c 1,47,48
 1097 599 1097 599 1087 632 c 128,-1,49
 1077 665 1077 665 1066 694 c 0,50,51
 1065 698 1065 698 1066 704.5 c 128,-1,52
 1067 711 1067 711 1069 715 c 2,53,-1
 1221 939 l 2,54,55
 1231 953 1231 953 1245.5 951 c 128,-1,56
 1260 949 1260 949 1265 933 c 2,57,-1
 1312 788 l 1,58,59
 1329 732 1329 732 1329 674 c 0,60,61
 1329 563 1329 563 1269 439 c 1,0,1
788 -261 m 1,62,63
 759 -322 759 -322 720 -379.5 c 128,-1,64
 681 -437 681 -437 639 -491 c 0,65,66
 632 -499 632 -499 625 -503.5 c 128,-1,67
 618 -508 618 -508 607 -508 c 0,68,69
 583 -508 583 -508 569 -473 c 1,70,71
 552 -434 552 -434 534 -410.5 c 128,-1,72
 516 -387 516 -387 499 -387 c 2,73,-1
 494 -387 l 1,74,75
 473 -390 473 -390 450 -404.5 c 128,-1,76
 427 -419 427 -419 406 -443 c 1,77,-1
 406 -442 l 1,78,79
 382 -469 382 -469 360 -501.5 c 128,-1,80
 338 -534 338 -534 318 -570 c 0,81,82
 297 -608 297 -608 282 -633.5 c 128,-1,83
 267 -659 267 -659 257 -673 c 0,84,85
 251 -680 251 -680 243.5 -682 c 128,-1,86
 236 -684 236 -684 229.5 -681.5 c 128,-1,87
 223 -679 223 -679 218 -673 c 128,-1,88
 213 -667 213 -667 213 -658 c 2,89,-1
 212 -572 l 1,90,-1
 214 -564 l 1,91,92
 227 -539 227 -539 247 -501.5 c 128,-1,93
 267 -464 267 -464 292 -420 c 0,94,95
 316 -379 316 -379 346 -335 c 128,-1,96
 376 -291 376 -291 407 -249 c 1,97,98
 438 -209 438 -209 472 -175.5 c 128,-1,99
 506 -142 506 -142 542 -116 c 0,100,101
 559 -104 559 -104 576.5 -98.5 c 128,-1,102
 594 -93 594 -93 611 -93 c 0,103,104
 661 -93 661 -93 713 -139 c 1,105,106
 757 -181 757 -181 787 -239 c 1,107,-1
 788 -261 l 1,62,63
EndSplineSet
MultipleSubs2: "'medi' Medial Forms in Arabic lookup 3 subtable" _.notdef_7 salasneqat_B
MultipleSubs2: "'fina' Terminal Forms in Arabic lookup 2 subtable" _.notdef_5 salasneqat_B
MultipleSubs2: "'init' Initial Forms in Arabic lookup 1 subtable" _.notdef_6 salasneqat_B
MultipleSubs2: "'isol' Isolated Forms in Arabic lookup 0 subtable" _.notdef_4 salasneqat_B
EndChar
StartChar: uni068E
Encoding: 1678 1678 178
AltUni2: 00fb86.ffffffff.0
Width: 752
GlyphClass: 2
Flags: W
LayerCount: 2
Fore
SplineSet
616 877 m 2,0,1
 625 890 625 890 638.5 889 c 128,-1,2
 652 888 652 888 659 874 c 1,3,-1
 682 819 l 1,4,5
 693 790 693 790 701.5 754 c 128,-1,6
 710 718 710 718 715 674 c 0,7,8
 716 662 716 662 716.5 649 c 128,-1,9
 717 636 717 636 717 623 c 0,10,11
 717 590 717 590 713 553.5 c 128,-1,12
 709 517 709 517 700 475 c 0,13,14
 676 362 676 362 582 250 c 1,15,16
 513 170 513 170 427 125 c 1,17,-1
 428 125 l 1,18,19
 356 87 356 87 224 54 c 0,20,21
 159 38 159 38 106.5 25 c 128,-1,22
 54 12 54 12 12 1 c 0,23,24
 -5 -4 -5 -4 -14 8.5 c 128,-1,25
 -23 21 -23 21 -15 36 c 2,26,-1
 132 300 l 2,27,28
 134 302 134 302 140 306.5 c 128,-1,29
 146 311 146 311 149 312 c 0,30,31
 194 320 194 320 244 331.5 c 128,-1,32
 294 343 294 343 349 358 c 0,33,34
 401 372 401 372 444 386 c 128,-1,35
 487 400 487 400 521 415 c 1,36,37
 519 432 519 432 514.5 454 c 128,-1,38
 510 476 510 476 503 502 c 1,39,40
 492 537 492 537 482 570 c 128,-1,41
 472 603 472 603 462 632 c 0,42,43
 460 636 460 636 461 642.5 c 128,-1,44
 462 649 462 649 464 653 c 2,45,-1
 616 877 l 2,0,1
764 1281 m 1,46,47
 735 1220 735 1220 696 1162.5 c 128,-1,48
 657 1105 657 1105 615 1051 c 1,49,50
 607 1043 607 1043 600.5 1038.5 c 128,-1,51
 594 1034 594 1034 583 1034 c 0,52,53
 558 1034 558 1034 545 1069 c 1,54,55
 527 1108 527 1108 509.5 1132 c 128,-1,56
 492 1156 492 1156 475 1156 c 2,57,-1
 470 1156 l 1,58,59
 449 1152 449 1152 426 1138 c 128,-1,60
 403 1124 403 1124 382 1099 c 1,61,62
 356 1071 356 1071 334.5 1039 c 128,-1,63
 313 1007 313 1007 293 972 c 0,64,65
 272 934 272 934 257.5 908.5 c 128,-1,66
 243 883 243 883 233 870 c 0,67,68
 227 862 227 862 219.5 860 c 128,-1,69
 212 858 212 858 205.5 860.5 c 128,-1,70
 199 863 199 863 194 869 c 128,-1,71
 189 875 189 875 189 884 c 2,72,-1
 188 970 l 1,73,-1
 190 978 l 1,74,75
 202 1003 202 1003 222 1040.5 c 128,-1,76
 242 1078 242 1078 268 1122 c 0,77,78
 292 1163 292 1163 322 1207 c 128,-1,79
 352 1251 352 1251 383 1293 c 1,80,81
 414 1333 414 1333 448 1366.5 c 128,-1,82
 482 1400 482 1400 518 1426 c 0,83,84
 535 1438 535 1438 552.5 1443.5 c 128,-1,85
 570 1449 570 1449 587 1449 c 0,86,87
 637 1449 637 1449 689 1403 c 1,88,89
 732 1361 732 1361 763 1304 c 1,90,-1
 764 1281 l 1,46,47
EndSplineSet
MultipleSubs2: "'fina' Terminal Forms in Arabic lookup 2 subtable" _.notdef_13 salasneqat_A
MultipleSubs2: "'isol' Isolated Forms in Arabic lookup 0 subtable" _.notdef_12 salasneqat_A
EndChar
StartChar: afii57513
Encoding: 1681 1681 184
AltUni2: 00fb8c.ffffffff.0
Width: 961
GlyphClass: 2
Flags: W
LayerCount: 2
Fore
SplineSet
920 563 m 1,0,1
 909 515 909 515 892 458.5 c 128,-1,2
 875 402 875 402 855 349 c 0,3,4
 833 293 833 293 809.5 250 c 128,-1,5
 786 207 786 207 761 178 c 0,6,7
 726 137 726 137 679.5 101.5 c 128,-1,8
 633 66 633 66 579 43 c 0,9,10
 531 23 531 23 468 11.5 c 128,-1,11
 405 0 405 0 336 0 c 2,12,-1
 317 0 l 1,13,14
 202 3 202 3 118 12 c 1,15,16
 18 21 18 21 -12 53 c 0,17,18
 -30 71 -30 71 -30 99 c 0,19,20
 -30 144 -30 144 35 182 c 1,21,22
 68 199 68 199 127.5 222 c 128,-1,23
 187 245 187 245 273 272 c 0,24,25
 385 308 385 308 494 349.5 c 128,-1,26
 603 391 603 391 690 447 c 1,27,-1
 690 446 l 1,28,29
 727 472 727 472 756 508 c 128,-1,30
 785 544 785 544 805 586 c 1,31,-1
 805 585 l 1,32,33
 813 606 813 606 830 616 c 128,-1,34
 847 626 847 626 870 626 c 1,35,36
 894 622 894 622 905 609.5 c 128,-1,37
 916 597 916 597 920 575 c 1,38,-1
 920 563 l 1,0,1
875 875 m 2,39,40
 866 871 866 871 858 875.5 c 128,-1,41
 850 880 850 880 846.5 888 c 128,-1,42
 843 896 843 896 844 904.5 c 128,-1,43
 845 913 845 913 854 918 c 2,44,-1
 862 922 l 2,45,46
 871 926 871 926 879 921.5 c 128,-1,47
 887 917 887 917 890.5 909 c 128,-1,48
 894 901 894 901 893 892 c 128,-1,49
 892 883 892 883 883 879 c 2,50,-1
 875 875 l 2,39,40
874 875 m 1,51,52
 881 878 881 878 882 884 c 1,53,54
 880 867 880 867 866 861.5 c 128,-1,55
 852 856 852 856 840 869 c 2,56,-1
 835 875 l 1,57,58
 822 887 822 887 827.5 901.5 c 128,-1,59
 833 916 833 916 850 917 c 0,60,61
 850 918 850 918 851 918 c 256,62,63
 852 918 852 918 853 919 c 2,64,-1
 864 921 l 1,65,-1
 874 875 l 1,51,52
802 900 m 1,66,67
 813 903 813 903 823.5 907 c 128,-1,68
 834 911 834 911 842 915 c 1,69,-1
 835 875 l 1,70,71
 838 872 838 872 845 872 c 1,72,73
 844 871 844 871 842 870.5 c 128,-1,74
 840 870 840 870 838 869 c 2,75,-1
 831 863 l 1,76,-1
 834 865 l 1,77,-1
 827 859 l 1,78,-1
 802 900 l 1,66,67
748 888 m 2,79,80
 762 891 762 891 776 893.5 c 128,-1,81
 790 896 790 896 804 900 c 0,82,83
 813 902 813 902 820.5 898 c 128,-1,84
 828 894 828 894 831.5 887 c 128,-1,85
 835 880 835 880 833.5 871.5 c 128,-1,86
 832 863 832 863 824 857 c 0,87,88
 813 849 813 849 800.5 837 c 128,-1,89
 788 825 788 825 776 812 c 2,90,-1
 766 801 l 1,91,92
 756 792 756 792 744.5 794 c 128,-1,93
 733 796 733 796 727 808 c 2,94,-1
 706 848 l 2,95,96
 700 860 700 860 705 870.5 c 128,-1,97
 710 881 710 881 722 883 c 2,98,-1
 748 888 l 2,79,80
951 853 m 1,99,-1
 951 852 l 1,100,101
 875 750 875 750 705 703 c 1,102,103
 662 693 662 693 623 693 c 2,104,-1
 612 693 l 1,105,106
 561 697 561 697 524 722 c 0,107,108
 507 734 507 734 488 747 c 128,-1,109
 469 760 469 760 451 771 c 1,110,111
 440 783 440 783 436.5 794 c 128,-1,112
 433 805 433 805 433 813 c 0,113,114
 433 838 433 838 448 850.5 c 128,-1,115
 463 863 463 863 489 863 c 1,116,117
 500 862 500 862 509 862 c 128,-1,118
 518 862 518 862 529 862 c 0,119,120
 544 862 544 862 561 862.5 c 128,-1,121
 578 863 578 863 595 865 c 0,122,123
 616 867 616 867 635.5 868.5 c 128,-1,124
 655 870 655 870 676 874 c 1,125,126
 710 912 710 912 742 945.5 c 128,-1,127
 774 979 774 979 805 1008 c 1,128,129
 834 1032 834 1032 880 1043 c 0,130,131
 885 1044 885 1044 891.5 1045 c 128,-1,132
 898 1046 898 1046 904 1046 c 0,133,134
 928 1046 928 1046 947 1036 c 128,-1,135
 966 1026 966 1026 980 1009 c 1,136,-1
 980 1010 l 1,137,138
 991 996 991 996 998 981.5 c 128,-1,139
 1005 967 1005 967 1005 950 c 0,140,141
 1005 919 1005 919 986 900 c 1,142,-1
 987 902 l 1,143,-1
 951 853 l 1,99,-1
655 1107 m 1,144,-1
 717 1209 l 2,145,146
 726 1224 726 1224 741 1228.5 c 128,-1,147
 756 1233 756 1233 770 1229.5 c 128,-1,148
 784 1226 784 1226 794 1215 c 128,-1,149
 804 1204 804 1204 805 1186 c 2,150,-1
 820 933 l 1,151,-1
 757 832 l 2,152,153
 748 818 748 818 734 813.5 c 128,-1,154
 720 809 720 809 706 812 c 128,-1,155
 692 815 692 815 681.5 825.5 c 128,-1,156
 671 836 671 836 670 853 c 2,157,-1
 655 1107 l 1,144,-1
EndSplineSet
MultipleSubs2: "'fina' Terminal Forms in Arabic lookup 2 subtable" _.notdef_15 _.notdef_315
MultipleSubs2: "'isol' Isolated Forms in Arabic lookup 0 subtable" _.notdef_14 _.notdef_315
EndChar
StartChar: afii57508
Encoding: 1688 1688 182
AltUni2: 00fb8a.ffffffff.0
Width: 961
GlyphClass: 2
Flags: W
LayerCount: 2
Fore
SplineSet
918 558 m 1,0,1
 898 460 898 460 853 345 c 0,2,3
 810 234 810 234 761 175 c 0,4,5
 726 134 726 134 680 99.5 c 128,-1,6
 634 65 634 65 583 43 c 1,7,8
 534 23 534 23 471 11.5 c 128,-1,9
 408 0 408 0 339 0 c 2,10,-1
 320 0 l 1,11,12
 202 3 202 3 117 12 c 0,13,14
 24 22 24 22 -3 48 c 0,15,16
 -14 59 -14 59 -14 77 c 0,17,18
 -14 110 -14 110 42 142 c 0,19,20
 72 159 72 159 132 181.5 c 128,-1,21
 192 204 192 204 283 233 c 1,22,-1
 282 233 l 1,23,24
 340 251 340 251 398.5 271 c 128,-1,25
 457 291 457 291 513 313.5 c 128,-1,26
 569 336 569 336 621 361.5 c 128,-1,27
 673 387 673 387 719 417 c 1,28,29
 761 446 761 446 793.5 485.5 c 128,-1,30
 826 525 826 525 847 572 c 1,31,-1
 847 571 l 1,32,33
 857 598 857 598 888 598 c 1,34,35
 902 596 902 596 909 588 c 128,-1,36
 916 580 916 580 918 566 c 1,37,-1
 918 558 l 1,0,1
1036 1098 m 1,38,39
 1007 1037 1007 1037 968 979.5 c 128,-1,40
 929 922 929 922 887 868 c 0,41,42
 879 859 879 859 872.5 854.5 c 128,-1,43
 866 850 866 850 855 850 c 0,44,45
 843 850 843 850 833 859.5 c 128,-1,46
 823 869 823 869 817 885 c 1,47,48
 799 924 799 924 781.5 948 c 128,-1,49
 764 972 764 972 747 972 c 2,50,-1
 742 972 l 1,51,52
 721 968 721 968 698 954 c 128,-1,53
 675 940 675 940 654 915 c 1,54,55
 628 887 628 887 606.5 855.5 c 128,-1,56
 585 824 585 824 565 789 c 0,57,58
 544 751 544 751 529.5 725 c 128,-1,59
 515 699 515 699 504 686 c 0,60,61
 499 679 499 679 491.5 677 c 128,-1,62
 484 675 484 675 477 677 c 128,-1,63
 470 679 470 679 465.5 685.5 c 128,-1,64
 461 692 461 692 461 701 c 2,65,-1
 460 787 l 1,66,-1
 462 794 l 1,67,68
 474 819 474 819 494 856.5 c 128,-1,69
 514 894 514 894 540 938 c 0,70,71
 564 979 564 979 594 1023 c 128,-1,72
 624 1067 624 1067 655 1109 c 1,73,74
 686 1149 686 1149 720 1183 c 128,-1,75
 754 1217 754 1217 790 1243 c 1,76,77
 825 1266 825 1266 859 1266 c 0,78,79
 885 1266 885 1266 910 1254 c 128,-1,80
 935 1242 935 1242 961 1219 c 1,81,82
 982 1199 982 1199 1000.5 1174.5 c 128,-1,83
 1019 1150 1019 1150 1035 1120 c 1,84,-1
 1036 1098 l 1,38,39
EndSplineSet
MultipleSubs2: "'fina' Terminal Forms in Arabic lookup 2 subtable" _.notdef_15 salasneqat_A
MultipleSubs2: "'isol' Isolated Forms in Arabic lookup 0 subtable" _.notdef_14 salasneqat_A
EndChar
StartChar: afii57514
Encoding: 1722 1722 80
Width: 950
GlyphClass: 2
Flags: W
LayerCount: 2
Fore
SplineSet
723 262 m 0,0,1
 609 97 609 97 433 33 c 0,2,3
 343 1 343 1 264 1 c 0,4,5
 226 1 226 1 191 9.5 c 128,-1,6
 156 18 156 18 123 32 c 1,7,8
 56 64 56 64 17 136.5 c 128,-1,9
 -22 209 -22 209 -33 309 c 0,10,11
 -34 316 -34 316 -34 326 c 128,-1,12
 -34 336 -34 336 -34 343 c 0,13,14
 -34 438 -34 438 11 568.5 c 128,-1,15
 56 699 56 699 140 853 c 0,16,17
 152 874 152 874 166 884.5 c 128,-1,18
 180 895 180 895 200 895 c 0,19,20
 204 895 204 895 210 894.5 c 128,-1,21
 216 894 216 894 228 889 c 1,22,23
 258 871 258 871 258 835 c 0,24,25
 258 826 258 826 255.5 813.5 c 128,-1,26
 253 801 253 801 245 781 c 1,27,28
 236 763 236 763 227 745 c 128,-1,29
 218 727 218 727 205 703 c 1,30,-1
 188 668 l 2,31,32
 172 636 172 636 159.5 605 c 128,-1,33
 147 574 147 574 140 542 c 0,34,35
 132 510 132 510 132 480 c 0,36,37
 132 456 132 456 137 436 c 0,38,39
 142 419 142 419 156 404 c 128,-1,40
 170 389 170 389 196 378 c 1,41,42
 224 373 224 373 251 370.5 c 128,-1,43
 278 368 278 368 300 368 c 0,44,45
 394 368 394 368 472 399 c 0,46,47
 532 422 532 422 581.5 449.5 c 128,-1,48
 631 477 631 477 671 512 c 1,49,50
 671 547 671 547 668 575.5 c 128,-1,51
 665 604 665 604 660 629 c 1,52,53
 652 662 652 662 640 703 c 128,-1,54
 628 744 628 744 619 775 c 1,55,-1
 731 1029 l 1,56,-1
 731 1028 l 1,57,58
 737 1043 737 1043 749 1051 c 128,-1,59
 761 1059 761 1059 774 1059 c 128,-1,60
 787 1059 787 1059 799.5 1052 c 128,-1,61
 812 1045 812 1045 818 1030 c 1,62,-1
 818 1031 l 1,63,64
 850 962 850 962 866.5 892.5 c 128,-1,65
 883 823 883 823 883 749 c 0,66,67
 883 716 883 716 880 687 c 128,-1,68
 877 658 877 658 872 630 c 1,69,-1
 872 631 l 1,70,71
 853 528 853 528 816.5 436 c 128,-1,72
 780 344 780 344 723 262 c 0,0,1
EndSplineSet
MultipleSubs2: "'fina' Terminal Forms in Arabic lookup 2 subtable" _.notdef_66
MultipleSubs2: "'isol' Isolated Forms in Arabic lookup 0 subtable" _.notdef_65
EndChar
StartChar: uni06BB
Encoding: 1723 1723 196
Width: 950
GlyphClass: 2
Flags: W
LayerCount: 2
Fore
SplineSet
723 262 m 0,0,1
 609 97 609 97 433 33 c 0,2,3
 343 1 343 1 264 1 c 0,4,5
 226 1 226 1 191 9.5 c 128,-1,6
 156 18 156 18 123 32 c 1,7,8
 56 64 56 64 17 136.5 c 128,-1,9
 -22 209 -22 209 -33 309 c 0,10,11
 -34 316 -34 316 -34 326 c 128,-1,12
 -34 336 -34 336 -34 343 c 0,13,14
 -34 438 -34 438 11 568.5 c 128,-1,15
 56 699 56 699 140 853 c 0,16,17
 152 874 152 874 166 884.5 c 128,-1,18
 180 895 180 895 200 895 c 0,19,20
 204 895 204 895 210 894.5 c 128,-1,21
 216 894 216 894 228 889 c 1,22,23
 258 871 258 871 258 835 c 0,24,25
 258 826 258 826 255.5 813.5 c 128,-1,26
 253 801 253 801 245 781 c 1,27,28
 236 763 236 763 227 745 c 128,-1,29
 218 727 218 727 205 703 c 1,30,-1
 188 668 l 2,31,32
 172 636 172 636 159.5 605 c 128,-1,33
 147 574 147 574 140 542 c 0,34,35
 132 510 132 510 132 480 c 0,36,37
 132 456 132 456 137 436 c 0,38,39
 142 419 142 419 156 404 c 128,-1,40
 170 389 170 389 196 378 c 1,41,42
 224 373 224 373 251 370.5 c 128,-1,43
 278 368 278 368 300 368 c 0,44,45
 394 368 394 368 472 399 c 0,46,47
 532 422 532 422 581.5 449.5 c 128,-1,48
 631 477 631 477 671 512 c 1,49,50
 671 547 671 547 668 575.5 c 128,-1,51
 665 604 665 604 660 629 c 1,52,53
 652 662 652 662 640 703 c 128,-1,54
 628 744 628 744 619 775 c 1,55,-1
 731 1029 l 1,56,-1
 731 1028 l 1,57,58
 737 1043 737 1043 749 1051 c 128,-1,59
 761 1059 761 1059 774 1059 c 128,-1,60
 787 1059 787 1059 799.5 1052 c 128,-1,61
 812 1045 812 1045 818 1030 c 1,62,-1
 818 1031 l 1,63,64
 850 962 850 962 866.5 892.5 c 128,-1,65
 883 823 883 823 883 749 c 0,66,67
 883 716 883 716 880 687 c 128,-1,68
 877 658 877 658 872 630 c 1,69,-1
 872 631 l 1,70,71
 853 528 853 528 816.5 436 c 128,-1,72
 780 344 780 344 723 262 c 0,0,1
614 1091 m 2,73,74
 605 1086 605 1086 597 1090.5 c 128,-1,75
 589 1095 589 1095 585.5 1103 c 128,-1,76
 582 1111 582 1111 583 1120 c 128,-1,77
 584 1129 584 1129 593 1133 c 2,78,-1
 601 1137 l 2,79,80
 610 1141 610 1141 618 1137 c 128,-1,81
 626 1133 626 1133 629.5 1125 c 128,-1,82
 633 1117 633 1117 632 1108 c 128,-1,83
 631 1099 631 1099 622 1095 c 2,84,-1
 614 1091 l 2,73,74
617 1093 m 1,85,86
 619 1094 619 1094 621 1098 c 1,87,88
 620 1089 620 1089 614 1084 c 128,-1,89
 608 1079 608 1079 601 1077.5 c 128,-1,90
 594 1076 594 1076 586.5 1079 c 128,-1,91
 579 1082 579 1082 575 1090 c 2,92,-1
 571 1097 l 2,93,94
 566 1107 566 1107 569.5 1117 c 128,-1,95
 573 1127 573 1127 584 1131 c 2,96,-1
 595 1135 l 1,97,-1
 617 1093 l 1,85,86
542 1114 m 1,98,99
 550 1116 550 1116 558 1119.5 c 128,-1,100
 566 1123 566 1123 574 1127 c 1,101,-1
 574 1126 l 1,102,-1
 581 1129 l 1,103,-1
 574 1090 l 1,104,105
 578 1086 578 1086 584 1086 c 1,106,107
 583 1085 583 1085 581 1084.5 c 128,-1,108
 579 1084 579 1084 577 1083 c 2,109,-1
 580 1084 l 1,110,-1
 571 1076 l 1,111,-1
 562 1071 l 1,112,-1
 542 1114 l 1,98,99
487 1103 m 2,113,114
 501 1105 501 1105 515 1107.5 c 128,-1,115
 529 1110 529 1110 543 1114 c 0,116,117
 552 1117 552 1117 559.5 1112.5 c 128,-1,118
 567 1108 567 1108 570.5 1101 c 128,-1,119
 574 1094 574 1094 572.5 1086 c 128,-1,120
 571 1078 571 1078 563 1072 c 0,121,122
 539 1055 539 1055 515 1026 c 1,123,-1
 505 1017 l 2,124,125
 495 1007 495 1007 483.5 1009 c 128,-1,126
 472 1011 472 1011 466 1022 c 2,127,-1
 445 1062 l 1,128,129
 438 1073 438 1073 443 1084.5 c 128,-1,130
 448 1096 448 1096 461 1098 c 2,131,-1
 487 1103 l 2,113,114
691 1069 m 1,132,-1
 691 1067 l 1,133,134
 652 1014 652 1014 590.5 977.5 c 128,-1,135
 529 941 529 941 444 918 c 0,136,137
 421 912 421 912 401 909.5 c 128,-1,138
 381 907 381 907 362 907 c 2,139,-1
 351 907 l 1,140,141
 325 909 325 909 302.5 917 c 128,-1,142
 280 925 280 925 262 936 c 1,143,144
 241 953 241 953 223 965 c 128,-1,145
 205 977 205 977 188 988 c 1,146,147
 179 996 179 996 175.5 1007 c 128,-1,148
 172 1018 172 1018 172 1027 c 0,149,150
 172 1077 172 1077 229 1077 c 1,151,152
 239 1076 239 1076 248.5 1076 c 128,-1,153
 258 1076 258 1076 268 1076 c 0,154,155
 283 1076 283 1076 300.5 1076.5 c 128,-1,156
 318 1077 318 1077 334 1079 c 0,157,158
 360 1081 360 1081 376.5 1083 c 128,-1,159
 393 1085 393 1085 416 1089 c 1,160,161
 449 1127 449 1127 481.5 1160.5 c 128,-1,162
 514 1194 514 1194 545 1222 c 0,163,164
 559 1235 559 1235 578.5 1244 c 128,-1,165
 598 1253 598 1253 619 1258 c 0,166,167
 629 1260 629 1260 644 1260 c 0,168,169
 692 1260 692 1260 720 1223 c 0,170,171
 731 1210 731 1210 737.5 1195.5 c 128,-1,172
 744 1181 744 1181 744 1164 c 0,173,174
 744 1149 744 1149 739 1137.5 c 128,-1,175
 734 1126 734 1126 726 1115 c 1,176,-1
 726 1116 l 1,177,-1
 691 1069 l 1,132,-1
394 1322 m 1,178,-1
 457 1423 l 2,179,180
 466 1436 466 1436 480.5 1441 c 128,-1,181
 495 1446 495 1446 509 1443 c 128,-1,182
 523 1440 523 1440 533 1429 c 128,-1,183
 543 1418 543 1418 544 1400 c 2,184,-1
 560 1148 l 1,185,-1
 497 1047 l 1,186,187
 487 1034 487 1034 472.5 1029.5 c 128,-1,188
 458 1025 458 1025 444.5 1027.5 c 128,-1,189
 431 1030 431 1030 420.5 1040.5 c 128,-1,190
 410 1051 410 1051 409 1068 c 2,191,-1
 394 1322 l 1,178,-1
EndSplineSet
MultipleSubs2: "'fina' Terminal Forms in Arabic lookup 2 subtable" _.notdef_66 _.notdef_315
MultipleSubs2: "'isol' Isolated Forms in Arabic lookup 0 subtable" _.notdef_65 _.notdef_315
EndChar
StartChar: uni06BE
Encoding: 1726 1726 204
AltUni2: 00fbaa.ffffffff.0
Width: 1518
GlyphClass: 2
Flags: W
LayerCount: 2
Fore
SplineSet
632 272 m 1,0,1
 680 387 680 387 740 486.5 c 128,-1,2
 800 586 800 586 866 665 c 1,3,4
 931 741 931 741 987 741 c 0,5,6
 1040 741 1040 741 1074 680 c 1,7,-1
 1074 681 l 1,8,9
 1113 615 1113 615 1113 550 c 0,10,11
 1113 507 1113 507 1092 467 c 0,12,13
 1081 446 1081 446 1074 430.5 c 128,-1,14
 1067 415 1067 415 1060 400 c 128,-1,15
 1053 385 1053 385 1044 367.5 c 128,-1,16
 1035 350 1035 350 1022 325 c 1,17,18
 1123 350 1123 350 1199 394 c 1,19,20
 1200 408 1200 408 1200 420 c 128,-1,21
 1200 432 1200 432 1200 445 c 0,22,23
 1200 679 1200 679 1120 846 c 1,24,-1
 1120 845 l 1,25,26
 1109 867 1109 867 1081 885 c 1,27,-1
 1082 884 l 1,28,29
 1068 892 1068 892 1058 892 c 0,30,31
 1043 892 1043 892 1030 885 c 0,32,33
 968 853 968 853 933 802 c 1,34,-1
 934 802 l 1,35,36
 913 771 913 771 891.5 744 c 128,-1,37
 870 717 870 717 847 691 c 1,38,-1
 847 692 l 1,39,40
 832 674 832 674 797 673 c 1,41,42
 756 673 756 673 756 705 c 0,43,44
 756 708 756 708 756.5 712.5 c 128,-1,45
 757 717 757 717 759 721 c 0,46,47
 775 770 775 770 805 811.5 c 128,-1,48
 835 853 835 853 865 892 c 2,49,-1
 900 938 l 2,50,51
 924 971 924 971 954.5 1003.5 c 128,-1,52
 985 1036 985 1036 1019 1068 c 1,53,54
 1055 1100 1055 1100 1091.5 1123.5 c 128,-1,55
 1128 1147 1128 1147 1162 1159 c 0,56,57
 1175 1163 1175 1163 1190 1165.5 c 128,-1,58
 1205 1168 1205 1168 1218 1168 c 0,59,60
 1241 1168 1241 1168 1263 1161.5 c 128,-1,61
 1285 1155 1285 1155 1305 1141 c 0,62,63
 1369 1098 1369 1098 1392 955 c 2,64,-1
 1420 780 l 2,65,66
 1429 730 1429 730 1429 675 c 0,67,68
 1429 658 1429 658 1428 641 c 128,-1,69
 1427 624 1427 624 1425 609 c 0,70,71
 1417 552 1417 552 1390.5 484.5 c 128,-1,72
 1364 417 1364 417 1320 350 c 0,73,74
 1277 285 1277 285 1229.5 230 c 128,-1,75
 1182 175 1182 175 1138 140 c 1,76,77
 1053 75 1053 75 946 41.5 c 128,-1,78
 839 8 839 8 711 8 c 2,79,-1
 677 8 l 2,80,81
 625 8 625 8 583.5 6.5 c 128,-1,82
 542 5 542 5 510 1 c 1,83,-1
 511 1 l 1,84,85
 506 0 506 0 501.5 -0.5 c 128,-1,86
 497 -1 497 -1 489 -1 c 0,87,88
 415 -1 415 -1 290 54 c 0,89,90
 224 83 224 83 153.5 115.5 c 128,-1,91
 83 148 83 148 17 177 c 1,92,93
 -15 193 -15 193 -15 215 c 0,94,95
 -15 229 -15 229 -7.5 236.5 c 128,-1,96
 0 244 0 244 14 249 c 1,97,-1
 632 272 l 1,0,1
792 328 m 2,98,99
 793 328 793 328 794 328.5 c 128,-1,100
 795 329 795 329 796 329 c 1,101,102
 796 328 796 328 796 328 c 1,103,-1
 792 328 l 2,98,99
792 328 m 1,104,105
 787 328 787 328 785 326 c 1,106,107
 786 326 786 326 792 328 c 1,104,105
905 374 m 2,108,109
 903 378 903 378 903 379 c 2,110,-1
 918 390 l 1,111,-1
 912 360 l 1,112,-1
 905 374 l 2,108,109
796 329 m 1,113,114
 860 348 860 348 903 379 c 1,115,116
 884 433 884 433 861 433 c 0,117,118
 858 433 858 433 858.5 433 c 128,-1,119
 859 433 859 433 855 432 c 0,120,121
 835 424 835 424 817.5 405 c 128,-1,122
 800 386 800 386 786 355 c 0,123,124
 785 353 785 353 785 348 c 256,125,126
 785 343 785 343 791 336 c 0,127,128
 796 329 796 329 796 329 c 1,113,114
EndSplineSet
MultipleSubs2: "'medi' Medial Forms in Arabic lookup 3 subtable" __.notdef_55
MultipleSubs2: "'fina' Terminal Forms in Arabic lookup 2 subtable" _.notdef_70
MultipleSubs2: "'init' Initial Forms in Arabic lookup 1 subtable" __.notdef_54
MultipleSubs2: "'isol' Isolated Forms in Arabic lookup 0 subtable" _.notdef_69
EndChar
StartChar: uni06C1
Encoding: 1729 1729 201
AltUni2: 00fba7.ffffffff.0
Width: 362
GlyphClass: 2
Flags: W
LayerCount: 2
Fore
SplineSet
532 49 m 1,0,-1
 532 50 l 1,1,2
 530 38 530 38 517.5 27 c 128,-1,3
 505 16 505 16 495 14 c 0,4,5
 447 7 447 7 405 3 c 128,-1,6
 363 -1 363 -1 328 -1 c 0,7,8
 287 -1 287 -1 262 4 c 0,9,10
 242 8 242 8 222.5 11.5 c 128,-1,11
 203 15 203 15 185 20 c 1,12,-1
 158 -42 l 1,13,-1
 108 -160 l 1,14,-1
 36 -209 l 1,15,-1
 36 -208 l 1,16,17
 21 -218 21 -218 6.5 -216.5 c 128,-1,18
 -8 -215 -8 -215 -19 -206 c 128,-1,19
 -30 -197 -30 -197 -35 -182.5 c 128,-1,20
 -40 -168 -40 -168 -34 -152 c 2,21,-1
 140 301 l 1,22,23
 167 367 167 367 223 367 c 2,24,-1
 236 367 l 1,25,26
 250 365 250 365 268.5 361 c 128,-1,27
 287 357 287 357 307 353 c 1,28,-1
 307 354 l 1,29,30
 323 351 323 351 347.5 349 c 128,-1,31
 372 347 372 347 408 346 c 0,32,33
 409 345 409 345 411 345 c 2,34,-1
 412 345 l 2,35,36
 468 345 468 345 551 357 c 1,37,-1
 550 357 l 1,38,39
 579 361 579 361 594.5 341.5 c 128,-1,40
 610 322 610 322 602 296 c 2,41,-1
 532 49 l 1,0,-1
EndSplineSet
MultipleSubs2: "'medi' Medial Forms in Arabic lookup 3 subtable" __.notdef_56
MultipleSubs2: "'fina' Terminal Forms in Arabic lookup 2 subtable" _.notdef_67
MultipleSubs2: "'init' Initial Forms in Arabic lookup 1 subtable" _.notdef_68
MultipleSubs2: "'isol' Isolated Forms in Arabic lookup 0 subtable" __.notdef_52
EndChar
StartChar: afii57519
Encoding: 1746 1746 85
Width: 2101
GlyphClass: 2
Flags: W
LayerCount: 2
Fore
SplineSet
694 871 m 1,0,1
 715 901 715 901 734.5 932 c 128,-1,2
 754 963 754 963 775 996 c 0,3,4
 799 1035 799 1035 821.5 1066 c 128,-1,5
 844 1097 844 1097 864 1117 c 0,6,7
 894 1147 894 1147 925 1157.5 c 128,-1,8
 956 1168 956 1168 989 1160 c 1,9,10
 1053 1141 1053 1141 1093 1032 c 1,11,12
 1100 1009 1100 1009 1102.5 988 c 128,-1,13
 1105 967 1105 967 1105 947 c 0,14,15
 1105 900 1105 900 1096 849 c 0,16,17
 1088 807 1088 807 1079 766 c 128,-1,18
 1070 725 1070 725 1061 698 c 1,19,20
 1049 666 1049 666 1030.5 647 c 128,-1,21
 1012 628 1012 628 996 628 c 0,22,23
 943 628 943 628 943 713 c 1,24,25
 946 746 946 746 946 772 c 0,26,27
 946 819 946 819 940 846 c 0,28,29
 934 872 934 872 933 872 c 0,30,31
 922 872 922 872 909 862 c 128,-1,32
 896 852 896 852 882 837 c 2,33,-1
 883 838 l 1,34,35
 862 813 862 813 841.5 785.5 c 128,-1,36
 821 758 821 758 800 729 c 1,37,-1
 801 729 l 1,38,39
 779 697 779 697 756.5 666 c 128,-1,40
 734 635 734 635 712 606 c 1,41,42
 686 574 686 574 659.5 550.5 c 128,-1,43
 633 527 633 527 604 515 c 0,44,45
 559 497 559 497 505.5 476 c 128,-1,46
 452 455 452 455 407 438 c 0,47,48
 377 427 377 427 351 412 c 128,-1,49
 325 397 325 397 301 377 c 1,50,51
 312 374 312 374 325 371.5 c 128,-1,52
 338 369 338 369 352 367 c 0,53,54
 356 366 356 366 361 365 c 256,55,56
 366 364 366 364 372.5 363.5 c 128,-1,57
 379 363 379 363 388 361 c 0,58,59
 393 360 393 360 398.5 359.5 c 128,-1,60
 404 359 404 359 407 359 c 0,61,62
 416 358 416 358 421 357.5 c 128,-1,63
 426 357 426 357 428 357 c 0,64,65
 436 355 436 355 442 355 c 0,66,67
 559 344 559 344 660 339 c 128,-1,68
 761 334 761 334 847 333 c 1,69,70
 1025 333 1025 333 1192 339 c 1,71,-1
 1537 348 l 2,72,73
 1560 349 1560 349 1593 349 c 128,-1,74
 1626 349 1626 349 1649 349 c 0,75,76
 1717 349 1717 349 1793.5 347.5 c 128,-1,77
 1870 346 1870 346 1952 341 c 0,78,79
 1972 340 1972 340 1983.5 325.5 c 128,-1,80
 1995 311 1995 311 1995 294 c 0,81,82
 1995 276 1995 276 1984 261 c 128,-1,83
 1973 246 1973 246 1950 246 c 1,84,85
 1952 246 1952 246 1937 239 c 128,-1,86
 1922 232 1922 232 1893 217 c 0,87,88
 1858 200 1858 200 1814 180 c 128,-1,89
 1770 160 1770 160 1719 139 c 256,90,91
 1668 118 1668 118 1611 96.5 c 128,-1,92
 1554 75 1554 75 1503 59 c 0,93,94
 1447 42 1447 42 1391.5 30 c 128,-1,95
 1336 18 1336 18 1291 16 c 0,96,97
 1175 10 1175 10 1073.5 6 c 128,-1,98
 972 2 972 2 895 1 c 1,99,-1
 812 1 l 2,100,101
 678 1 678 1 501 4 c 0,102,103
 484 4 484 4 462.5 4.5 c 128,-1,104
 441 5 441 5 419 6 c 128,-1,105
 397 7 397 7 376.5 8 c 128,-1,106
 356 9 356 9 342 10 c 0,107,108
 276 14 276 14 224.5 24.5 c 128,-1,109
 173 35 173 35 134 51 c 0,110,111
 114 60 114 60 97 72 c 128,-1,112
 80 84 80 84 66 102 c 1,113,114
 52 117 52 117 47 134.5 c 128,-1,115
 42 152 42 152 42 173 c 0,116,117
 42 182 42 182 43 191.5 c 128,-1,118
 44 201 44 201 46 211 c 1,119,-1
 46 210 l 1,120,121
 95 394 95 394 167 504 c 1,122,123
 204 563 204 563 265.5 610.5 c 128,-1,124
 327 658 327 658 403 695 c 1,125,-1
 403 694 l 1,126,-1
 421 703 l 1,127,128
 468 723 468 723 507.5 739.5 c 128,-1,129
 547 756 547 756 575 767 c 0,130,131
 627 789 627 789 691 868 c 1,132,-1
 694 871 l 1,0,1
EndSplineSet
MultipleSubs2: "'fina' Terminal Forms in Arabic lookup 2 subtable" _.notdef_72
MultipleSubs2: "'isol' Isolated Forms in Arabic lookup 0 subtable" _.notdef_71
EndChar
StartChar: uni06D3
Encoding: 1747 1747 210
AltUni2: 00fbb0.ffffffff.0
Width: 2474
GlyphClass: 2
Flags: W
LayerCount: 2
Fore
SplineSet
661 854 m 1,0,1
 685 888 685 888 707 921.5 c 128,-1,2
 729 955 729 955 751 990 c 0,3,4
 798 1068 798 1068 840 1110 c 0,5,6
 881 1151 881 1151 923 1151 c 0,7,8
 927 1151 927 1151 932.5 1150 c 128,-1,9
 938 1149 938 1149 944 1148 c 0,10,11
 970 1141 970 1141 992.5 1113 c 128,-1,12
 1015 1085 1015 1085 1034 1032 c 1,13,14
 1040 1010 1040 1010 1042.5 990.5 c 128,-1,15
 1045 971 1045 971 1045 952 c 0,16,17
 1045 907 1045 907 1036 855 c 0,18,19
 1028 807 1028 807 1019 768 c 128,-1,20
 1010 729 1010 729 1002 703 c 1,21,22
 992 677 992 677 980.5 662 c 128,-1,23
 969 647 969 647 958 647 c 0,24,25
 928 647 928 647 928 709 c 1,26,27
 930 727 930 727 931 743.5 c 128,-1,28
 932 760 932 760 932 774 c 0,29,30
 932 795 932 795 930 815 c 128,-1,31
 928 835 928 835 924 855 c 1,32,-1
 925 855 l 1,33,34
 916 899 916 899 892 899 c 0,35,36
 860 899 860 899 822 855 c 1,37,-1
 822 856 l 1,38,39
 802 832 802 832 780.5 803.5 c 128,-1,40
 759 775 759 775 736 741 c 1,41,42
 713 709 713 709 690.5 677 c 128,-1,43
 668 645 668 645 645 615 c 0,44,45
 595 550 595 550 544 529 c 0,46,47
 493 509 493 509 441.5 489 c 128,-1,48
 390 469 390 469 339 449 c 0,49,50
 299 433 299 433 261 410 c 128,-1,51
 223 387 223 387 192 355 c 1,52,53
 229 338 229 338 278.5 329 c 128,-1,54
 328 320 328 320 375 315 c 0,55,56
 494 304 494 304 621 299 c 128,-1,57
 748 294 748 294 875 294 c 0,58,59
 898 294 898 294 919.5 294 c 128,-1,60
 941 294 941 294 964 295 c 0,61,62
 1119 297 1119 297 1268.5 299.5 c 128,-1,63
 1418 302 1418 302 1566 307 c 1,64,-1
 1712 313 l 2,65,66
 1768 316 1768 316 1829.5 318.5 c 128,-1,67
 1891 321 1891 321 1953 323 c 0,68,69
 2064 326 2064 326 2157 326 c 2,70,-1
 2183 326 l 1,71,72
 2299 324 2299 324 2315 308 c 0,73,74
 2321 303 2321 303 2321.5 293 c 128,-1,75
 2322 283 2322 283 2317 276 c 0,76,77
 2284 230 2284 230 2244.5 179 c 128,-1,78
 2205 128 2205 128 2159 71 c 0,79,80
 2157 68 2157 68 2151.5 65 c 128,-1,81
 2146 62 2146 62 2142 62 c 2,82,-1
 1427 25 l 1,83,-1
 1428 25 l 1,84,85
 1033 1 1033 1 624 1 c 0,86,87
 577 1 577 1 531 1 c 128,-1,88
 485 1 485 1 438 2 c 0,89,90
 393 3 393 3 342.5 4.5 c 128,-1,91
 292 6 292 6 247 10 c 1,92,93
 198 13 198 13 155.5 23 c 128,-1,94
 113 33 113 33 75 49 c 1,95,-1
 76 49 l 1,96,97
 59 57 59 57 44 67.5 c 128,-1,98
 29 78 29 78 16 94 c 0,99,100
 -4 117 -4 117 -4 153 c 0,101,102
 -4 167 -4 167 0 183 c 0,103,104
 46 367 46 367 121 480 c 0,105,106
 159 537 159 537 219 584.5 c 128,-1,107
 279 632 279 632 355 668 c 1,108,109
 411 693 411 693 455 712 c 128,-1,110
 499 731 499 731 531 743 c 1,111,112
 560 755 560 755 592.5 782.5 c 128,-1,113
 625 810 625 810 661 855 c 1,114,-1
 661 854 l 1,0,1
807 1319 m 1,115,116
 787 1314 787 1314 771 1308 c 128,-1,117
 755 1302 755 1302 742 1294 c 1,118,119
 761 1275 761 1275 795 1273 c 0,120,121
 844 1269 844 1269 844 1224 c 0,122,123
 844 1190 844 1190 804 1137 c 1,124,-1
 790 1116 l 1,125,-1
 791 1117 l 1,126,127
 767 1082 767 1082 740 1050 c 128,-1,128
 713 1018 713 1018 675 998 c 1,129,-1
 676 998 l 1,130,131
 647 981 647 981 592 978 c 0,132,133
 582 977 582 977 571.5 976.5 c 128,-1,134
 561 976 561 976 553 976 c 0,135,136
 542 976 542 976 533 976.5 c 128,-1,137
 524 977 524 977 517 978 c 0,138,139
 500 981 500 981 493 987 c 128,-1,140
 486 993 486 993 486 1007 c 0,141,142
 486 1024 486 1024 510 1041 c 1,143,144
 536 1056 536 1056 576 1075 c 128,-1,145
 616 1094 616 1094 656 1109 c 1,146,-1
 655 1109 l 1,147,-1
 667 1114 l 1,148,149
 655 1119 655 1119 645 1125.5 c 128,-1,150
 635 1132 635 1132 627 1140 c 1,151,-1
 629 1139 l 1,152,153
 594 1168 594 1168 594 1202 c 0,154,155
 594 1214 594 1214 597 1220 c 1,156,-1
 597 1219 l 1,157,158
 602 1234 602 1234 608 1250 c 128,-1,159
 614 1266 614 1266 625 1283 c 0,160,161
 665 1346 665 1346 721 1396 c 0,162,163
 782 1451 782 1451 834 1470 c 1,164,165
 851 1475 851 1475 857 1475 c 0,166,167
 889 1475 889 1475 889 1444 c 0,168,169
 889 1435 889 1435 883.5 1422.5 c 128,-1,170
 878 1410 878 1410 865 1393 c 1,171,-1
 865 1394 l 1,172,173
 846 1368 846 1368 836 1351.5 c 128,-1,174
 826 1335 826 1335 822 1330 c 1,175,-1
 807 1319 l 1,115,116
EndSplineSet
MultipleSubs2: "'fina' Terminal Forms in Arabic lookup 2 subtable" _.notdef_72 uni0654
MultipleSubs2: "'isol' Isolated Forms in Arabic lookup 0 subtable" _.notdef_71 uni0654
EndChar
StartChar: uni06F2
Encoding: 1778 1778 101
Width: 803
GlyphClass: 2
Flags: W
LayerCount: 2
Fore
SplineSet
472 728 m 1,0,1
 544 578 544 578 559 385.5 c 128,-1,2
 574 193 574 193 456 8 c 0,3,4
 445 -8 445 -8 437 -12 c 128,-1,5
 429 -16 429 -16 429 -17 c 0,6,7
 410 -28 410 -28 412 -8 c 0,8,9
 432 205 432 205 358 363 c 0,10,11
 246 601 246 601 116 785 c 0,12,13
 69 851 69 851 33 938 c 1,14,15
 94 1113 94 1113 140 1207 c 2,16,-1
 157 1242 l 1,17,-1
 165 1226 l 2,18,19
 266 1019 266 1019 436.5 997 c 128,-1,20
 607 975 607 975 719 1160 c 1,21,22
 730 1191 730 1191 742.5 1205 c 128,-1,23
 755 1219 755 1219 760.5 1216.5 c 128,-1,24
 766 1214 766 1214 766 1206 c 0,25,26
 781 1028 781 1028 699.5 868.5 c 128,-1,27
 618 709 618 709 472 728 c 1,0,1
EndSplineSet
EndChar
StartChar: uni06F5
Encoding: 1781 1781 142
Width: 910
GlyphClass: 2
Flags: W
LayerCount: 2
Fore
SplineSet
824 650 m 1,0,1
 838 611 838 611 844.5 570.5 c 128,-1,2
 851 530 851 530 851 488 c 0,3,4
 851 468 851 468 849.5 450 c 128,-1,5
 848 432 848 432 846 415 c 0,6,7
 837 356 837 356 819.5 304 c 128,-1,8
 802 252 802 252 778 210 c 128,-1,9
 754 168 754 168 724 136 c 128,-1,10
 694 104 694 104 660 85 c 0,11,12
 625 65 625 65 590 65 c 0,13,14
 551 65 551 65 514 92 c 1,15,16
 492 106 492 106 472 106 c 0,17,18
 450 106 450 106 425 94 c 1,19,20
 393 77 393 77 361 60.5 c 128,-1,21
 329 44 329 44 297 29 c 1,22,-1
 297 30 l 1,23,24
 238 3 238 3 190 3 c 0,25,26
 182 3 182 3 175.5 3.5 c 128,-1,27
 169 4 169 4 163 5 c 0,28,29
 90 16 90 16 51 152 c 0,30,31
 42 183 42 183 42 219 c 0,32,33
 42 242 42 242 45 268 c 128,-1,34
 48 294 48 294 56 325 c 0,35,36
 80 426 80 426 121 531.5 c 128,-1,37
 162 637 162 637 212 731 c 1,38,39
 235 777 235 777 249.5 805 c 128,-1,40
 264 833 264 833 280 859 c 1,41,-1
 268 871 l 1,42,-1
 259 879 l 2,43,44
 256 882 256 882 253.5 889 c 128,-1,45
 251 896 251 896 252 901 c 0,46,47
 257 933 257 933 263.5 963 c 128,-1,48
 270 993 270 993 276 1019 c 1,49,-1
 309 1136 l 2,50,51
 313 1150 313 1150 325 1154 c 128,-1,52
 337 1158 337 1158 348 1148 c 2,53,-1
 609 925 l 2,54,55
 681 863 681 863 736 794.5 c 128,-1,56
 791 726 791 726 823 652 c 1,57,-1
 824 650 l 1,0,1
729 370 m 1,58,59
 726 375 726 375 725 381 c 1,60,-1
 731 391 l 1,61,-1
 729 370 l 1,58,59
688 350 m 1,62,63
 711 364 711 364 725 381 c 1,64,65
 673 518 673 518 565 615 c 0,66,67
 536 640 536 640 510.5 663 c 128,-1,68
 485 686 485 686 460 708.5 c 128,-1,69
 435 731 435 731 408.5 754.5 c 128,-1,70
 382 778 382 778 352 804 c 1,71,72
 337 781 337 781 319 748.5 c 128,-1,73
 301 716 301 716 284 680 c 0,74,75
 260 631 260 631 240.5 581 c 128,-1,76
 221 531 221 531 209 480 c 1,77,78
 194 426 194 426 194 378 c 0,79,80
 194 346 194 346 202 317 c 0,81,82
 214 274 214 274 274 274 c 0,83,84
 282 274 282 274 288.5 274.5 c 128,-1,85
 295 275 295 275 306 276 c 0,86,87
 359 283 359 283 393 297 c 128,-1,88
 427 311 427 311 441 331 c 1,89,90
 463 369 463 369 522 369 c 0,91,92
 547 369 547 369 578 362 c 128,-1,93
 609 355 609 355 648 341 c 0,94,95
 652 339 652 339 660 339 c 0,96,97
 674 339 674 339 688 350 c 1,62,63
EndSplineSet
EndChar
StartChar: endash
Encoding: 8211 8211 21
Width: 1108
GlyphClass: 2
Flags: W
LayerCount: 2
Fore
SplineSet
63 405 m 2,0,1
 53 405 53 405 46 412 c 128,-1,2
 39 419 39 419 39 429 c 2,3,-1
 39 545 l 2,4,5
 39 556 39 556 46 562.5 c 128,-1,6
 53 569 53 569 63 569 c 2,7,-1
 1026 569 l 2,8,9
 1036 569 1036 569 1043 562.5 c 128,-1,10
 1050 556 1050 556 1050 545 c 2,11,-1
 1050 429 l 2,12,13
 1050 419 1050 419 1043 412 c 128,-1,14
 1036 405 1036 405 1026 405 c 2,15,-1
 63 405 l 2,0,1
EndSplineSet
EndChar
StartChar: emdash
Encoding: 8212 8212 22
Width: 2048
GlyphClass: 2
Flags: W
LayerCount: 2
Fore
SplineSet
17 405 m 2,0,1
 7 405 7 405 0 412 c 128,-1,2
 -7 419 -7 419 -7 429 c 2,3,-1
 -7 545 l 2,4,5
 -7 556 -7 556 0 562.5 c 128,-1,6
 7 569 7 569 17 569 c 2,7,-1
 1996 569 l 2,8,9
 2007 569 2007 569 2013.5 562.5 c 128,-1,10
 2020 556 2020 556 2020 545 c 2,11,-1
 2020 429 l 2,12,13
 2020 419 2020 419 2013.5 412 c 128,-1,14
 2007 405 2007 405 1996 405 c 2,15,-1
 17 405 l 2,0,1
EndSplineSet
EndChar
StartChar: quoteleft
Encoding: 8216 8216 23
Width: 557
GlyphClass: 2
Flags: W
LayerCount: 2
Fore
SplineSet
331 989 m 2,0,1
 329 987 329 987 322.5 984.5 c 128,-1,2
 316 982 316 982 314 982 c 0,3,4
 259 982 259 982 207 1055 c 1,5,6
 161 1125 161 1125 161 1216 c 0,7,8
 161 1272 161 1272 179.5 1329.5 c 128,-1,9
 198 1387 198 1387 233 1447 c 1,10,11
 271 1507 271 1507 310.5 1539.5 c 128,-1,12
 350 1572 350 1572 388 1572 c 0,13,14
 398 1572 398 1572 405 1565.5 c 128,-1,15
 412 1559 412 1559 412 1548 c 2,16,-1
 412 1506 l 2,17,18
 412 1501 412 1501 408.5 1494 c 128,-1,19
 405 1487 405 1487 400 1485 c 0,20,21
 371 1468 371 1468 353 1425.5 c 128,-1,22
 335 1383 335 1383 328 1321 c 1,23,24
 328 1226 328 1226 436 1190 c 0,25,26
 443 1188 443 1188 448 1181.5 c 128,-1,27
 453 1175 453 1175 453 1167 c 2,28,-1
 453 1117 l 1,29,-1
 331 989 l 2,0,1
EndSplineSet
EndChar
StartChar: quoteright
Encoding: 8217 8217 24
Width: 557
GlyphClass: 2
Flags: W
LayerCount: 2
Fore
SplineSet
217 1564 m 2,0,1
 219 1566 219 1566 225 1569 c 128,-1,2
 231 1572 231 1572 234 1572 c 0,3,4
 291 1572 291 1572 339 1498 c 0,5,6
 362 1464 362 1464 374.5 1424 c 128,-1,7
 387 1384 387 1384 387 1338 c 0,8,9
 387 1228 387 1228 314 1106 c 0,10,11
 239 982 239 982 160 982 c 0,12,13
 149 982 149 982 142.5 988.5 c 128,-1,14
 136 995 136 995 136 1006 c 2,15,-1
 136 1047 l 2,16,17
 136 1052 136 1052 139 1059.5 c 128,-1,18
 142 1067 142 1067 147 1069 c 0,19,20
 177 1086 177 1086 195 1128.5 c 128,-1,21
 213 1171 213 1171 220 1233 c 1,22,23
 220 1329 220 1329 111 1363 c 0,24,25
 105 1365 105 1365 100 1372 c 128,-1,26
 95 1379 95 1379 95 1387 c 2,27,-1
 95 1437 l 1,28,-1
 217 1564 l 2,0,1
EndSplineSet
EndChar
StartChar: quotesinglbase
Encoding: 8218 8218 25
Width: 557
GlyphClass: 2
Flags: W
LayerCount: 2
Fore
SplineSet
217 312 m 2,0,1
 219 314 219 314 225 317 c 128,-1,2
 231 320 231 320 234 320 c 0,3,4
 291 320 291 320 339 245 c 1,5,6
 387 177 387 177 387 86 c 0,7,8
 387 -26 387 -26 314 -145 c 0,9,10
 277 -205 277 -205 237.5 -238 c 128,-1,11
 198 -271 198 -271 160 -271 c 0,12,13
 149 -271 149 -271 142.5 -264 c 128,-1,14
 136 -257 136 -257 136 -246 c 2,15,-1
 136 -205 l 2,16,17
 136 -200 136 -200 139 -193 c 128,-1,18
 142 -186 142 -186 147 -184 c 0,19,20
 177 -167 177 -167 195 -124 c 128,-1,21
 213 -81 213 -81 220 -19 c 1,22,23
 220 77 220 77 111 111 c 0,24,25
 105 113 105 113 100 120 c 128,-1,26
 95 127 95 127 95 134 c 2,27,-1
 95 185 l 1,28,-1
 217 312 l 2,0,1
EndSplineSet
EndChar
StartChar: quotedblleft
Encoding: 8220 8220 26
Width: 910
GlyphClass: 2
Flags: W
LayerCount: 2
Fore
SplineSet
334 989 m 2,0,1
 332 987 332 987 325.5 984.5 c 128,-1,2
 319 982 319 982 316 982 c 0,3,4
 262 982 262 982 210 1055 c 1,5,6
 164 1125 164 1125 164 1216 c 0,7,8
 164 1272 164 1272 182.5 1329.5 c 128,-1,9
 201 1387 201 1387 236 1447 c 1,10,11
 274 1507 274 1507 313.5 1539.5 c 128,-1,12
 353 1572 353 1572 391 1572 c 0,13,14
 401 1572 401 1572 408 1565.5 c 128,-1,15
 415 1559 415 1559 415 1548 c 2,16,-1
 415 1506 l 2,17,18
 415 1501 415 1501 411.5 1494 c 128,-1,19
 408 1487 408 1487 403 1485 c 0,20,21
 374 1468 374 1468 356 1425.5 c 128,-1,22
 338 1383 338 1383 331 1321 c 1,23,24
 331 1226 331 1226 439 1190 c 0,25,26
 446 1188 446 1188 451 1181.5 c 128,-1,27
 456 1175 456 1175 456 1167 c 2,28,-1
 456 1117 l 1,29,-1
 334 989 l 2,0,1
675 989 m 2,30,31
 673 987 673 987 666.5 984.5 c 128,-1,32
 660 982 660 982 658 982 c 0,33,34
 603 982 603 982 551 1055 c 1,35,36
 505 1125 505 1125 505 1216 c 0,37,38
 505 1272 505 1272 523.5 1329.5 c 128,-1,39
 542 1387 542 1387 577 1447 c 1,40,41
 615 1507 615 1507 654.5 1539.5 c 128,-1,42
 694 1572 694 1572 732 1572 c 0,43,44
 743 1572 743 1572 749.5 1565.5 c 128,-1,45
 756 1559 756 1559 756 1548 c 2,46,-1
 756 1506 l 2,47,48
 756 1501 756 1501 752.5 1494 c 128,-1,49
 749 1487 749 1487 745 1485 c 0,50,51
 715 1468 715 1468 697 1425.5 c 128,-1,52
 679 1383 679 1383 672 1321 c 1,53,54
 672 1226 672 1226 780 1190 c 0,55,56
 787 1188 787 1188 792 1181.5 c 128,-1,57
 797 1175 797 1175 797 1167 c 2,58,-1
 797 1117 l 1,59,-1
 675 989 l 2,30,31
EndSplineSet
EndChar
StartChar: quotedblright
Encoding: 8221 8221 27
Width: 910
GlyphClass: 2
Flags: W
LayerCount: 2
Fore
SplineSet
220 1564 m 2,0,1
 222 1566 222 1566 228 1569 c 128,-1,2
 234 1572 234 1572 237 1572 c 0,3,4
 294 1572 294 1572 342 1498 c 0,5,6
 365 1464 365 1464 377.5 1424 c 128,-1,7
 390 1384 390 1384 390 1338 c 0,8,9
 390 1228 390 1228 317 1106 c 0,10,11
 242 982 242 982 163 982 c 0,12,13
 152 982 152 982 145.5 988.5 c 128,-1,14
 139 995 139 995 139 1006 c 2,15,-1
 139 1047 l 2,16,17
 139 1052 139 1052 142 1059.5 c 128,-1,18
 145 1067 145 1067 150 1069 c 0,19,20
 180 1086 180 1086 198 1128.5 c 128,-1,21
 216 1171 216 1171 223 1233 c 1,22,23
 223 1329 223 1329 114 1363 c 0,24,25
 108 1365 108 1365 103 1372 c 128,-1,26
 98 1379 98 1379 98 1387 c 2,27,-1
 98 1437 l 1,28,-1
 220 1564 l 2,0,1
561 1564 m 2,29,30
 563 1566 563 1566 569 1569 c 128,-1,31
 575 1572 575 1572 578 1572 c 0,32,33
 634 1572 634 1572 684 1498 c 0,34,35
 707 1464 707 1464 719 1424 c 128,-1,36
 731 1384 731 1384 731 1338 c 0,37,38
 731 1228 731 1228 658 1106 c 0,39,40
 583 982 583 982 504 982 c 0,41,42
 493 982 493 982 486.5 988.5 c 128,-1,43
 480 995 480 995 480 1006 c 2,44,-1
 480 1047 l 2,45,46
 480 1052 480 1052 483 1059.5 c 128,-1,47
 486 1067 486 1067 491 1069 c 0,48,49
 521 1086 521 1086 539 1128.5 c 128,-1,50
 557 1171 557 1171 564 1233 c 1,51,52
 564 1329 564 1329 455 1363 c 0,53,54
 449 1365 449 1365 444 1372 c 128,-1,55
 439 1379 439 1379 439 1387 c 2,56,-1
 439 1437 l 1,57,-1
 561 1564 l 2,29,30
EndSplineSet
EndChar
StartChar: quotedblbase
Encoding: 8222 8222 28
Width: 910
GlyphClass: 2
Flags: W
LayerCount: 2
Fore
SplineSet
220 312 m 2,0,1
 222 314 222 314 228 317 c 128,-1,2
 234 320 234 320 237 320 c 0,3,4
 294 320 294 320 342 245 c 1,5,6
 390 177 390 177 390 86 c 0,7,8
 390 -26 390 -26 317 -145 c 0,9,10
 280 -205 280 -205 240.5 -238 c 128,-1,11
 201 -271 201 -271 163 -271 c 0,12,13
 152 -271 152 -271 145.5 -264 c 128,-1,14
 139 -257 139 -257 139 -246 c 2,15,-1
 139 -205 l 2,16,17
 139 -200 139 -200 142 -193 c 128,-1,18
 145 -186 145 -186 150 -184 c 0,19,20
 180 -167 180 -167 198 -124 c 128,-1,21
 216 -81 216 -81 223 -19 c 1,22,23
 223 77 223 77 114 111 c 0,24,25
 108 113 108 113 103 120 c 128,-1,26
 98 127 98 127 98 134 c 2,27,-1
 98 185 l 1,28,-1
 220 312 l 2,0,1
561 312 m 2,29,30
 563 314 563 314 569 317 c 128,-1,31
 575 320 575 320 578 320 c 0,32,33
 634 320 634 320 684 245 c 0,34,35
 707 212 707 212 719 172 c 128,-1,36
 731 132 731 132 731 86 c 0,37,38
 731 -26 731 -26 658 -145 c 0,39,40
 621 -205 621 -205 581.5 -238 c 128,-1,41
 542 -271 542 -271 504 -271 c 0,42,43
 493 -271 493 -271 486.5 -264 c 128,-1,44
 480 -257 480 -257 480 -246 c 2,45,-1
 480 -205 l 2,46,47
 480 -200 480 -200 483 -193 c 128,-1,48
 486 -186 486 -186 491 -184 c 0,49,50
 521 -167 521 -167 539 -124 c 128,-1,51
 557 -81 557 -81 564 -19 c 1,52,53
 564 77 564 77 455 111 c 0,54,55
 449 113 449 113 444 120 c 128,-1,56
 439 127 439 127 439 134 c 2,57,-1
 439 185 l 1,58,-1
 561 312 l 2,29,30
EndSplineSet
EndChar
StartChar: ellipsis
Encoding: 8230 8230 29
Width: 2048
GlyphClass: 2
Flags: W
LayerCount: 2
Fore
SplineSet
218 284 m 1,0,1
 240 304 240 304 263 304 c 0,2,3
 274 304 274 304 285.5 299 c 128,-1,4
 297 294 297 294 310 282 c 1,5,-1
 391 195 l 1,6,7
 398 185 398 185 402 175 c 128,-1,8
 406 165 406 165 406 154 c 0,9,10
 406 131 406 131 387 107 c 1,11,-1
 309 21 l 1,12,13
 281 -5 281 -5 263 -5 c 0,14,15
 237 -5 237 -5 217 15 c 1,16,-1
 131 115 l 1,17,18
 116 134 116 134 116 156 c 0,19,20
 116 180 116 180 139 203 c 1,21,-1
 139 202 l 1,22,-1
 218 284 l 1,0,1
878 284 m 1,23,24
 900 304 900 304 923 304 c 0,25,26
 934 304 934 304 945.5 299 c 128,-1,27
 957 294 957 294 970 282 c 1,28,-1
 1051 195 l 1,29,30
 1058 185 1058 185 1062 175 c 128,-1,31
 1066 165 1066 165 1066 154 c 0,32,33
 1066 131 1066 131 1047 107 c 1,34,-1
 969 21 l 1,35,36
 941 -5 941 -5 923 -5 c 0,37,38
 897 -5 897 -5 877 15 c 1,39,-1
 791 115 l 1,40,41
 776 134 776 134 776 156 c 0,42,43
 776 180 776 180 798 203 c 1,44,-1
 798 202 l 1,45,-1
 878 284 l 1,23,24
1538 284 m 1,46,47
 1560 304 1560 304 1583 304 c 0,48,49
 1594 304 1594 304 1605.5 299 c 128,-1,50
 1617 294 1617 294 1630 282 c 1,51,-1
 1711 195 l 1,52,53
 1718 185 1718 185 1722 175 c 128,-1,54
 1726 165 1726 165 1726 154 c 0,55,56
 1726 131 1726 131 1707 107 c 1,57,-1
 1629 21 l 1,58,59
 1601 -5 1601 -5 1583 -5 c 0,60,61
 1557 -5 1557 -5 1537 15 c 1,62,-1
 1451 115 l 1,63,64
 1436 134 1436 134 1436 156 c 0,65,66
 1436 180 1436 180 1458 203 c 1,67,-1
 1458 202 l 1,68,-1
 1538 284 l 1,46,47
EndSplineSet
EndChar
StartChar: uniFB51
Encoding: 64337 64337 161
Width: 217
GlyphClass: 2
Flags: W
LayerCount: 2
Fore
SplineSet
111 1157 m 1,0,-1
 240 1395 l 2,1,2
 244 1403 244 1403 251.5 1406 c 128,-1,3
 259 1409 259 1409 266 1407.5 c 128,-1,4
 273 1406 273 1406 278.5 1400.5 c 128,-1,5
 284 1395 284 1395 285 1386 c 2,6,-1
 360 292 l 1,7,-1
 236 14 l 2,8,9
 232 5 232 5 224.5 2 c 128,-1,10
 217 -1 217 -1 209.5 0 c 128,-1,11
 202 1 202 1 196 7 c 128,-1,12
 190 13 190 13 189 22 c 2,13,-1
 111 1157 l 1,0,-1
375 1634 m 1,14,15
 372 1633 372 1633 370 1632 c 128,-1,16
 368 1631 368 1631 366 1630 c 1,17,18
 372 1632 372 1632 375 1634 c 1,14,15
359 1618 m 1,19,20
 357 1620 357 1620 356.5 1621.5 c 128,-1,21
 356 1623 356 1623 354 1624 c 1,22,-1
 366 1630 l 1,23,24
 360 1625 360 1625 360 1618 c 1,25,-1
 359 1618 l 1,26,-1
 359 1620 l 1,27,-1
 359 1618 l 1,19,20
330 1617 m 2,28,29
 336 1619 336 1619 342 1620.5 c 128,-1,30
 348 1622 348 1622 354 1624 c 1,31,32
 352 1626 352 1626 352 1626 c 1,33,34
 347 1626 347 1626 337 1620 c 1,35,-1
 330 1617 l 2,28,29
239 1595 m 1,36,37
 263 1600 263 1600 286 1604.5 c 128,-1,38
 309 1609 309 1609 330 1617 c 1,39,40
 313 1606 313 1606 299 1592.5 c 128,-1,41
 285 1579 285 1579 271 1564 c 1,42,-1
 260 1554 l 1,43,-1
 239 1595 l 1,36,37
212 1543 m 1,44,45
 197 1545 197 1545 191.5 1558 c 128,-1,46
 186 1571 186 1571 197 1583 c 1,47,-1
 199 1586 l 1,48,-1
 192 1588 l 1,49,50
 154 1580 154 1580 143 1572 c 128,-1,51
 132 1564 132 1564 139 1557.5 c 128,-1,52
 146 1551 146 1551 166.5 1547 c 128,-1,53
 187 1543 187 1543 212 1543 c 1,44,45
145 1620 m 0,54,55
 176 1620 176 1620 206 1592 c 1,56,57
 238 1631 238 1631 268.5 1662 c 128,-1,58
 299 1693 299 1693 326 1718 c 0,59,60
 345 1736 345 1736 387 1745 c 0,61,62
 394 1747 394 1747 398 1747 c 128,-1,63
 402 1747 402 1747 406 1747 c 0,64,65
 437 1747 437 1747 460 1723 c 1,66,67
 471 1710 471 1710 475 1698.5 c 128,-1,68
 479 1687 479 1687 479 1676 c 0,69,70
 479 1659 479 1659 471 1641 c 1,71,72
 455 1610 455 1610 436 1585 c 0,73,74
 388 1521 388 1521 286 1482 c 1,75,-1
 287 1482 l 1,76,77
 255 1469 255 1469 229.5 1462 c 128,-1,78
 204 1455 204 1455 187 1455 c 0,79,80
 176 1455 176 1455 167 1458 c 0,81,82
 135 1466 135 1466 114 1481 c 0,83,84
 110 1485 110 1485 103 1485 c 1,85,-1
 106 1486 l 1,86,87
 86 1481 86 1481 42 1437 c 0,88,89
 39 1433 39 1433 34.5 1429 c 128,-1,90
 30 1425 30 1425 23 1421 c 0,91,92
 18 1418 18 1418 14 1417.5 c 128,-1,93
 10 1417 10 1417 6 1417 c 0,94,95
 -5 1417 -5 1417 -12.5 1424 c 128,-1,96
 -20 1431 -20 1431 -20 1446 c 1,97,98
 -3 1515 -3 1515 67 1582 c 0,99,100
 108 1620 108 1620 145 1620 c 0,54,55
EndSplineSet
EndChar
StartChar: uniFB57
Encoding: 64343 64343 163
Width: 1257
GlyphClass: 2
Flags: W
LayerCount: 2
Fore
SplineSet
4 222 m 0,0,1
 -16 279 -16 279 -16 339 c 0,2,3
 -16 425 -16 425 26 518 c 0,4,5
 61 594 61 594 95.5 661.5 c 128,-1,6
 130 729 130 729 168 788 c 1,7,8
 189 816 189 816 214 816 c 0,9,10
 225 816 225 816 229 814 c 0,11,12
 258 802 258 802 258 772 c 0,13,14
 258 758 258 758 250 739 c 1,15,16
 179 608 179 608 174 519 c 1,17,-1
 174 505 l 2,18,19
 174 469 174 469 184 439 c 128,-1,20
 194 409 194 409 211 387 c 1,21,22
 234 361 234 361 274 343 c 128,-1,23
 314 325 314 325 371 316 c 0,24,25
 419 308 419 308 468.5 304.5 c 128,-1,26
 518 301 518 301 569 301 c 2,27,-1
 629 301 l 1,28,29
 762 307 762 307 890 331 c 1,30,31
 1016 357 1016 357 1061 383 c 1,32,33
 1110 408 1110 408 1135 467 c 1,34,35
 1149 489 1149 489 1165 489 c 0,36,37
 1192 489 1192 489 1192 454 c 0,38,39
 1192 442 1192 442 1191 434 c 128,-1,40
 1190 426 1190 426 1189 423 c 1,41,-1
 1189 424 l 1,42,43
 1178 388 1178 388 1161 344 c 128,-1,44
 1144 300 1144 300 1122 247 c 0,45,46
 1099 193 1099 193 1068.5 146 c 128,-1,47
 1038 99 1038 99 998 58 c 0,48,49
 996 56 996 56 989.5 53.5 c 128,-1,50
 983 51 983 51 980 51 c 0,51,52
 955 51 955 51 950 73 c 1,53,54
 907 58 907 58 856 46 c 128,-1,55
 805 34 805 34 747 23 c 0,56,57
 686 12 686 12 622.5 6.5 c 128,-1,58
 559 1 559 1 495 1 c 0,59,60
 484 1 484 1 473 1 c 128,-1,61
 462 1 462 1 452 2 c 0,62,63
 378 4 378 4 309.5 17 c 128,-1,64
 241 30 241 30 178 53 c 1,65,66
 46 105 46 105 4 222 c 0,0,1
787 -261 m 1,67,68
 758 -322 758 -322 719 -379.5 c 128,-1,69
 680 -437 680 -437 638 -491 c 0,70,71
 631 -499 631 -499 624 -503.5 c 128,-1,72
 617 -508 617 -508 606 -508 c 0,73,74
 581 -508 581 -508 568 -473 c 1,75,76
 550 -434 550 -434 532.5 -410.5 c 128,-1,77
 515 -387 515 -387 498 -387 c 2,78,-1
 493 -387 l 1,79,80
 472 -390 472 -390 449 -404.5 c 128,-1,81
 426 -419 426 -419 405 -443 c 1,82,-1
 405 -442 l 1,83,84
 380 -469 380 -469 358 -501.5 c 128,-1,85
 336 -534 336 -534 316 -570 c 0,86,87
 295 -608 295 -608 280.5 -633.5 c 128,-1,88
 266 -659 266 -659 256 -673 c 0,89,90
 250 -680 250 -680 242.5 -682 c 128,-1,91
 235 -684 235 -684 228.5 -681.5 c 128,-1,92
 222 -679 222 -679 217 -673 c 128,-1,93
 212 -667 212 -667 212 -658 c 2,94,-1
 211 -572 l 1,95,-1
 213 -564 l 1,96,97
 225 -539 225 -539 245 -501.5 c 128,-1,98
 265 -464 265 -464 291 -420 c 0,99,100
 315 -379 315 -379 345 -335 c 128,-1,101
 375 -291 375 -291 406 -249 c 1,102,103
 437 -209 437 -209 471 -175.5 c 128,-1,104
 505 -142 505 -142 541 -116 c 0,105,106
 558 -104 558 -104 575.5 -98.5 c 128,-1,107
 593 -93 593 -93 610 -93 c 0,108,109
 660 -93 660 -93 712 -139 c 1,110,111
 756 -181 756 -181 786 -239 c 1,112,-1
 787 -261 l 1,67,68
EndSplineSet
EndChar
StartChar: uniFB58
Encoding: 64344 64344 164
Width: 604
GlyphClass: 2
Flags: W
LayerCount: 2
Fore
SplineSet
571 510 m 0,0,1
 566 461 566 461 548 407.5 c 128,-1,2
 530 354 530 354 503 300 c 0,3,4
 475 246 475 246 442 200.5 c 128,-1,5
 409 155 409 155 371 123 c 0,6,7
 304 67 304 67 215.5 39.5 c 128,-1,8
 127 12 127 12 6 0 c 0,9,10
 -8 -2 -8 -2 -16 9 c 128,-1,11
 -24 20 -24 20 -18 34 c 2,12,-1
 99 300 l 2,13,14
 101 304 101 304 107 308.5 c 128,-1,15
 113 313 113 313 118 314 c 0,16,17
 196 323 196 323 261 334.5 c 128,-1,18
 326 346 326 346 377 377 c 1,19,20
 375 394 375 394 370.5 416.5 c 128,-1,21
 366 439 366 439 358 465 c 0,22,23
 347 499 347 499 337.5 529.5 c 128,-1,24
 328 560 328 560 318 589 c 0,25,26
 316 593 316 593 317.5 600.5 c 128,-1,27
 319 608 319 608 321 611 c 2,28,-1
 473 835 l 2,29,30
 481 848 481 848 495.5 846 c 128,-1,31
 510 844 510 844 515 830 c 2,32,-1
 549 741 l 2,33,34
 562 708 562 708 568.5 668 c 128,-1,35
 575 628 575 628 575 585 c 0,36,37
 575 566 575 566 574 547.5 c 128,-1,38
 573 529 573 529 571 510 c 0,0,1
484 -206 m 1,39,40
 456 -267 456 -267 417 -324.5 c 128,-1,41
 378 -382 378 -382 336 -436 c 1,42,43
 328 -444 328 -444 321.5 -448.5 c 128,-1,44
 315 -453 315 -453 304 -453 c 0,45,46
 279 -453 279 -453 265 -418 c 1,47,48
 248 -379 248 -379 230 -355 c 128,-1,49
 212 -331 212 -331 195 -331 c 2,50,-1
 191 -331 l 1,51,52
 170 -335 170 -335 147 -349.5 c 128,-1,53
 124 -364 124 -364 103 -387 c 0,54,55
 79 -414 79 -414 57 -446.5 c 128,-1,56
 35 -479 35 -479 15 -515 c 0,57,58
 -6 -553 -6 -553 -21.5 -578.5 c 128,-1,59
 -37 -604 -37 -604 -47 -617 c 0,60,61
 -53 -625 -53 -625 -60.5 -627 c 128,-1,62
 -68 -629 -68 -629 -74.5 -626.5 c 128,-1,63
 -81 -624 -81 -624 -86 -618 c 128,-1,64
 -91 -612 -91 -612 -91 -603 c 2,65,-1
 -92 -517 l 1,66,-1
 -90 -509 l 1,67,68
 -77 -484 -77 -484 -57 -446.5 c 128,-1,69
 -37 -409 -37 -409 -11 -365 c 0,70,71
 13 -324 13 -324 42.5 -280 c 128,-1,72
 72 -236 72 -236 104 -194 c 0,73,74
 134 -154 134 -154 168.5 -120.5 c 128,-1,75
 203 -87 203 -87 238 -61 c 1,76,77
 271 -38 271 -38 308 -38 c 0,78,79
 357 -38 357 -38 409 -84 c 1,80,81
 453 -126 453 -126 483 -184 c 1,82,-1
 484 -206 l 1,39,40
EndSplineSet
EndChar
StartChar: uniFB59
Encoding: 64345 64345 165
Width: 419
GlyphClass: 2
Flags: W
LayerCount: 2
Fore
SplineSet
411 48 m 2,0,1
 385 48 385 48 379 71 c 1,2,3
 347 60 347 60 306.5 50 c 128,-1,4
 266 40 266 40 220 31 c 0,5,6
 166 21 166 21 107 12.5 c 128,-1,7
 48 4 48 4 6 0 c 0,8,9
 -8 -2 -8 -2 -15.5 9 c 128,-1,10
 -23 20 -23 20 -18 34 c 2,11,-1
 97 300 l 2,12,13
 99 305 99 305 106 309 c 128,-1,14
 113 313 113 313 118 314 c 2,15,-1
 285 326 l 2,16,17
 346 330 346 330 399 344 c 128,-1,18
 452 358 452 358 493 380 c 1,19,20
 543 412 543 412 567 466 c 1,21,22
 580 486 580 486 596 486 c 0,23,24
 623 486 623 486 623 451 c 0,25,26
 623 439 623 439 622 431 c 128,-1,27
 621 423 621 423 620 420 c 1,28,-1
 620 421 l 1,29,30
 609 385 609 385 592 341 c 128,-1,31
 575 297 575 297 553 245 c 0,32,33
 530 193 530 193 500 145.5 c 128,-1,34
 470 98 470 98 431 56 c 0,35,36
 429 54 429 54 422.5 51 c 128,-1,37
 416 48 416 48 413 48 c 2,38,-1
 411 48 l 2,0,1
485 -206 m 1,39,40
 456 -267 456 -267 417 -324.5 c 128,-1,41
 378 -382 378 -382 336 -436 c 1,42,43
 328 -444 328 -444 321.5 -448.5 c 128,-1,44
 315 -453 315 -453 304 -453 c 0,45,46
 279 -453 279 -453 265 -418 c 1,47,48
 248 -379 248 -379 230.5 -355 c 128,-1,49
 213 -331 213 -331 196 -331 c 2,50,-1
 191 -331 l 1,51,52
 170 -335 170 -335 147 -349.5 c 128,-1,53
 124 -364 124 -364 103 -387 c 0,54,55
 79 -414 79 -414 57 -446.5 c 128,-1,56
 35 -479 35 -479 15 -515 c 0,57,58
 -6 -553 -6 -553 -21 -578.5 c 128,-1,59
 -36 -604 -36 -604 -47 -617 c 1,60,61
 -52 -625 -52 -625 -59.5 -627 c 128,-1,62
 -67 -629 -67 -629 -74 -626.5 c 128,-1,63
 -81 -624 -81 -624 -85.5 -618 c 128,-1,64
 -90 -612 -90 -612 -90 -603 c 2,65,-1
 -91 -517 l 1,66,-1
 -89 -509 l 1,67,68
 -77 -484 -77 -484 -57 -446.5 c 128,-1,69
 -37 -409 -37 -409 -11 -365 c 0,70,71
 13 -324 13 -324 43 -280 c 128,-1,72
 73 -236 73 -236 104 -194 c 1,73,74
 135 -154 135 -154 169 -120.5 c 128,-1,75
 203 -87 203 -87 238 -61 c 1,76,77
 256 -49 256 -49 273.5 -43.5 c 128,-1,78
 291 -38 291 -38 308 -38 c 0,79,80
 358 -38 358 -38 409 -84 c 0,81,82
 430 -104 430 -104 449 -129 c 128,-1,83
 468 -154 468 -154 484 -184 c 1,84,-1
 485 -206 l 1,39,40
EndSplineSet
EndChar
StartChar: uniFB68
Encoding: 64360 64360 168
Width: 604
GlyphClass: 2
Flags: W
LayerCount: 2
Fore
SplineSet
572 510 m 0,0,1
 566 461 566 461 548 407.5 c 128,-1,2
 530 354 530 354 503 300 c 256,3,4
 476 246 476 246 442.5 200.5 c 128,-1,5
 409 155 409 155 372 123 c 0,6,7
 305 67 305 67 216 39.5 c 128,-1,8
 127 12 127 12 7 0 c 0,9,10
 -8 -2 -8 -2 -15.5 9 c 128,-1,11
 -23 20 -23 20 -17 34 c 2,12,-1
 99 300 l 2,13,14
 101 304 101 304 107.5 308.5 c 128,-1,15
 114 313 114 313 119 314 c 0,16,17
 196 323 196 323 261.5 334.5 c 128,-1,18
 327 346 327 346 378 377 c 1,19,20
 375 413 375 413 358 465 c 1,21,22
 348 499 348 499 338 529.5 c 128,-1,23
 328 560 328 560 319 589 c 0,24,25
 317 593 317 593 318.5 600.5 c 128,-1,26
 320 608 320 608 322 611 c 2,27,-1
 473 835 l 2,28,29
 482 848 482 848 496 846 c 128,-1,30
 510 844 510 844 516 830 c 2,31,-1
 550 741 l 2,32,33
 562 708 562 708 569 668 c 128,-1,34
 576 628 576 628 576 585 c 0,35,36
 576 566 576 566 575 547.5 c 128,-1,37
 574 529 574 529 572 510 c 0,0,1
462 976 m 1,38,-1
 470 980 l 1,39,-1
 462 976 l 1,38,-1
461 976 m 1,40,41
 455 971 455 971 455 965 c 1,42,-1
 456 963 l 2,43,44
 455 964 455 964 455 964 c 1,45,-1
 449 971 l 1,46,47
 453 972 453 972 461 976 c 1,40,41
405 955 m 1,48,49
 416 959 416 959 427 962.5 c 128,-1,50
 438 966 438 966 449 971 c 1,51,52
 446 974 446 974 443 974 c 256,53,54
 440 974 440 974 434.5 972 c 128,-1,55
 429 970 429 970 424 968 c 0,56,57
 419 965 419 965 414.5 962 c 128,-1,58
 410 959 410 959 405 955 c 1,48,49
320 936 m 1,59,60
 342 941 342 941 363.5 945 c 128,-1,61
 385 949 385 949 405 955 c 1,62,63
 391 944 391 944 378 931.5 c 128,-1,64
 365 919 365 919 352 905 c 2,65,-1
 342 895 l 1,66,-1
 320 936 l 1,59,60
532 944 m 1,67,68
 459 844 459 844 291 799 c 0,69,70
 251 789 251 789 212 789 c 2,71,-1
 203 789 l 1,72,73
 155 794 155 794 124 816 c 0,74,75
 106 829 106 829 87.5 841 c 128,-1,76
 69 853 69 853 50 865 c 1,77,78
 44 871 44 871 42 877 c 128,-1,79
 40 883 40 883 40 888 c 0,80,81
 40 915 40 915 72 915 c 1,82,83
 83 914 83 914 93.5 914 c 128,-1,84
 104 914 104 914 115 914 c 0,85,86
 150 914 150 914 185 917 c 0,87,88
 211 919 211 919 233 921.5 c 128,-1,89
 255 924 255 924 280 929 c 1,90,91
 315 970 315 970 350 1006 c 128,-1,92
 385 1042 385 1042 417 1073 c 1,93,94
 443 1094 443 1094 483 1103 c 0,95,96
 487 1104 487 1104 492 1104 c 128,-1,97
 497 1104 497 1104 503 1104 c 0,98,99
 541 1104 541 1104 562 1076 c 0,100,101
 571 1065 571 1065 576.5 1054 c 128,-1,102
 582 1043 582 1043 582 1030 c 0,103,104
 582 1012 582 1012 569 994 c 1,105,-1
 569 995 l 1,106,-1
 532 945 l 1,107,-1
 532 944 l 1,67,68
270 1188 m 1,108,-1
 330 1285 l 2,109,110
 340 1300 340 1300 357 1296 c 128,-1,111
 374 1292 374 1292 375 1274 c 2,112,-1
 391 1019 l 1,113,-1
 330 922 l 2,114,115
 325 914 325 914 318 911.5 c 128,-1,116
 311 909 311 909 304 910.5 c 128,-1,117
 297 912 297 912 292 917.5 c 128,-1,118
 287 923 287 923 286 932 c 2,119,-1
 270 1188 l 1,108,-1
EndSplineSet
EndChar
StartChar: uniFB69
Encoding: 64361 64361 169
Width: 419
GlyphClass: 2
Flags: W
LayerCount: 2
Fore
SplineSet
413 48 m 2,0,1
 387 48 387 48 381 71 c 1,2,3
 348 60 348 60 307.5 50 c 128,-1,4
 267 40 267 40 221 31 c 0,5,6
 194 26 194 26 165 21.5 c 128,-1,7
 136 17 136 17 108 12.5 c 128,-1,8
 80 8 80 8 54.5 5 c 128,-1,9
 29 2 29 2 8 0 c 0,10,11
 -7 -2 -7 -2 -14.5 9 c 128,-1,12
 -22 20 -22 20 -16 34 c 2,13,-1
 99 300 l 2,14,15
 101 305 101 305 107.5 309 c 128,-1,16
 114 313 114 313 119 314 c 2,17,-1
 286 326 l 2,18,19
 347 330 347 330 400.5 344 c 128,-1,20
 454 358 454 358 494 380 c 1,21,22
 546 411 546 411 568 466 c 1,23,24
 575 477 575 477 583 481.5 c 128,-1,25
 591 486 591 486 597 486 c 0,26,27
 624 486 624 486 624 451 c 0,28,29
 624 439 624 439 623 431 c 128,-1,30
 622 423 622 423 621 420 c 1,31,-1
 621 421 l 1,32,33
 610 385 610 385 593.5 341 c 128,-1,34
 577 297 577 297 555 245 c 0,35,36
 509 139 509 139 432 56 c 0,37,38
 430 54 430 54 423.5 51 c 128,-1,39
 417 48 417 48 415 48 c 2,40,-1
 413 48 l 2,0,1
586 763 m 1,41,-1
 593 767 l 1,42,-1
 586 763 l 1,41,-1
585 763 m 1,43,44
 579 758 579 758 579 753 c 1,45,-1
 580 751 l 2,46,47
 579 752 579 752 579 752 c 1,48,-1
 573 759 l 1,49,50
 581 761 581 761 585 763 c 1,43,44
529 742 m 1,51,52
 540 746 540 746 551 750 c 128,-1,53
 562 754 562 754 573 759 c 1,54,55
 569 761 569 761 566 761 c 0,56,57
 558 761 558 761 548 756 c 0,58,59
 543 753 543 753 538.5 749.5 c 128,-1,60
 534 746 534 746 529 742 c 1,51,52
444 724 m 1,61,62
 466 729 466 729 487.5 732.5 c 128,-1,63
 509 736 509 736 529 742 c 1,64,65
 515 732 515 732 502 719.5 c 128,-1,66
 489 707 489 707 476 693 c 2,67,-1
 466 682 l 1,68,-1
 444 724 l 1,61,62
656 731 m 1,69,70
 582 632 582 632 415 587 c 0,71,72
 375 577 375 577 335 577 c 2,73,-1
 327 577 l 1,74,75
 278 582 278 582 247 603 c 1,76,77
 230 616 230 616 211.5 628.5 c 128,-1,78
 193 641 193 641 174 652 c 1,79,80
 168 658 168 658 165.5 664 c 128,-1,81
 163 670 163 670 163 675 c 0,82,83
 163 689 163 689 172 696 c 128,-1,84
 181 703 181 703 196 703 c 1,85,86
 207 702 207 702 217.5 702 c 128,-1,87
 228 702 228 702 239 702 c 0,88,89
 256 702 256 702 273.5 702.5 c 128,-1,90
 291 703 291 703 308 704 c 0,91,92
 334 706 334 706 356.5 708.5 c 128,-1,93
 379 711 379 711 404 716 c 1,94,95
 439 757 439 757 474 793 c 128,-1,96
 509 829 509 829 541 860 c 0,97,98
 564 881 564 881 607 890 c 0,99,100
 617 892 617 892 627 892 c 0,101,102
 664 892 664 892 686 864 c 0,103,104
 705 840 705 840 705 817 c 0,105,106
 705 797 705 797 693 782 c 1,107,-1
 693 783 l 1,108,-1
 656 732 l 1,109,-1
 656 731 l 1,69,70
393 975 m 1,110,-1
 454 1073 l 2,111,112
 459 1080 459 1080 466.5 1082.5 c 128,-1,113
 474 1085 474 1085 481 1083.5 c 128,-1,114
 488 1082 488 1082 493.5 1076 c 128,-1,115
 499 1070 499 1070 499 1061 c 2,116,-1
 515 807 l 1,117,-1
 454 709 l 2,118,119
 449 701 449 701 442 698.5 c 128,-1,120
 435 696 435 696 428 698 c 128,-1,121
 421 700 421 700 416 705.5 c 128,-1,122
 411 711 411 711 410 720 c 2,123,-1
 393 975 l 1,110,-1
EndSplineSet
EndChar
StartChar: uniFB6B
Encoding: 64363 64363 171
Width: 1641
GlyphClass: 2
Flags: W
LayerCount: 2
Fore
SplineSet
682 331 m 0,0,1
 763 348 763 348 831 365.5 c 128,-1,2
 899 383 899 383 954 403 c 1,3,4
 1008 521 1008 521 1071.5 622.5 c 128,-1,5
 1135 724 1135 724 1204 805 c 0,6,7
 1247 856 1247 856 1290.5 882 c 128,-1,8
 1334 908 1334 908 1375 908 c 0,9,10
 1408 908 1408 908 1439 892 c 0,11,12
 1516 851 1516 851 1516 745 c 0,13,14
 1516 720 1516 720 1512.5 692.5 c 128,-1,15
 1509 665 1509 665 1500 634 c 1,16,17
 1440 470 1440 470 1332 334 c 1,18,19
 1221 199 1221 199 1043 148 c 1,20,-1
 1013 141 l 1,21,22
 975 123 975 123 931 106 c 128,-1,23
 887 89 887 89 835 72 c 0,24,25
 781 54 781 54 720.5 40 c 128,-1,26
 660 26 660 26 599 16 c 0,27,28
 554 9 554 9 505 5 c 128,-1,29
 456 1 456 1 408 1 c 0,30,31
 395 1 395 1 381.5 1.5 c 128,-1,32
 368 2 368 2 356 3 c 0,33,34
 294 5 294 5 240 19.5 c 128,-1,35
 186 34 186 34 142 60 c 1,36,-1
 143 60 l 1,37,38
 43 116 43 116 7 220 c 0,39,40
 -13 277 -13 277 -13 337 c 0,41,42
 -13 422 -13 422 28 516 c 1,43,44
 63 593 63 593 98 659.5 c 128,-1,45
 133 726 133 726 170 785 c 1,46,47
 192 813 192 813 217 813 c 0,48,49
 222 813 222 813 226 813 c 128,-1,50
 230 813 230 813 232 812 c 0,51,52
 261 800 261 800 261 770 c 0,53,54
 261 759 261 759 253 737 c 1,55,56
 169 581 169 581 169 490 c 0,57,58
 169 453 169 453 185 425 c 0,59,60
 239 334 239 334 369 316 c 0,61,62
 395 312 395 312 420.5 310 c 128,-1,63
 446 308 446 308 472 308 c 0,64,65
 569 308 569 308 682 331 c 0,0,1
1242 619 m 1,66,67
 1238 618 1238 618 1232 616 c 1,68,-1
 1225 620 l 1,69,-1
 1242 619 l 1,66,67
1277 548 m 0,70,71
 1256 600 1256 600 1232 616 c 1,72,73
 1215 609 1215 609 1202.5 598.5 c 128,-1,74
 1190 588 1190 588 1179 575 c 1,75,-1
 1126 504 l 2,76,77
 1119 493 1119 493 1119 487 c 0,78,79
 1119 482 1119 482 1122 476 c 0,80,81
 1133 455 1133 455 1144 447 c 1,82,83
 1198 453 1198 453 1269 486 c 1,84,-1
 1269 485 l 1,85,86
 1285 492 1285 492 1285 511 c 0,87,88
 1285 528 1285 528 1277 548 c 0,70,71
1396 1389 m 1,89,90
 1367 1327 1367 1327 1328 1270 c 128,-1,91
 1289 1213 1289 1213 1247 1159 c 0,92,93
 1239 1150 1239 1150 1232.5 1145.5 c 128,-1,94
 1226 1141 1226 1141 1215 1141 c 0,95,96
 1203 1141 1203 1141 1193 1150.5 c 128,-1,97
 1183 1160 1183 1160 1176 1176 c 0,98,99
 1159 1215 1159 1215 1141.5 1239 c 128,-1,100
 1124 1263 1124 1263 1107 1263 c 2,101,-1
 1102 1263 l 1,102,103
 1081 1259 1081 1259 1058 1245 c 128,-1,104
 1035 1231 1035 1231 1014 1206 c 1,105,106
 988 1178 988 1178 966.5 1146 c 128,-1,107
 945 1114 945 1114 925 1079 c 0,108,109
 904 1041 904 1041 889.5 1015.5 c 128,-1,110
 875 990 875 990 864 977 c 0,111,112
 859 970 859 970 851.5 968 c 128,-1,113
 844 966 844 966 837 968 c 128,-1,114
 830 970 830 970 825.5 976 c 128,-1,115
 821 982 821 982 821 991 c 2,116,-1
 820 1077 l 1,117,-1
 822 1085 l 1,118,119
 834 1110 834 1110 854 1147.5 c 128,-1,120
 874 1185 874 1185 900 1229 c 0,121,122
 924 1270 924 1270 953.5 1314 c 128,-1,123
 983 1358 983 1358 1015 1400 c 0,124,125
 1046 1440 1046 1440 1080 1474 c 128,-1,126
 1114 1508 1114 1508 1149 1534 c 1,127,128
 1184 1557 1184 1557 1219 1557 c 0,129,130
 1245 1557 1245 1557 1269.5 1545 c 128,-1,131
 1294 1533 1294 1533 1320 1510 c 1,132,133
 1362 1469 1362 1469 1395 1411 c 1,134,-1
 1396 1389 l 1,89,90
EndSplineSet
EndChar
StartChar: uniFB6C
Encoding: 64364 64364 172
Width: 800
GlyphClass: 2
Flags: W
LayerCount: 2
Fore
SplineSet
553 558 m 2,0,1
 554 558 554 558 556 560 c 2,2,-1
 553 558 l 2,0,1
595 266 m 1,3,4
 553 217 553 217 506.5 180 c 128,-1,5
 460 143 460 143 410.5 116 c 128,-1,6
 361 89 361 89 308.5 70.5 c 128,-1,7
 256 52 256 52 202 40 c 2,8,-1
 12 0 l 2,9,10
 -3 -3 -3 -3 -12.5 8 c 128,-1,11
 -22 19 -22 19 -15 34 c 2,12,-1
 108 301 l 2,13,14
 110 306 110 306 116 310.5 c 128,-1,15
 122 315 122 315 127 316 c 0,16,17
 183 325 183 325 242.5 337 c 128,-1,18
 302 349 302 349 366 365 c 1,19,20
 424 381 424 381 477.5 404 c 128,-1,21
 531 427 531 427 574 460 c 1,22,23
 569 474 569 474 564.5 487.5 c 128,-1,24
 560 501 560 501 555 515 c 0,25,26
 545 543 545 543 544 551 c 1,27,28
 512 526 512 526 463 511 c 0,29,30
 452 507 452 507 440.5 505.5 c 128,-1,31
 429 504 429 504 418 504 c 0,32,33
 382 504 382 504 348 521 c 0,34,35
 309 540 309 540 306 594 c 0,36,37
 305 597 305 597 305 603 c 0,38,39
 305 625 305 625 309 643.5 c 128,-1,40
 313 662 313 662 323 678 c 1,41,-1
 323 677 l 1,42,43
 333 695 333 695 341.5 713 c 128,-1,44
 350 731 350 731 359 749 c 0,45,46
 381 794 381 794 404 838 c 128,-1,47
 427 882 427 882 458 924 c 0,48,49
 495 974 495 974 541 974 c 0,50,51
 556 974 556 974 570 968.5 c 128,-1,52
 584 963 584 963 599 953 c 0,53,54
 632 930 632 930 658 899 c 128,-1,55
 684 868 684 868 704 829 c 0,56,57
 743 751 743 751 743 658 c 0,58,59
 743 629 743 629 739.5 596.5 c 128,-1,60
 736 564 736 564 727 532 c 1,61,62
 707 449 707 449 673.5 381.5 c 128,-1,63
 640 314 640 314 595 265 c 1,64,-1
 595 266 l 1,3,4
836 1389 m 1,65,66
 807 1327 807 1327 768 1270 c 128,-1,67
 729 1213 729 1213 687 1159 c 0,68,69
 680 1150 680 1150 673 1145.5 c 128,-1,70
 666 1141 666 1141 655 1141 c 0,71,72
 643 1141 643 1141 633 1150.5 c 128,-1,73
 623 1160 623 1160 617 1176 c 0,74,75
 600 1215 600 1215 582 1239 c 128,-1,76
 564 1263 564 1263 547 1263 c 2,77,-1
 542 1263 l 1,78,79
 521 1259 521 1259 498 1245 c 128,-1,80
 475 1231 475 1231 454 1206 c 0,81,82
 429 1178 429 1178 407.5 1146 c 128,-1,83
 386 1114 386 1114 366 1079 c 0,84,85
 344 1041 344 1041 329.5 1015.5 c 128,-1,86
 315 990 315 990 305 977 c 0,87,88
 299 970 299 970 291.5 968 c 128,-1,89
 284 966 284 966 277.5 968 c 128,-1,90
 271 970 271 970 266 976 c 128,-1,91
 261 982 261 982 261 991 c 2,92,-1
 260 1077 l 1,93,-1
 262 1085 l 1,94,95
 275 1110 275 1110 295 1147.5 c 128,-1,96
 315 1185 315 1185 340 1229 c 0,97,98
 364 1270 364 1270 394 1314 c 128,-1,99
 424 1358 424 1358 455 1400 c 1,100,101
 486 1440 486 1440 520 1474 c 128,-1,102
 554 1508 554 1508 590 1534 c 1,103,104
 625 1557 625 1557 659 1557 c 0,105,106
 685 1557 685 1557 710 1545 c 128,-1,107
 735 1533 735 1533 761 1510 c 1,108,109
 804 1468 804 1468 835 1411 c 1,110,-1
 836 1389 l 1,65,66
EndSplineSet
EndChar
StartChar: uniFB6D
Encoding: 64365 64365 173
Width: 569
GlyphClass: 2
Flags: W
LayerCount: 2
Fore
SplineSet
676 581 m 1,0,1
 670 579 670 579 666 577 c 1,2,-1
 658 582 l 1,3,-1
 676 581 l 1,0,1
711 509 m 0,4,5
 690 561 690 561 666 577 c 1,6,7
 633 564 633 564 612 537 c 2,8,-1
 559 466 l 1,9,10
 552 454 552 454 552 448 c 0,11,12
 552 444 552 444 555 438 c 0,13,14
 565 418 565 418 577 409 c 1,15,16
 632 415 632 415 702 447 c 0,17,18
 718 455 718 455 718 473 c 0,19,20
 718 489 718 489 711 509 c 0,4,5
480 110 m 0,21,22
 410 90 410 90 341.5 73 c 128,-1,23
 273 56 273 56 206 42 c 2,24,-1
 14 1 l 2,25,26
 -2 -3 -2 -3 -11 8 c 128,-1,27
 -20 19 -20 19 -13 34 c 2,28,-1
 110 301 l 2,29,30
 112 305 112 305 118 309.5 c 128,-1,31
 124 314 124 314 129 315 c 2,32,-1
 223 330 l 1,33,34
 268 336 268 336 304.5 341.5 c 128,-1,35
 341 347 341 347 386 355 c 1,36,37
 436 464 436 464 500 571.5 c 128,-1,38
 564 679 564 679 637 766 c 0,39,40
 680 817 680 817 723.5 843.5 c 128,-1,41
 767 870 767 870 808 870 c 0,42,43
 840 870 840 870 872 853 c 0,44,45
 949 812 949 812 949 706 c 0,46,47
 949 656 949 656 933 595 c 1,48,49
 871 429 871 429 766 297 c 0,50,51
 657 161 657 161 480 110 c 0,21,22
1068 1389 m 1,52,53
 1039 1327 1039 1327 1000 1270 c 128,-1,54
 961 1213 961 1213 919 1159 c 0,55,56
 912 1150 912 1150 905 1145.5 c 128,-1,57
 898 1141 898 1141 887 1141 c 0,58,59
 875 1141 875 1141 865 1150.5 c 128,-1,60
 855 1160 855 1160 849 1176 c 0,61,62
 832 1215 832 1215 814 1239 c 128,-1,63
 796 1263 796 1263 779 1263 c 2,64,-1
 774 1263 l 1,65,66
 753 1259 753 1259 730 1245 c 128,-1,67
 707 1231 707 1231 686 1206 c 0,68,69
 661 1178 661 1178 639 1146 c 128,-1,70
 617 1114 617 1114 597 1079 c 0,71,72
 576 1041 576 1041 561.5 1015.5 c 128,-1,73
 547 990 547 990 537 977 c 0,74,75
 531 970 531 970 523.5 968 c 128,-1,76
 516 966 516 966 509.5 968 c 128,-1,77
 503 970 503 970 498 976 c 128,-1,78
 493 982 493 982 493 991 c 2,79,-1
 492 1077 l 1,80,-1
 494 1085 l 1,81,82
 507 1110 507 1110 527 1147.5 c 128,-1,83
 547 1185 547 1185 572 1229 c 0,84,85
 596 1270 596 1270 626 1314 c 128,-1,86
 656 1358 656 1358 687 1400 c 1,87,88
 718 1440 718 1440 752 1474 c 128,-1,89
 786 1508 786 1508 822 1534 c 1,90,91
 857 1557 857 1557 891 1557 c 0,92,93
 917 1557 917 1557 942 1545 c 128,-1,94
 967 1533 967 1533 993 1510 c 1,95,96
 1036 1468 1036 1468 1067 1411 c 1,97,-1
 1068 1389 l 1,52,53
EndSplineSet
EndChar
StartChar: uniFB7B
Encoding: 64379 64379 175
Width: 1412
GlyphClass: 2
Flags: W
LayerCount: 2
Fore
SplineSet
168 -189 m 1,0,1
 264 -299 264 -299 398 -344 c 1,2,3
 535 -392 535 -392 686 -396 c 0,4,5
 698 -397 698 -397 710.5 -397 c 128,-1,6
 723 -397 723 -397 737 -397 c 0,7,8
 860 -397 860 -397 989 -376 c 0,9,10
 1069 -362 1069 -362 1139.5 -348 c 128,-1,11
 1210 -334 1210 -334 1271 -318 c 0,12,13
 1292 -312 1292 -312 1301 -312 c 0,14,15
 1318 -312 1318 -312 1323.5 -320.5 c 128,-1,16
 1329 -329 1329 -329 1329 -338 c 0,17,18
 1329 -343 1329 -343 1328 -348 c 128,-1,19
 1327 -353 1327 -353 1322 -359 c 1,20,-1
 1323 -357 l 1,21,22
 1198 -506 1198 -506 994 -601 c 1,23,-1
 995 -601 l 1,24,25
 894 -649 894 -649 793 -676 c 128,-1,26
 692 -703 692 -703 589 -709 c 0,27,28
 574 -710 574 -710 559 -710.5 c 128,-1,29
 544 -711 544 -711 530 -711 c 0,30,31
 362 -711 362 -711 220 -642 c 1,32,-1
 220 -643 l 1,33,34
 50 -560 50 -560 7 -354 c 0,35,36
 -14 -251 -14 -251 -14 -162 c 0,37,38
 -14 -65 -14 -65 10 19 c 0,39,40
 32 99 32 99 68 174.5 c 128,-1,41
 104 250 104 250 150 320.5 c 128,-1,42
 196 391 196 391 251 456 c 128,-1,43
 306 521 306 521 367 581 c 0,44,45
 398 611 398 611 424.5 637 c 128,-1,46
 451 663 451 663 476.5 688.5 c 128,-1,47
 502 714 502 714 527.5 740.5 c 128,-1,48
 553 767 553 767 582 797 c 1,49,50
 562 805 562 805 526.5 816.5 c 128,-1,51
 491 828 491 828 440 844 c 0,52,53
 362 867 362 867 311.5 884 c 128,-1,54
 261 901 261 901 239 909 c 1,55,56
 221 918 221 918 221 937 c 0,57,58
 221 965 221 965 273 1066 c 0,59,60
 299 1117 299 1117 317.5 1154 c 128,-1,61
 336 1191 336 1191 339 1196 c 0,62,63
 343 1203 343 1203 350.5 1206.5 c 128,-1,64
 358 1210 358 1210 366 1208 c 0,65,66
 423 1193 423 1193 478 1177.5 c 128,-1,67
 533 1162 533 1162 586 1147 c 0,68,69
 639 1133 639 1133 697.5 1106 c 128,-1,70
 756 1079 756 1079 816 1043 c 1,71,72
 847 1020 847 1020 847 990 c 0,73,74
 847 987 847 987 845.5 980.5 c 128,-1,75
 844 974 844 974 842 966 c 0,76,77
 826 921 826 921 805 878 c 128,-1,78
 784 835 784 835 758 796 c 0,79,80
 735 763 735 763 690 710 c 128,-1,81
 645 657 645 657 581 588 c 0,82,83
 521 522 521 522 459 449 c 128,-1,84
 397 376 397 376 338 301 c 1,85,86
 223 151 223 151 157 11 c 0,87,88
 129 -49 129 -49 129 -96 c 0,89,90
 129 -149 129 -149 167 -189 c 1,91,-1
 168 -189 l 1,0,1
939 209 m 1,92,93
 910 148 910 148 871 90.5 c 128,-1,94
 832 33 832 33 790 -21 c 0,95,96
 782 -30 782 -30 775.5 -34.5 c 128,-1,97
 769 -39 769 -39 758 -39 c 0,98,99
 746 -39 746 -39 736 -29.5 c 128,-1,100
 726 -20 726 -20 720 -4 c 1,101,102
 702 35 702 35 684.5 59 c 128,-1,103
 667 83 667 83 650 83 c 2,104,-1
 645 83 l 1,105,106
 624 79 624 79 601 65 c 128,-1,107
 578 51 578 51 557 26 c 1,108,109
 531 -2 531 -2 509.5 -33.5 c 128,-1,110
 488 -65 488 -65 468 -100 c 0,111,112
 447 -138 447 -138 432.5 -164 c 128,-1,113
 418 -190 418 -190 407 -203 c 0,114,115
 402 -210 402 -210 394.5 -212 c 128,-1,116
 387 -214 387 -214 380 -212 c 128,-1,117
 373 -210 373 -210 368.5 -203.5 c 128,-1,118
 364 -197 364 -197 364 -188 c 2,119,-1
 363 -102 l 1,120,-1
 365 -95 l 1,121,122
 377 -70 377 -70 397 -32.5 c 128,-1,123
 417 5 417 5 443 49 c 0,124,125
 467 90 467 90 497 134 c 128,-1,126
 527 178 527 178 558 220 c 1,127,128
 589 260 589 260 623 294 c 128,-1,129
 657 328 657 328 693 354 c 1,130,131
 728 377 728 377 762 377 c 0,132,133
 788 377 788 377 813 365 c 128,-1,134
 838 353 838 353 864 330 c 1,135,136
 885 310 885 310 903.5 285.5 c 128,-1,137
 922 261 922 261 938 231 c 1,138,-1
 939 209 l 1,92,93
EndSplineSet
EndChar
StartChar: uniFB7C
Encoding: 64380 64380 176
Width: 1143
GlyphClass: 2
Flags: W
LayerCount: 2
Fore
SplineSet
726 405 m 1,0,1
 725 406 725 406 725 407 c 2,2,-1
 722 414 l 1,3,-1
 734 416 l 1,4,-1
 733 416 l 1,5,6
 726 415 726 415 726 405 c 1,0,1
454 361 m 1,7,-1
 497 370 l 1,8,-1
 487 345 l 1,9,-1
 481 329 l 1,10,-1
 454 361 l 1,7,-1
579 499 m 0,11,12
 550 473 550 473 531 439.5 c 128,-1,13
 512 406 512 406 497 370 c 1,14,-1
 722 414 l 1,15,16
 709 443 709 443 694 463.5 c 128,-1,17
 679 484 679 484 661 499 c 1,18,-1
 662 499 l 1,19,20
 638 517 638 517 619 517 c 256,21,22
 600 517 600 517 579 499 c 0,11,12
113 302 m 2,23,24
 115 307 115 307 122 311.5 c 128,-1,25
 129 316 129 316 135 316 c 1,26,-1
 139 317 l 1,27,-1
 135 317 l 1,28,-1
 391 356 l 1,29,30
 400 380 400 380 413 412 c 128,-1,31
 426 444 426 444 442 481 c 0,32,33
 461 526 461 526 483 567.5 c 128,-1,34
 505 609 505 609 531 647 c 1,35,36
 557 688 557 688 587.5 719 c 128,-1,37
 618 750 618 750 652 773 c 0,38,39
 692 800 692 800 738 800 c 0,40,41
 772 800 772 800 810 782 c 0,42,43
 841 767 841 767 865.5 743 c 128,-1,44
 890 719 890 719 909.5 688.5 c 128,-1,45
 929 658 929 658 943.5 622.5 c 128,-1,46
 958 587 958 587 970 548 c 1,47,48
 987 530 987 530 1010 530 c 0,49,50
 1029 530 1029 530 1051 541 c 0,51,52
 1059 545 1059 545 1066.5 543.5 c 128,-1,53
 1074 542 1074 542 1079 537 c 128,-1,54
 1084 532 1084 532 1085.5 524.5 c 128,-1,55
 1087 517 1087 517 1084 509 c 2,56,-1
 957 237 l 2,57,58
 955 234 955 234 950 229 c 128,-1,59
 945 224 945 224 943 223 c 0,60,61
 876 202 876 202 805.5 184 c 128,-1,62
 735 166 735 166 662 149 c 0,63,64
 595 134 595 134 528 118.5 c 128,-1,65
 461 103 461 103 382 83 c 1,66,67
 379 75 379 75 377 65 c 128,-1,68
 375 55 375 55 372 42 c 0,69,70
 363 -10 363 -10 323 -22 c 0,71,72
 318 -24 318 -24 315 -24 c 128,-1,73
 312 -24 312 -24 309 -24 c 0,74,75
 272 -24 272 -24 272 13 c 0,76,77
 272 15 272 15 272 18.5 c 128,-1,78
 272 22 272 22 274 27 c 1,79,-1
 274 24 l 1,80,-1
 281 57 l 1,81,82
 265 53 265 53 248 50 c 128,-1,83
 231 47 231 47 214 44 c 1,84,85
 208 40 208 40 204 40 c 0,86,87
 172 34 172 34 141 28.5 c 128,-1,88
 110 23 110 23 79 16 c 2,89,-1
 83 17 l 2,90,91
 66 12 66 12 55 11 c 1,92,93
 45 9 45 9 34.5 6 c 128,-1,94
 24 3 24 3 14 1 c 0,95,96
 -1 -2 -1 -2 -10.5 9.5 c 128,-1,97
 -20 21 -20 21 -13 36 c 2,98,-1
 113 302 l 2,23,24
819 -130 m 1,99,100
 790 -192 790 -192 751 -249 c 128,-1,101
 712 -306 712 -306 670 -360 c 0,102,103
 662 -369 662 -369 655.5 -373.5 c 128,-1,104
 649 -378 649 -378 638 -378 c 0,105,106
 626 -378 626 -378 616 -368.5 c 128,-1,107
 606 -359 606 -359 600 -343 c 1,108,109
 582 -304 582 -304 564.5 -280 c 128,-1,110
 547 -256 547 -256 530 -256 c 2,111,-1
 525 -256 l 1,112,113
 504 -260 504 -260 481 -274 c 128,-1,114
 458 -288 458 -288 437 -312 c 1,115,-1
 437 -311 l 1,116,117
 412 -339 412 -339 390 -371 c 128,-1,118
 368 -403 368 -403 348 -440 c 0,119,120
 327 -478 327 -478 312.5 -503.5 c 128,-1,121
 298 -529 298 -529 287 -542 c 0,122,123
 282 -549 282 -549 274.5 -551 c 128,-1,124
 267 -553 267 -553 260 -551 c 128,-1,125
 253 -549 253 -549 248.5 -543 c 128,-1,126
 244 -537 244 -537 244 -528 c 2,127,-1
 243 -442 l 1,128,-1
 245 -434 l 1,129,130
 257 -409 257 -409 277 -371.5 c 128,-1,131
 297 -334 297 -334 323 -290 c 0,132,133
 347 -249 347 -249 377 -205 c 128,-1,134
 407 -161 407 -161 438 -119 c 1,135,136
 469 -79 469 -79 503 -45 c 128,-1,137
 537 -11 537 -11 573 14 c 0,138,139
 607 38 607 38 642 38 c 0,140,141
 668 38 668 38 693 26 c 128,-1,142
 718 14 718 14 744 -9 c 1,143,144
 787 -51 787 -51 818 -108 c 1,145,-1
 819 -130 l 1,99,100
EndSplineSet
EndChar
StartChar: uniFB7D
Encoding: 64381 64381 177
Width: 1052
GlyphClass: 2
Flags: W
LayerCount: 2
Fore
SplineSet
775 517 m 1,0,1
 773 517 773 517 771 519 c 2,2,-1
 773 518 l 1,3,4
 716 538 716 538 661.5 551.5 c 128,-1,5
 607 565 607 565 551 577 c 0,6,7
 528 582 528 582 505 586 c 128,-1,8
 482 590 482 590 458 596 c 1,9,10
 429 601 429 601 429 632 c 0,11,12
 429 648 429 648 437 668 c 1,13,-1
 437 667 l 1,14,15
 454 706 454 706 472.5 744.5 c 128,-1,16
 491 783 491 783 511 822 c 2,17,-1
 547 891 l 2,18,19
 550 898 550 898 557.5 901 c 128,-1,20
 565 904 565 904 573 903 c 1,21,22
 579 901 579 901 588 899.5 c 128,-1,23
 597 898 597 898 605 896 c 1,24,-1
 604 896 l 1,25,26
 636 888 636 888 678.5 878 c 128,-1,27
 721 868 721 868 775 855 c 0,28,29
 842 840 842 840 892.5 820.5 c 128,-1,30
 943 801 943 801 972 778 c 1,31,32
 998 756 998 756 999 726 c 1,33,-1
 999 715 l 2,34,35
 999 673 999 673 983 643 c 0,36,37
 978 632 978 632 969 614 c 128,-1,38
 960 596 960 596 954 586 c 1,39,-1
 955 587 l 1,40,41
 936 546 936 546 912 507 c 128,-1,42
 888 468 888 468 862 427 c 1,43,-1
 863 428 l 1,44,45
 859 421 859 421 854 414.5 c 128,-1,46
 849 408 849 408 845 401 c 0,47,48
 696 173 696 173 476 112 c 0,49,50
 370 83 370 83 266 57.5 c 128,-1,51
 162 32 162 32 59 11 c 1,52,-1
 13 0 l 2,53,54
 -3 -3 -3 -3 -12 8.5 c 128,-1,55
 -21 20 -21 20 -14 35 c 2,56,-1
 112 302 l 2,57,58
 114 307 114 307 121 311.5 c 128,-1,59
 128 316 128 316 134 316 c 1,60,-1
 138 318 l 1,61,-1
 134 318 l 1,62,63
 231 332 231 332 310 347 c 128,-1,64
 389 362 389 362 449 377 c 1,65,66
 509 394 509 394 592.5 429.5 c 128,-1,67
 676 465 676 465 775 517 c 1,0,1
788 -111 m 1,68,69
 760 -172 760 -172 720.5 -229.5 c 128,-1,70
 681 -287 681 -287 639 -341 c 0,71,72
 632 -350 632 -350 625.5 -354.5 c 128,-1,73
 619 -359 619 -359 608 -359 c 0,74,75
 595 -359 595 -359 585.5 -349.5 c 128,-1,76
 576 -340 576 -340 569 -324 c 0,77,78
 552 -285 552 -285 534 -261 c 128,-1,79
 516 -237 516 -237 499 -237 c 2,80,-1
 494 -237 l 1,81,82
 473 -241 473 -241 450.5 -255 c 128,-1,83
 428 -269 428 -269 407 -293 c 1,84,-1
 407 -292 l 1,85,86
 382 -320 382 -320 360 -352 c 128,-1,87
 338 -384 338 -384 318 -420 c 0,88,89
 276 -497 276 -497 257 -523 c 0,90,91
 251 -530 251 -530 243.5 -532 c 128,-1,92
 236 -534 236 -534 229.5 -531.5 c 128,-1,93
 223 -529 223 -529 218 -523 c 128,-1,94
 213 -517 213 -517 213 -508 c 2,95,-1
 212 -422 l 1,96,-1
 214 -415 l 1,97,98
 227 -390 227 -390 247 -352.5 c 128,-1,99
 267 -315 267 -315 293 -271 c 1,100,101
 316 -229 316 -229 346 -185.5 c 128,-1,102
 376 -142 376 -142 407 -100 c 0,103,104
 470 -17 470 -17 542 34 c 1,105,106
 577 57 577 57 611 57 c 0,107,108
 661 57 661 57 713 11 c 1,109,110
 757 -31 757 -31 787 -89 c 1,111,-1
 788 -111 l 1,68,69
EndSplineSet
EndChar
StartChar: uniFB87
Encoding: 64391 64391 179
Width: 845
GlyphClass: 2
Flags: W
LayerCount: 2
Fore
SplineSet
797 289 m 0,0,1
 792 272 792 272 783.5 261 c 128,-1,2
 775 250 775 250 761 244 c 1,3,4
 732 222 732 222 707.5 189.5 c 128,-1,5
 683 157 683 157 661 122 c 0,6,7
 626 68 626 68 585 39.5 c 128,-1,8
 544 11 544 11 495 3 c 0,9,10
 486 2 486 2 475 1.5 c 128,-1,11
 464 1 464 1 454 1 c 0,12,13
 386 1 386 1 308 25 c 0,14,15
 293 30 293 30 254 45.5 c 128,-1,16
 215 61 215 61 149 88 c 1,17,18
 84 116 84 116 45 135.5 c 128,-1,19
 6 155 6 155 -7 167 c 0,20,21
 -20 180 -20 180 -20 195 c 256,22,23
 -20 210 -20 210 -9.5 219 c 128,-1,24
 1 228 1 228 18 233 c 0,25,26
 87 250 87 250 165.5 261.5 c 128,-1,27
 244 273 244 273 317 278 c 0,28,29
 389 283 389 283 467 292.5 c 128,-1,30
 545 302 545 302 616 313 c 1,31,32
 664 322 664 322 700 355 c 0,33,34
 719 373 719 373 744 373 c 0,35,36
 749 373 749 373 751.5 373 c 128,-1,37
 754 373 754 373 759 371 c 1,38,-1
 758 371 l 1,39,40
 801 359 801 359 801 315 c 0,41,42
 801 302 801 302 797 289 c 0,0,1
894 949 m 1,43,44
 865 888 865 888 826 830.5 c 128,-1,45
 787 773 787 773 745 719 c 0,46,47
 737 710 737 710 730.5 706 c 128,-1,48
 724 702 724 702 713 702 c 0,49,50
 700 702 700 702 690.5 711 c 128,-1,51
 681 720 681 720 674 736 c 0,52,53
 657 776 657 776 639.5 799.5 c 128,-1,54
 622 823 622 823 605 823 c 2,55,-1
 600 823 l 1,56,57
 579 819 579 819 556 805 c 128,-1,58
 533 791 533 791 512 766 c 1,59,60
 486 739 486 739 464.5 707 c 128,-1,61
 443 675 443 675 423 640 c 0,62,63
 402 602 402 602 387.5 576.5 c 128,-1,64
 373 551 373 551 362 537 c 0,65,66
 357 530 357 530 349.5 528 c 128,-1,67
 342 526 342 526 335 528.5 c 128,-1,68
 328 531 328 531 323.5 537 c 128,-1,69
 319 543 319 543 319 552 c 2,70,-1
 318 638 l 1,71,-1
 320 645 l 1,72,73
 332 670 332 670 352 707.5 c 128,-1,74
 372 745 372 745 398 789 c 0,75,76
 422 831 422 831 451.5 875 c 128,-1,77
 481 919 481 919 513 961 c 0,78,79
 543 1001 543 1001 577.5 1034.5 c 128,-1,80
 612 1068 612 1068 647 1094 c 1,81,82
 682 1117 682 1117 717 1117 c 0,83,84
 743 1117 743 1117 767.5 1105.5 c 128,-1,85
 792 1094 792 1094 818 1071 c 1,86,87
 861 1030 861 1030 893 971 c 1,88,-1
 894 949 l 1,43,44
EndSplineSet
EndChar
StartChar: uniFB88
Encoding: 64392 64392 180
Width: 752
GlyphClass: 2
Flags: W
LayerCount: 2
Fore
SplineSet
616 877 m 2,0,1
 625 890 625 890 638.5 889 c 128,-1,2
 652 888 652 888 659 874 c 1,3,-1
 682 819 l 1,4,5
 693 790 693 790 701.5 754 c 128,-1,6
 710 718 710 718 715 674 c 0,7,8
 716 662 716 662 716.5 649 c 128,-1,9
 717 636 717 636 717 623 c 0,10,11
 717 590 717 590 713 553.5 c 128,-1,12
 709 517 709 517 700 475 c 0,13,14
 676 362 676 362 582 250 c 1,15,16
 513 170 513 170 427 125 c 1,17,-1
 428 125 l 1,18,19
 356 87 356 87 224 54 c 0,20,21
 159 38 159 38 106.5 25 c 128,-1,22
 54 12 54 12 12 1 c 0,23,24
 -5 -4 -5 -4 -14 8.5 c 128,-1,25
 -23 21 -23 21 -15 36 c 2,26,-1
 132 300 l 2,27,28
 134 302 134 302 139.5 306.5 c 128,-1,29
 145 311 145 311 149 312 c 0,30,31
 194 320 194 320 244 331.5 c 128,-1,32
 294 343 294 343 349 358 c 0,33,34
 401 372 401 372 444 386 c 128,-1,35
 487 400 487 400 521 415 c 1,36,37
 519 432 519 432 514.5 454 c 128,-1,38
 510 476 510 476 503 502 c 1,39,40
 492 537 492 537 482 570 c 128,-1,41
 472 603 472 603 461 632 c 0,42,43
 460 636 460 636 461 642.5 c 128,-1,44
 462 649 462 649 464 653 c 2,45,-1
 616 877 l 2,0,1
636 1120 m 1,46,-1
 644 1124 l 1,47,-1
 636 1120 l 1,46,-1
635 1120 m 1,48,49
 630 1115 630 1115 630 1109 c 1,50,-1
 631 1107 l 2,51,52
 630 1108 630 1108 630 1108 c 1,53,-1
 624 1115 l 1,54,55
 630 1116 630 1116 635 1120 c 1,48,49
579 1099 m 1,56,57
 602 1106 602 1106 624 1115 c 1,58,59
 621 1118 621 1118 617 1118 c 0,60,61
 614 1118 614 1118 608.5 1116 c 128,-1,62
 603 1114 603 1114 599 1112 c 0,63,64
 590 1107 590 1107 579 1099 c 1,56,57
494 1080 m 1,65,66
 516 1085 516 1085 537.5 1089 c 128,-1,67
 559 1093 559 1093 579 1099 c 1,68,69
 565 1088 565 1088 552.5 1075.5 c 128,-1,70
 540 1063 540 1063 526 1049 c 1,71,-1
 517 1039 l 1,72,-1
 494 1080 l 1,65,66
707 1088 m 1,73,74
 669 1037 669 1037 609 1001.5 c 128,-1,75
 549 966 549 966 465 943 c 0,76,77
 425 933 425 933 386 933 c 2,78,-1
 377 933 l 1,79,80
 329 938 329 938 298 960 c 0,81,82
 281 973 281 973 262.5 985 c 128,-1,83
 244 997 244 997 225 1009 c 1,84,85
 214 1020 214 1020 214 1032 c 0,86,87
 214 1046 214 1046 223 1052.5 c 128,-1,88
 232 1059 232 1059 247 1059 c 1,89,90
 258 1058 258 1058 268 1058 c 128,-1,91
 278 1058 278 1058 289 1058 c 0,92,93
 326 1058 326 1058 359 1061 c 0,94,95
 385 1063 385 1063 407.5 1065.5 c 128,-1,96
 430 1068 430 1068 455 1073 c 1,97,98
 490 1114 490 1114 525 1150 c 128,-1,99
 560 1186 560 1186 592 1217 c 1,100,101
 616 1238 616 1238 658 1247 c 0,102,103
 662 1248 662 1248 678 1248 c 0,104,105
 715 1248 715 1248 737 1220 c 0,106,107
 745 1209 745 1209 750.5 1197.5 c 128,-1,108
 756 1186 756 1186 756 1174 c 0,109,110
 756 1164 756 1164 752.5 1155 c 128,-1,111
 749 1146 749 1146 744 1138 c 1,112,-1
 744 1139 l 1,113,-1
 707 1089 l 1,114,-1
 707 1088 l 1,73,74
444 1332 m 1,115,-1
 505 1429 l 2,116,117
 509 1436 509 1436 516.5 1439 c 128,-1,118
 524 1442 524 1442 531 1440 c 128,-1,119
 538 1438 538 1438 543.5 1432.5 c 128,-1,120
 549 1427 549 1427 549 1418 c 2,121,-1
 566 1163 l 1,122,-1
 505 1066 l 2,123,124
 495 1051 495 1051 478.5 1054.5 c 128,-1,125
 462 1058 462 1058 460 1076 c 2,126,-1
 444 1332 l 1,115,-1
EndSplineSet
MultipleSubs2: "'fina' Terminal Forms in Arabic lookup 2 subtable" _.notdef_13 _.notdef_315
MultipleSubs2: "'isol' Isolated Forms in Arabic lookup 0 subtable" _.notdef_12 _.notdef_315
EndChar
StartChar: uniFB89
Encoding: 64393 64393 181
Width: 845
GlyphClass: 2
Flags: W
LayerCount: 2
Fore
SplineSet
797 289 m 0,0,1
 786 255 786 255 761 244 c 1,2,3
 732 222 732 222 707 189.5 c 128,-1,4
 682 157 682 157 660 122 c 0,5,6
 626 68 626 68 585 39.5 c 128,-1,7
 544 11 544 11 495 3 c 0,8,9
 486 2 486 2 475 1.5 c 128,-1,10
 464 1 464 1 454 1 c 0,11,12
 386 1 386 1 308 25 c 0,13,14
 292 30 292 30 253 45.5 c 128,-1,15
 214 61 214 61 148 88 c 1,16,17
 17 144 17 144 -7 167 c 0,18,19
 -20 180 -20 180 -20 195 c 256,20,21
 -20 210 -20 210 -9.5 219 c 128,-1,22
 1 228 1 228 18 233 c 0,23,24
 87 250 87 250 165.5 261.5 c 128,-1,25
 244 273 244 273 316 278 c 256,26,27
 388 283 388 283 466 292.5 c 128,-1,28
 544 302 544 302 616 313 c 1,29,30
 664 322 664 322 700 355 c 0,31,32
 719 373 719 373 744 373 c 0,33,34
 748 373 748 373 751 373 c 128,-1,35
 754 373 754 373 759 371 c 1,36,-1
 758 371 l 1,37,38
 801 359 801 359 801 315 c 0,39,40
 801 302 801 302 797 289 c 0,0,1
748 770 m 1,41,-1
 756 774 l 1,42,-1
 748 770 l 1,41,-1
747 770 m 1,43,44
 742 765 742 765 742 760 c 1,45,-1
 743 758 l 2,46,47
 742 759 742 759 742 759 c 1,48,-1
 736 765 l 1,49,50
 742 766 742 766 747 770 c 1,43,44
691 749 m 1,51,52
 703 753 703 753 714 757 c 128,-1,53
 725 761 725 761 736 765 c 1,54,55
 733 768 733 768 729 768 c 0,56,57
 726 768 726 768 721 766 c 128,-1,58
 716 764 716 764 711 762 c 256,59,60
 706 760 706 760 701 756.5 c 128,-1,61
 696 753 696 753 691 749 c 1,51,52
606 731 m 1,62,63
 628 735 628 735 649.5 739 c 128,-1,64
 671 743 671 743 691 749 c 1,65,66
 677 738 677 738 664.5 726 c 128,-1,67
 652 714 652 714 638 700 c 1,68,-1
 629 689 l 1,69,-1
 606 731 l 1,62,63
819 738 m 1,70,71
 744 638 744 638 577 593 c 1,72,73
 535 584 535 584 498 584 c 2,74,-1
 489 584 l 1,75,76
 466 586 466 586 446 592.5 c 128,-1,77
 426 599 426 599 410 610 c 0,78,79
 393 623 393 623 374.5 635.5 c 128,-1,80
 356 648 356 648 337 659 c 1,81,82
 326 670 326 670 326 682 c 0,83,84
 326 696 326 696 335 702.5 c 128,-1,85
 344 709 344 709 359 709 c 1,86,87
 370 708 370 708 380.5 708 c 128,-1,88
 391 708 391 708 402 708 c 0,89,90
 419 708 419 708 436.5 708.5 c 128,-1,91
 454 709 454 709 471 711 c 0,92,93
 497 713 497 713 519.5 715.5 c 128,-1,94
 542 718 542 718 567 723 c 1,95,96
 602 764 602 764 637 800 c 128,-1,97
 672 836 672 836 704 867 c 1,98,99
 728 888 728 888 770 897 c 0,100,101
 774 898 774 898 778.5 898.5 c 128,-1,102
 783 899 783 899 790 899 c 0,103,104
 826 899 826 899 849 871 c 0,105,106
 868 847 868 847 868 824 c 0,107,108
 868 806 868 806 856 789 c 2,109,-1
 819 739 l 1,110,-1
 819 738 l 1,70,71
556 982 m 1,111,-1
 617 1079 l 2,112,113
 622 1087 622 1087 629.5 1089.5 c 128,-1,114
 637 1092 637 1092 643.5 1090.5 c 128,-1,115
 650 1089 650 1089 655.5 1083 c 128,-1,116
 661 1077 661 1077 661 1068 c 2,117,-1
 678 814 l 1,118,-1
 617 716 l 2,119,120
 607 701 607 701 590.5 705 c 128,-1,121
 574 709 574 709 573 727 c 2,122,-1
 556 982 l 1,111,-1
EndSplineSet
EndChar
StartChar: uniFB8B
Encoding: 64395 64395 183
Width: 769
GlyphClass: 2
Flags: W
LayerCount: 2
Fore
SplineSet
740 388 m 0,0,1
 740 354 740 354 719 335 c 1,2,3
 700 311 700 311 684.5 275 c 128,-1,4
 669 239 669 239 655 190 c 0,5,6
 619 71 619 71 529 30 c 1,7,8
 494 16 494 16 449.5 8 c 128,-1,9
 405 0 405 0 351 0 c 2,10,-1
 343 0 l 1,11,12
 326 1 326 1 283 4.5 c 128,-1,13
 240 8 240 8 172 16 c 0,14,15
 102 25 102 25 60 33.5 c 128,-1,16
 18 42 18 42 2 50 c 1,17,-1
 3 50 l 1,18,19
 -9 55 -9 55 -14 64 c 128,-1,20
 -19 73 -19 73 -19 82 c 0,21,22
 -19 103 -19 103 7 119 c 0,23,24
 72 157 72 157 140.5 188.5 c 128,-1,25
 209 220 209 220 282 246 c 0,26,27
 354 272 354 272 423 300.5 c 128,-1,28
 492 329 492 329 559 361 c 0,29,30
 605 383 605 383 630 424 c 1,31,-1
 629 423 l 1,32,33
 648 456 648 456 681 456 c 0,34,35
 740 456 740 456 740 388 c 0,0,1
916 1034 m 1,36,37
 887 973 887 973 848 915.5 c 128,-1,38
 809 858 809 858 767 804 c 0,39,40
 760 795 760 795 753 791 c 128,-1,41
 746 787 746 787 735 787 c 0,42,43
 710 787 710 787 697 821 c 1,44,45
 679 861 679 861 661.5 884.5 c 128,-1,46
 644 908 644 908 627 908 c 2,47,-1
 622 908 l 1,48,49
 601 904 601 904 578 890 c 128,-1,50
 555 876 555 876 534 851 c 1,51,52
 508 824 508 824 486.5 792 c 128,-1,53
 465 760 465 760 445 725 c 0,54,55
 424 687 424 687 409.5 661.5 c 128,-1,56
 395 636 395 636 385 622 c 0,57,58
 379 615 379 615 371.5 613 c 128,-1,59
 364 611 364 611 357.5 613.5 c 128,-1,60
 351 616 351 616 346 622 c 128,-1,61
 341 628 341 628 341 637 c 2,62,-1
 340 723 l 1,63,-1
 342 731 l 1,64,65
 354 755 354 755 374 793 c 128,-1,66
 394 831 394 831 420 875 c 0,67,68
 444 916 444 916 474 960 c 128,-1,69
 504 1004 504 1004 535 1046 c 1,70,71
 566 1086 566 1086 600 1119.5 c 128,-1,72
 634 1153 634 1153 670 1179 c 1,73,74
 705 1202 705 1202 739 1202 c 0,75,76
 789 1202 789 1202 841 1156 c 1,77,78
 885 1114 885 1114 915 1056 c 1,79,-1
 916 1034 l 1,36,37
EndSplineSet
EndChar
StartChar: uniFB8D
Encoding: 64397 64397 185
Width: 769
GlyphClass: 2
Flags: W
LayerCount: 2
Fore
SplineSet
740 388 m 0,0,1
 740 354 740 354 719 335 c 1,2,3
 699 311 699 311 684 275 c 128,-1,4
 669 239 669 239 655 190 c 0,5,6
 619 71 619 71 528 30 c 1,7,8
 494 16 494 16 449.5 8 c 128,-1,9
 405 0 405 0 350 0 c 2,10,-1
 343 0 l 1,11,12
 326 1 326 1 282.5 4.5 c 128,-1,13
 239 8 239 8 172 16 c 0,14,15
 102 25 102 25 60 33.5 c 128,-1,16
 18 42 18 42 2 50 c 1,17,-1
 3 50 l 1,18,19
 -9 55 -9 55 -14.5 64 c 128,-1,20
 -20 73 -20 73 -20 82 c 0,21,22
 -20 102 -20 102 6 119 c 1,23,24
 71 157 71 157 139.5 188.5 c 128,-1,25
 208 220 208 220 282 246 c 0,26,27
 354 272 354 272 422.5 300.5 c 128,-1,28
 491 329 491 329 559 361 c 0,29,30
 603 382 603 382 630 424 c 1,31,-1
 629 423 l 1,32,33
 647 456 647 456 681 456 c 0,34,35
 740 456 740 456 740 388 c 0,0,1
757 878 m 1,36,-1
 765 882 l 1,37,-1
 757 878 l 1,36,-1
756 878 m 1,38,39
 750 873 750 873 750 868 c 1,40,-1
 751 866 l 2,41,42
 750 867 750 867 750 867 c 1,43,-1
 745 874 l 1,44,45
 751 875 751 875 756 878 c 1,38,39
700 857 m 1,46,47
 712 861 712 861 723 865 c 128,-1,48
 734 869 734 869 745 874 c 1,49,50
 741 876 741 876 738 876 c 256,51,52
 735 876 735 876 729.5 874.5 c 128,-1,53
 724 873 724 873 720 871 c 0,54,55
 715 868 715 868 710 864.5 c 128,-1,56
 705 861 705 861 700 857 c 1,46,47
615 839 m 1,57,58
 637 844 637 844 658.5 847.5 c 128,-1,59
 680 851 680 851 700 857 c 1,60,61
 686 847 686 847 673 834.5 c 128,-1,62
 660 822 660 822 647 808 c 2,63,-1
 637 797 l 1,64,-1
 615 839 l 1,57,58
828 846 m 1,65,66
 751 745 751 745 586 702 c 0,67,68
 546 692 546 692 507 692 c 2,69,-1
 498 692 l 1,70,71
 449 697 449 697 419 718 c 0,72,73
 402 731 402 731 383.5 743.5 c 128,-1,74
 365 756 365 756 346 767 c 1,75,76
 340 773 340 773 337.5 779 c 128,-1,77
 335 785 335 785 335 790 c 0,78,79
 335 817 335 817 368 817 c 2,80,-1
 410 817 l 2,81,82
 427 817 427 817 445 817 c 128,-1,83
 463 817 463 817 480 819 c 0,84,85
 506 821 506 821 528.5 823.5 c 128,-1,86
 551 826 551 826 576 831 c 1,87,88
 611 872 611 872 646 908 c 128,-1,89
 681 944 681 944 713 975 c 0,90,91
 735 995 735 995 778 1005 c 0,92,93
 788 1007 788 1007 799 1007 c 0,94,95
 835 1007 835 1007 858 979 c 0,96,97
 866 968 866 968 871.5 956.5 c 128,-1,98
 877 945 877 945 877 932 c 0,99,100
 877 913 877 913 864 897 c 1,101,-1
 864 898 l 1,102,-1
 828 847 l 1,103,-1
 828 846 l 1,65,66
565 1090 m 1,104,-1
 626 1188 l 2,105,106
 630 1195 630 1195 637.5 1197.5 c 128,-1,107
 645 1200 645 1200 652 1198.5 c 128,-1,108
 659 1197 659 1197 664.5 1191 c 128,-1,109
 670 1185 670 1185 670 1176 c 2,110,-1
 687 922 l 1,111,-1
 626 824 l 2,112,113
 616 809 616 809 599.5 813 c 128,-1,114
 583 817 583 817 581 835 c 2,115,-1
 565 1090 l 1,104,-1
EndSplineSet
EndChar
StartChar: uniFB94
Encoding: 64404 64404 192
Width: 1410
GlyphClass: 2
Flags: W
LayerCount: 2
Fore
SplineSet
642 455 m 1,0,1
 577 190 577 190 397 119 c 1,2,3
 312 84 312 84 217.5 55 c 128,-1,4
 123 26 123 26 17 1 c 0,5,6
 1 -3 1 -3 -8.5 8.5 c 128,-1,7
 -18 20 -18 20 -11 35 c 2,8,-1
 115 302 l 2,9,10
 117 307 117 307 122.5 311 c 128,-1,11
 128 315 128 315 133 316 c 0,12,13
 184 324 184 324 228.5 331 c 128,-1,14
 273 338 273 338 313 346 c 0,15,16
 390 361 390 361 470 399 c 1,17,18
 470 472 470 472 467 542.5 c 128,-1,19
 464 613 464 613 458 691 c 2,20,-1
 435 1007 l 1,21,-1
 558 1199 l 1,22,-1
 624 1438 l 1,23,-1
 1006 1661 l 1,24,-1
 1006 1660 l 1,25,26
 1072 1699 1072 1699 1138.5 1738.5 c 128,-1,27
 1205 1778 1205 1778 1272 1817 c 1,28,29
 1289 1824 1289 1824 1297 1824 c 0,30,31
 1330 1824 1330 1824 1330 1789 c 0,32,33
 1330 1785 1330 1785 1330 1782 c 128,-1,34
 1330 1779 1330 1779 1328 1774 c 1,35,-1
 1328 1775 l 1,36,-1
 1262 1535 l 1,37,38
 1177 1485 1177 1485 1089 1433.5 c 128,-1,39
 1001 1382 1001 1382 916 1333 c 0,40,41
 844 1291 844 1291 775 1251 c 128,-1,42
 706 1211 706 1211 636 1169 c 1,43,-1
 666 676 l 2,44,45
 667 668 667 668 667 658 c 128,-1,46
 667 648 667 648 667 640 c 0,47,48
 667 617 667 617 666 596 c 128,-1,49
 665 575 665 575 663 555 c 0,50,51
 655 499 655 499 642 454 c 1,52,-1
 642 455 l 1,0,1
667 1657 m 1,53,-1
 1266 2000 l 2,54,55
 1274 2005 1274 2005 1281.5 2003.5 c 128,-1,56
 1289 2002 1289 2002 1294 1996.5 c 128,-1,57
 1299 1991 1299 1991 1300.5 1982.5 c 128,-1,58
 1302 1974 1302 1974 1297 1966 c 2,59,-1
 1233 1858 l 1,60,-1
 635 1515 l 2,61,62
 627 1510 627 1510 619 1512 c 128,-1,63
 611 1514 611 1514 606 1519.5 c 128,-1,64
 601 1525 601 1525 599.5 1533 c 128,-1,65
 598 1541 598 1541 603 1549 c 2,66,-1
 667 1657 l 1,53,-1
EndSplineSet
EndChar
StartChar: uniFB9F
Encoding: 64415 64415 195
Width: 950
GlyphClass: 2
Flags: W
LayerCount: 2
Fore
SplineSet
720 260 m 0,0,1
 606 96 606 96 433 33 c 0,2,3
 343 1 343 1 266 1 c 0,4,5
 196 1 196 1 131 32 c 1,6,-1
 131 31 l 1,7,8
 68 62 68 62 31 130.5 c 128,-1,9
 -6 199 -6 199 -17 298 c 0,10,11
 -18 305 -18 305 -18 314 c 128,-1,12
 -18 323 -18 323 -18 330 c 0,13,14
 -18 425 -18 425 28 557.5 c 128,-1,15
 74 690 74 690 159 846 c 1,16,17
 177 876 177 876 199 876 c 0,18,19
 202 876 202 876 205.5 875.5 c 128,-1,20
 209 875 209 875 215 873 c 1,21,22
 234 863 234 863 234 839 c 0,23,24
 234 831 234 831 232.5 822 c 128,-1,25
 231 813 231 813 226 801 c 0,26,27
 214 775 214 775 198.5 744.5 c 128,-1,28
 183 714 183 714 165 678 c 0,29,30
 148 645 148 645 134.5 611 c 128,-1,31
 121 577 121 577 113 542 c 0,32,33
 104 507 104 507 104 472 c 0,34,35
 104 444 104 444 110 420 c 0,36,37
 122 370 122 370 188 342 c 1,38,39
 252 331 252 331 303 331 c 0,40,41
 404 331 404 331 490 365 c 0,42,43
 558 391 558 391 612.5 422.5 c 128,-1,44
 667 454 667 454 712 495 c 1,45,-1
 712 502 l 2,46,47
 712 539 712 539 708.5 571 c 128,-1,48
 705 603 705 603 699 632 c 1,49,-1
 699 631 l 1,50,51
 691 666 691 666 680.5 704 c 128,-1,52
 670 742 670 742 660 775 c 1,53,-1
 772 1030 l 2,54,55
 778 1045 778 1045 793.5 1045.5 c 128,-1,56
 809 1046 809 1046 816 1031 c 0,57,58
 881 893 881 893 881 750 c 0,59,60
 881 719 881 719 878 690 c 128,-1,61
 875 661 875 661 870 632 c 0,62,63
 851 528 851 528 814 435.5 c 128,-1,64
 777 343 777 343 720 260 c 0,0,1
EndSplineSet
EndChar
StartChar: uniFBA1
Encoding: 64417 64417 197
Width: 950
GlyphClass: 2
Flags: W
LayerCount: 2
Fore
SplineSet
720 260 m 0,0,1
 606 96 606 96 433 33 c 0,2,3
 343 1 343 1 266 1 c 0,4,5
 196 1 196 1 131 32 c 1,6,-1
 131 31 l 1,7,8
 68 62 68 62 31 130.5 c 128,-1,9
 -6 199 -6 199 -17 298 c 0,10,11
 -18 305 -18 305 -18 314 c 128,-1,12
 -18 323 -18 323 -18 330 c 0,13,14
 -18 425 -18 425 28 557.5 c 128,-1,15
 74 690 74 690 159 846 c 1,16,17
 177 876 177 876 199 876 c 0,18,19
 202 876 202 876 205.5 875.5 c 128,-1,20
 209 875 209 875 215 873 c 1,21,22
 234 863 234 863 234 839 c 0,23,24
 234 831 234 831 232.5 822 c 128,-1,25
 231 813 231 813 226 801 c 0,26,27
 214 775 214 775 198.5 744.5 c 128,-1,28
 183 714 183 714 165 678 c 0,29,30
 148 645 148 645 134.5 611 c 128,-1,31
 121 577 121 577 113 542 c 0,32,33
 104 507 104 507 104 472 c 0,34,35
 104 444 104 444 110 420 c 0,36,37
 122 370 122 370 188 342 c 1,38,39
 252 331 252 331 303 331 c 0,40,41
 404 331 404 331 490 365 c 0,42,43
 558 391 558 391 612.5 422.5 c 128,-1,44
 667 454 667 454 712 495 c 1,45,-1
 712 502 l 2,46,47
 712 539 712 539 708.5 571 c 128,-1,48
 705 603 705 603 699 632 c 1,49,-1
 699 631 l 1,50,51
 691 666 691 666 680.5 704 c 128,-1,52
 670 742 670 742 660 775 c 1,53,-1
 772 1030 l 2,54,55
 778 1045 778 1045 793.5 1045.5 c 128,-1,56
 809 1046 809 1046 816 1031 c 0,57,58
 881 893 881 893 881 750 c 0,59,60
 881 719 881 719 878 690 c 128,-1,61
 875 661 875 661 870 632 c 0,62,63
 851 528 851 528 814 435.5 c 128,-1,64
 777 343 777 343 720 260 c 0,0,1
617 1126 m 1,65,-1
 625 1130 l 1,66,-1
 617 1126 l 1,65,-1
616 1126 m 1,67,68
 610 1121 610 1121 610 1115 c 1,69,-1
 611 1113 l 2,70,71
 610 1114 610 1114 610 1114 c 1,72,-1
 605 1121 l 1,73,74
 608 1122 608 1122 616 1126 c 1,67,68
560 1104 m 1,75,76
 572 1108 572 1108 583 1112 c 128,-1,77
 594 1116 594 1116 605 1121 c 1,78,79
 602 1124 602 1124 598 1124 c 0,80,81
 595 1124 595 1124 589.5 1122 c 128,-1,82
 584 1120 584 1120 579 1118 c 0,83,84
 574 1115 574 1115 569.5 1111.5 c 128,-1,85
 565 1108 565 1108 560 1104 c 1,75,76
475 1086 m 1,86,87
 497 1091 497 1091 518.5 1095 c 128,-1,88
 540 1099 540 1099 560 1104 c 1,89,90
 534 1085 534 1085 507 1055 c 1,91,-1
 497 1045 l 1,92,-1
 475 1086 l 1,86,87
688 1094 m 1,93,94
 613 994 613 994 446 949 c 0,95,96
 406 939 406 939 367 939 c 2,97,-1
 358 939 l 1,98,99
 311 944 311 944 279 965 c 1,100,101
 262 979 262 979 243.5 991 c 128,-1,102
 225 1003 225 1003 205 1015 c 1,103,104
 195 1025 195 1025 195 1038 c 0,105,106
 195 1065 195 1065 228 1065 c 1,107,108
 239 1064 239 1064 249 1064 c 128,-1,109
 259 1064 259 1064 270 1064 c 0,110,111
 287 1064 287 1064 305 1064.5 c 128,-1,112
 323 1065 323 1065 340 1067 c 0,113,114
 366 1069 366 1069 388.5 1071.5 c 128,-1,115
 411 1074 411 1074 435 1078 c 1,116,117
 470 1120 470 1120 505.5 1156 c 128,-1,118
 541 1192 541 1192 573 1222 c 0,119,120
 597 1244 597 1244 638 1252 c 0,121,122
 648 1254 648 1254 659 1254 c 0,123,124
 696 1254 696 1254 718 1226 c 0,125,126
 726 1215 726 1215 731.5 1203.5 c 128,-1,127
 737 1192 737 1192 737 1180 c 0,128,129
 737 1169 737 1169 733.5 1160.5 c 128,-1,130
 730 1152 730 1152 724 1144 c 1,131,-1
 724 1145 l 1,132,-1
 688 1095 l 1,133,-1
 688 1094 l 1,93,94
425 1337 m 1,134,-1
 486 1435 l 2,135,136
 490 1442 490 1442 497.5 1445 c 128,-1,137
 505 1448 505 1448 512 1446 c 128,-1,138
 519 1444 519 1444 524.5 1438 c 128,-1,139
 530 1432 530 1432 530 1423 c 2,140,-1
 547 1169 l 1,141,-1
 486 1072 l 2,142,143
 481 1064 481 1064 473.5 1061.5 c 128,-1,144
 466 1059 466 1059 459 1060.5 c 128,-1,145
 452 1062 452 1062 447 1067.5 c 128,-1,146
 442 1073 442 1073 441 1082 c 2,147,-1
 425 1337 l 1,134,-1
EndSplineSet
EndChar
StartChar: uniFBA5
Encoding: 64421 64421 199
Width: 403
GlyphClass: 2
Flags: W
LayerCount: 2
Fore
SplineSet
567 294 m 1,0,-1
 415 15 l 2,1,2
 411 7 411 7 403.5 4.5 c 128,-1,3
 396 2 396 2 389 3.5 c 128,-1,4
 382 5 382 5 376.5 10.5 c 128,-1,5
 371 16 371 16 370 25 c 2,6,-1
 348 347 l 1,7,8
 319 322 319 322 287.5 305.5 c 128,-1,9
 256 289 256 289 217 278 c 1,10,11
 203 273 203 273 188.5 271.5 c 128,-1,12
 174 270 174 270 159 270 c 0,13,14
 82 270 82 270 16 332 c 1,15,16
 -18 366 -18 366 -18 421 c 0,17,18
 -18 435 -18 435 -17 449 c 128,-1,19
 -16 463 -16 463 -11 478 c 1,20,21
 0 520 0 520 17.5 566 c 128,-1,22
 35 612 35 612 58 658 c 256,23,24
 81 704 81 704 107 746.5 c 128,-1,25
 133 789 133 789 160 829 c 1,26,27
 190 871 190 871 211 898 c 128,-1,28
 232 925 232 925 245 936 c 1,29,-1
 245 935 l 1,30,31
 325 1011 325 1011 395 1011 c 0,32,33
 418 1011 418 1011 441 1002 c 0,34,35
 527 968 527 968 530 823 c 1,36,-1
 567 294 l 1,0,-1
280 718 m 1,37,38
 272 720 272 720 266.5 721.5 c 128,-1,39
 261 723 261 723 255 723 c 0,40,41
 236 723 236 723 218 708 c 0,42,43
 183 681 183 681 162 654 c 1,44,-1
 162 655 l 1,45,46
 156 647 156 647 156 642 c 0,47,48
 156 634 156 634 161 626 c 0,49,50
 180 592 180 592 227 579 c 1,51,-1
 226 579 l 1,52,53
 238 576 238 576 251 574 c 128,-1,54
 264 572 264 572 277 572 c 0,55,56
 298 572 298 572 318 576 c 1,57,58
 319 581 319 581 319 586.5 c 128,-1,59
 319 592 319 592 319 597 c 0,60,61
 319 611 319 611 317.5 627 c 128,-1,62
 316 643 316 643 314 661 c 0,63,64
 308 707 308 707 280 718 c 1,37,38
451 1391 m 2,65,66
 443 1373 443 1373 429 1360.5 c 128,-1,67
 415 1348 415 1348 396 1339 c 0,68,69
 391 1336 391 1336 382 1331 c 128,-1,70
 373 1326 373 1326 368 1321 c 1,71,72
 375 1316 375 1316 387 1313 c 0,73,74
 422 1304 422 1304 447 1288 c 0,75,76
 485 1264 485 1264 485 1222 c 0,77,78
 485 1204 485 1204 475 1179 c 0,79,80
 452 1120 452 1120 391 1076 c 0,81,82
 337 1037 337 1037 283 1030 c 1,83,-1
 205 1018 l 1,84,-1
 179 1014 l 2,85,86
 169 1013 169 1013 162.5 1018.5 c 128,-1,87
 156 1024 156 1024 153.5 1032 c 128,-1,88
 151 1040 151 1040 154 1048 c 128,-1,89
 157 1056 157 1056 166 1060 c 2,90,-1
 209 1078 l 1,91,92
 238 1092 238 1092 270 1105.5 c 128,-1,93
 302 1119 302 1119 331 1135 c 1,94,95
 327 1136 327 1136 323 1139 c 1,96,97
 301 1148 301 1148 281 1161 c 1,98,-1
 282 1161 l 1,99,100
 233 1187 233 1187 233 1236 c 0,101,102
 233 1281 233 1281 280 1342 c 0,103,104
 320 1395 320 1395 352.5 1430 c 128,-1,105
 385 1465 385 1465 406 1482 c 0,106,107
 426 1499 426 1499 462 1513 c 0,108,109
 470 1517 470 1517 477 1515.5 c 128,-1,110
 484 1514 484 1514 489 1508.5 c 128,-1,111
 494 1503 494 1503 495.5 1495.5 c 128,-1,112
 497 1488 497 1488 494 1480 c 2,113,-1
 451 1391 l 2,65,66
EndSplineSet
EndChar
